<svg width="30" height="30" viewBox="0 0 30 30" fill="none" xmlns="http://www.w3.org/2000/svg">
<path fill-rule="evenodd" clip-rule="evenodd" d="M15 0C23.2832 0 30 6.71513 30 15C30 23.2832 23.2832 30 15 30C6.71513 30 0 23.2832 0 15C0 6.71676 6.71676 0 15 0Z" fill="#CD3A26"/>
<path d="M14.729 25.0023C14.4634 24.8732 14.1618 24.7878 13.9395 24.606C13.1604 23.9707 13.1317 22.8475 13.8546 22.1481C14.0165 21.9913 14.1368 21.8367 14.1176 21.5935C14.0947 21.3055 13.9546 21.0878 13.6749 21.0207C12.9869 20.8546 12.3464 20.5827 11.7344 20.2281C11.3386 19.9984 10.8454 20.3041 10.8626 20.7686C10.8819 21.2889 10.7793 21.7622 10.4455 22.1731C9.95541 22.7756 9.11121 23.0136 8.38263 22.7527C7.66081 22.4944 7.15669 21.783 7.152 21.0181C7.14575 19.9693 7.96131 19.1475 9.0107 19.1444C9.14038 19.1439 9.27578 19.159 9.39869 19.1277C9.79866 19.0257 9.93927 18.595 9.74918 18.2029C9.5091 17.7082 9.30026 17.1978 9.08361 16.6922C9.04559 16.6037 9.03101 16.5047 9.01018 16.41C8.95446 16.1527 8.81228 15.9694 8.55241 15.9059C8.29201 15.8423 8.07744 15.9173 7.88736 16.1215C7.19939 16.8594 6.09428 16.8474 5.41829 16.1058C4.82824 15.4591 4.86729 14.4327 5.50474 13.8135C6.14583 13.1912 7.16762 13.1782 7.79518 13.7932C7.97902 13.9728 8.14046 14.1593 8.44096 14.1187C8.70448 14.0827 8.92112 13.9479 8.9831 13.688C9.14715 12.9996 9.4216 12.3601 9.76949 11.7451C10.0038 11.3311 9.69971 10.8733 9.2211 10.8572C8.95081 10.8483 8.66854 10.8447 8.41388 10.7666C7.57853 10.5109 7.03534 9.61209 7.1619 8.74921C7.29105 7.86862 8.0587 7.1729 8.92165 7.15519C9.87105 7.13541 10.6517 7.74 10.8225 8.64037C10.8585 8.82992 10.8564 9.02781 10.8579 9.22205C10.8621 9.69801 11.3287 10.0047 11.7428 9.77092C12.3583 9.42358 12.9989 9.15643 13.6853 8.9825C14.1561 8.86325 14.2769 8.26127 13.9145 7.92122C13.6499 7.67282 13.4739 7.39734 13.3931 7.09323C13.2869 6.69329 13.3708 6.34074 13.3994 6.24336C13.6207 5.48671 14.4155 5.09459 14.4259 5.10709C14.5332 5.23727 14.43 5.47422 14.6274 5.66481C14.9555 5.9809 15.6482 5.4336 16.0919 5.76167C16.2585 5.88509 16.2861 6.08714 16.3314 6.36678C16.4132 6.87191 16.2934 7.53899 15.9856 7.63012C15.8226 7.67855 15.7674 7.51712 15.3742 7.464C15.2091 7.44161 14.9128 7.4114 14.7493 7.57023C14.6993 7.61866 14.6743 7.6848 14.6618 7.99152C14.6456 8.38468 14.643 8.57944 14.6722 8.69713C14.8206 9.29027 16.2997 9.38192 16.2898 9.45743C16.2804 9.52877 14.9659 9.29443 13.7936 9.57147C13.3114 9.68552 12.9437 9.82091 12.5359 10.0204C12.3891 10.0922 12.2453 10.1703 12.1037 10.2547C11.8756 10.3906 11.6428 10.4567 11.4105 10.4458C11.1454 10.4338 10.973 10.325 10.847 10.2656C10.1507 9.93756 9.48879 10.7364 8.84821 10.6036C7.97172 10.4219 7.20877 8.60444 7.82017 7.87331C8.24462 7.36558 9.32526 7.39057 9.38046 7.55409C9.39661 7.60252 9.32526 7.66709 9.20496 7.76395C8.35555 8.45082 7.73529 8.58934 7.76497 8.77212C7.88631 9.52148 10.7543 9.51211 10.7444 9.84122C10.7371 10.0855 9.15756 10.2672 9.15861 10.2714C9.15965 10.2771 11.8391 9.7303 12.0349 10.1438C12.1474 10.3812 10.9803 10.8858 10.2908 12.0294C10.0601 12.4127 9.72575 13.1511 9.63461 13.5432C9.63096 13.5599 9.6018 13.6609 9.57576 13.7692C9.28568 14.9847 9.53097 16.1777 9.43567 16.197C9.32995 16.2183 9.12944 14.7165 8.68364 14.6759C8.35034 14.6457 8.33992 15.6908 7.57072 16.1168C7.03274 16.4152 6.19062 16.3813 5.74483 15.8861C5.40475 15.5085 5.27768 14.8425 5.56776 14.4504C5.68077 14.2978 5.87294 14.164 5.94689 14.2113C6.10469 14.3124 5.42194 15.1711 5.82711 15.6715C5.9021 15.7642 6.05261 16.0017 6.2526 15.9908C6.55674 15.9736 6.59267 15.4148 6.98587 14.9472C7.46708 14.3749 8.41648 14.0187 8.91852 14.3087C9.20183 14.4728 9.13569 14.7222 9.28984 15.3674C9.28984 15.3674 9.30547 15.4971 9.56534 16.2235C9.99343 17.4202 12.5542 19.5428 12.5286 19.5756C12.487 19.6297 10.6637 18.3268 10.4465 18.5627C10.2976 18.7247 11.1038 19.3991 10.9121 20.137C10.7809 20.6416 10.221 21.0295 9.96427 20.9207C9.63929 20.7827 9.85855 19.875 9.45077 19.7136C9.39036 19.6896 9.30182 19.7474 9.11798 19.7349C8.46023 19.6907 7.91131 20.0984 7.77591 20.7134C7.65352 21.2701 7.98683 21.745 7.98422 21.7461C7.98058 21.7476 7.32594 20.9124 7.62332 20.2474C7.81861 19.811 8.37273 19.56 8.84665 19.5558C9.70075 19.5485 10.182 20.351 10.408 20.1911C10.7658 19.9386 9.83772 18.117 10.0523 17.9956C10.1283 17.9524 10.3314 18.1805 10.397 18.2529C11.3251 19.273 12.8323 20.1708 13.8025 20.4432C15.1451 20.8202 16.1091 20.2146 16.258 20.552C16.4658 21.0222 14.6128 22.2137 14.7639 22.4501C14.8717 22.6189 15.8653 22.0908 15.9382 22.2153C16.044 22.3954 14.1702 23.878 13.9957 23.6989C13.8509 23.55 14.7331 22.1023 15.3175 22.2507C15.8758 22.3923 16.0549 23.9629 15.7549 24.1019C15.3992 24.2665 14.1181 22.5741 14.3425 22.2153C14.4748 22.0033 15.7216 22.471 15.7044 22.5371C15.6862 22.6079 14.2363 22.3371 14.2009 22.0736C14.1816 21.9309 14.9993 21.9023 15.3294 21.3196C15.4399 21.1243 15.4242 20.9868 15.5977 20.7947C15.7555 20.6197 15.97 20.4984 16.2377 20.4281C17.3413 20.1385 18.2427 19.6438 18.9411 18.946C19.6806 18.2071 20.0447 17.3624 20.4238 16.247C20.8842 14.8925 20.7477 14.2915 21.142 14.141C21.9721 13.8239 23.6923 16.0657 23.5355 16.2418C23.41 16.3829 21.9742 15.3252 21.9711 15.3304C21.97 15.3325 22.2252 15.4684 22.5424 15.7132C22.8184 15.9262 22.8507 15.9975 22.909 15.9829C23.2064 15.9095 22.6757 13.9583 23.1986 13.6974C23.4579 13.5682 23.9334 13.8755 24.1094 14.2572C24.4032 14.8946 23.8543 15.7236 23.4288 15.7538C22.9825 15.7856 22.8335 14.9258 21.9346 14.6842C21.7544 14.6358 21.543 14.6076 21.3128 14.6774C20.8056 14.831 20.7722 15.9053 20.6629 15.8955C20.5561 15.8861 20.8071 14.8821 20.4259 13.7625C20.2233 13.1683 19.9509 12.4293 19.7536 12.1091C19.728 12.0674 19.7176 11.9076 19.6088 11.7508C19.6088 11.7508 19.539 11.6503 19.439 11.5696C19.1026 11.2983 18.1625 11.3743 18.0386 11.1394C17.8402 10.7635 19.5156 9.1757 20.2327 9.54387C20.5441 9.70374 20.4983 10.1453 20.8878 10.2719C21.2961 10.4047 21.7346 10.0459 21.7893 10.0016C22.0164 9.81831 22.1763 9.5522 22.2346 9.23246C22.3242 8.73931 22.0299 8.3576 22.0711 8.33782C22.1143 8.31699 22.5018 8.71901 22.4981 9.24705C22.4945 9.79956 22.0659 10.161 21.993 10.2219C21.6482 10.5119 21.2654 10.5515 21.0889 10.5677C20.6972 10.6031 20.4087 10.5015 20.2113 10.4437C19.1666 10.136 19.05 10.5567 17.9797 10.2948C17.1392 10.0891 16.96 9.75425 16.146 9.55116C15.7622 9.45534 15.8544 9.40327 15.72 9.34338C14.7878 8.92626 14.491 9.03458 14.303 8.79972C13.8832 8.27481 14.618 6.80785 15.0607 6.84535C15.3456 6.8693 15.4227 7.50722 15.6857 7.48743C15.8919 7.47181 16.0351 7.06354 16.0669 6.79067C16.0783 6.69225 16.1325 6.2444 15.9112 6.11265C15.6966 5.98455 15.4737 6.30377 15.1336 6.20066C14.8972 6.1288 14.7649 5.90175 14.6264 5.66481C14.4816 5.41745 14.3097 5.14979 14.4337 5.10344C15.1633 4.83213 15.982 5.10865 16.3976 5.7674C16.8351 6.46051 16.7387 7.31402 16.1419 7.86654C15.9471 8.04672 15.8461 8.23835 15.894 8.50185C15.9388 8.74817 16.0747 8.92783 16.3179 8.98563C17.0001 9.1481 17.636 9.41368 18.2427 9.76415C18.6724 10.012 19.1619 9.7053 19.1395 9.20122C19.1099 8.5383 19.3104 7.98527 19.8358 7.56763C20.4608 7.07083 21.3149 7.0172 21.97 7.42755C22.645 7.85039 22.972 8.62579 22.8085 9.41629C22.6549 10.1578 22.0185 10.7463 21.2425 10.852C21.0889 10.8728 20.9305 10.8598 20.7743 10.8608C20.3103 10.8629 20.002 11.3321 20.2285 11.7341C20.579 12.3554 20.8472 13.0027 21.0238 13.6948C21.1566 14.2145 21.831 14.215 22.1096 13.9025C22.8054 13.1225 23.9662 13.149 24.6177 13.9546C24.7948 14.1733 24.875 14.4702 25 14.7311C25 14.9133 25 15.0956 25 15.2778C24.9406 15.4419 24.8974 15.6137 24.8182 15.7679C24.3001 16.7823 22.9179 16.9687 22.1237 16.1449C22.0185 16.0355 21.8674 15.9262 21.7253 15.9053C21.3128 15.8455 21.0831 16.0256 20.9837 16.4443C20.8415 17.0437 20.6123 17.6066 20.2988 18.1352C20.1655 18.3596 20.0879 18.5862 20.2296 18.832C20.3764 19.0866 20.6097 19.1481 20.892 19.1533C20.892 19.1533 21.1935 19.1684 21.655 19.2689C22.3565 19.4209 22.734 20.2786 22.7111 20.2973C22.6872 20.3171 22.1341 20.4489 22.1414 20.4421C22.1487 20.4359 21.8977 19.9729 21.4586 19.8214C21.2888 19.7625 21.2894 19.7521 20.7873 19.7422C20.4061 19.7349 20.2884 19.5225 20.1744 19.587C19.8963 19.7438 20.4009 21.1363 20.3915 21.1399C20.3863 21.1415 20.2369 20.7155 19.6853 19.0798C20.2754 19.649 20.8654 20.2182 21.4555 20.7874C20.4535 20.4999 19.2692 20.1094 19.3072 19.8469C19.3614 19.474 21.882 19.3579 21.9737 19.7433C22.0633 20.1187 19.8838 21.1118 19.7327 20.8879C19.5989 20.6895 20.9472 19.3782 21.2946 19.5943C21.7831 19.8985 21.3644 22.2371 20.9243 22.2658C20.642 22.2845 20.1436 21.3477 20.4316 20.5676C20.6061 20.0953 21.0868 19.6303 21.4487 19.7032C21.7492 19.7641 21.9128 20.1843 22.2096 20.1276C22.3211 20.1062 22.395 20.024 22.5049 20.0625C22.5919 20.0927 22.6715 20.2036 22.7116 20.2973C23.0215 21.0207 22.8075 21.8976 22.207 22.4079C21.581 22.9402 20.6941 23.0125 20.0119 22.5709C19.3765 22.1595 19.1109 21.5617 19.1406 20.8108C19.1614 20.2859 18.6635 19.9891 18.2167 20.2552C17.6365 20.6004 17.0199 20.8473 16.3663 21.0118C15.9976 21.1045 15.7992 21.4242 15.9054 21.7841C15.9466 21.9226 16.0606 22.0507 16.1679 22.1564C17.0309 23.0079 16.7085 24.5014 15.5685 24.9091C15.4716 24.944 15.3722 24.9716 15.2737 25.0028C15.0935 25.0023 14.9113 25.0023 14.729 25.0023Z" fill="#F9B9B0"/>
<path d="M15.0008 20.692C18.144 20.692 20.692 18.1442 20.692 15.0013C20.692 11.8584 18.144 9.31055 15.0008 9.31055C11.8577 9.31055 9.30963 11.8584 9.30963 15.0013C9.30963 18.1442 11.8577 20.692 15.0008 20.692Z" fill="#F9B9B0"/>
</svg>
