<svg width="38" height="34" viewBox="0 0 38 34" fill="none" xmlns="http://www.w3.org/2000/svg">
<g filter="url(#filter0_d_761_3140)">
<path fill-rule="evenodd" clip-rule="evenodd" d="M34.4092 7.17376C35.7998 5.45722 35.5356 2.93838 33.819 1.54777C32.1025 0.157158 29.5837 0.421372 28.1931 2.13791L15.849 17.3752L9.52716 11.0533C7.96506 9.49124 5.4324 9.49124 3.8703 11.0533C2.30821 12.6154 2.30821 15.1481 3.8703 16.7102L13.2955 26.1354C13.3502 26.1914 13.4068 26.2461 13.4653 26.2994C13.8304 26.633 14.2424 26.8866 14.6787 27.0605C15.2032 27.2699 15.7595 27.3622 16.3102 27.3415C16.9302 27.3185 17.5459 27.1521 18.1032 26.8423C18.4776 26.6346 18.8238 26.3635 19.125 26.0306C19.1879 25.9613 19.2479 25.8903 19.3051 25.8178L34.4092 7.17376Z" fill="#FF7B00"/>
<path d="M33.819 1.54777L33.5043 1.93628V1.93628L33.819 1.54777ZM34.4092 7.17376L34.7977 7.4885V7.4885L34.4092 7.17376ZM28.1931 2.13791L27.8046 1.82317L28.1931 2.13791ZM15.849 17.3752L15.4954 17.7287L15.888 18.1213L16.2375 17.6899L15.849 17.3752ZM9.52716 11.0533L9.88071 10.6998L9.52716 11.0533ZM3.8703 11.0533L3.51675 10.6998H3.51675L3.8703 11.0533ZM3.8703 16.7102L4.22386 16.3566L3.8703 16.7102ZM13.2955 26.1354L13.6533 25.7861L13.6491 25.7819L13.2955 26.1354ZM13.4653 26.2994L13.8026 25.9303L13.802 25.9297L13.4653 26.2994ZM14.6787 27.0605L14.8641 26.5961L14.8638 26.596L14.6787 27.0605ZM16.3102 27.3415L16.2917 26.8418L16.2914 26.8418L16.3102 27.3415ZM18.1032 26.8423L17.8607 26.4051L17.8603 26.4053L18.1032 26.8423ZM19.125 26.0306L18.7548 25.6945L18.7542 25.6951L19.125 26.0306ZM19.3051 25.8178L18.9166 25.5031L18.9126 25.5082L19.3051 25.8178ZM33.5043 1.93628C35.0063 3.15306 35.2375 5.35705 34.0207 6.85902L34.7977 7.4885C36.3621 5.55739 36.0649 2.7237 34.1338 1.15926L33.5043 1.93628ZM28.5816 2.45265C29.7984 0.95068 32.0023 0.719493 33.5043 1.93628L34.1338 1.15926C32.2027 -0.405176 29.369 -0.107935 27.8046 1.82317L28.5816 2.45265ZM16.2375 17.6899L28.5816 2.45265L27.8046 1.82317L15.4605 17.0604L16.2375 17.6899ZM9.1736 11.4069L15.4954 17.7287L16.2025 17.0216L9.88071 10.6998L9.1736 11.4069ZM4.22386 11.4069C5.59069 10.0401 7.80677 10.0401 9.1736 11.4069L9.88071 10.6998C8.12335 8.94243 5.27411 8.94243 3.51675 10.6998L4.22386 11.4069ZM4.22386 16.3566C2.85702 14.9898 2.85702 12.7737 4.22386 11.4069L3.51675 10.6998C1.75939 12.4571 1.75939 15.3064 3.51675 17.0637L4.22386 16.3566ZM13.6491 25.7819L4.22386 16.3566L3.51675 17.0637L12.942 26.489L13.6491 25.7819ZM13.802 25.9297C13.7507 25.883 13.7011 25.8351 13.6533 25.7861L12.9378 26.4848C12.9993 26.5477 13.0629 26.6092 13.1287 26.6691L13.802 25.9297ZM14.8638 26.596C14.4825 26.4441 14.1223 26.2224 13.8026 25.9303L13.1281 26.6685C13.5385 27.0435 14.0022 27.3292 14.4937 27.525L14.8638 26.596ZM16.2914 26.8418C15.8091 26.86 15.3224 26.7791 14.8641 26.5961L14.4933 27.5248C15.0839 27.7606 15.71 27.8644 16.329 27.8411L16.2914 26.8418ZM17.8603 26.4053C17.3733 26.676 16.8348 26.8217 16.2917 26.8418L16.3287 27.8411C17.0256 27.8153 17.7184 27.6283 18.3461 27.2793L17.8603 26.4053ZM18.7542 25.6951C18.4905 25.9866 18.1878 26.2236 17.8607 26.4051L18.3458 27.2796C18.7674 27.0457 19.1571 26.7403 19.4957 26.3661L18.7542 25.6951ZM18.9126 25.5082C18.8625 25.5716 18.8099 25.6338 18.7548 25.6945L19.4952 26.3667C19.5659 26.2888 19.6334 26.209 19.6977 26.1275L18.9126 25.5082ZM34.0207 6.85902L18.9166 25.5031L19.6936 26.1326L34.7977 7.4885L34.0207 6.85902Z" fill="#F5F5F5"/>
</g>
<defs>
<filter id="filter0_d_761_3140" x="0.19873" y="0.155701" width="37.6025" height="33.6886" filterUnits="userSpaceOnUse" color-interpolation-filters="sRGB">
<feFlood flood-opacity="0" result="BackgroundImageFix"/>
<feColorMatrix in="SourceAlpha" type="matrix" values="0 0 0 0 0 0 0 0 0 0 0 0 0 0 0 0 0 0 127 0" result="hardAlpha"/>
<feOffset dy="4"/>
<feGaussianBlur stdDeviation="1"/>
<feColorMatrix type="matrix" values="0 0 0 0 0 0 0 0 0 0 0 0 0 0 0 0 0 0 0.25 0"/>
<feBlend mode="normal" in2="BackgroundImageFix" result="effect1_dropShadow_761_3140"/>
<feBlend mode="normal" in="SourceGraphic" in2="effect1_dropShadow_761_3140" result="shape"/>
</filter>
</defs>
</svg>
