<svg width="48" height="48" viewBox="0 0 48 48" fill="none" xmlns="http://www.w3.org/2000/svg">
<g clip-path="url(#clip0_218_1348)">
<path d="M3.98036 47.6498C3.44102 47.6498 2.98928 47.2307 2.95321 46.6862C2.91542 46.1177 3.34655 45.6282 3.91509 45.5904L21.301 44.4567C21.6411 44.4344 21.9503 44.2798 22.1719 44.0222C22.3934 43.7645 22.4999 43.4365 22.4724 43.0981L22.1169 38.7971L14.841 37.1241C14.4133 37.0262 14.0955 36.6672 14.0474 36.2327C13.9993 35.7964 14.2329 35.379 14.6297 35.1901L21.5346 31.9059L21.1378 27.234C21.1172 27.0021 21.1774 26.7685 21.3079 26.5744C21.4075 26.425 21.5449 26.3047 21.7047 26.224C21.8266 26.1639 21.9589 26.1278 22.0946 26.1175L25.1107 25.9114C25.2705 25.9011 25.3495 25.7963 25.3821 25.7362C25.4148 25.6761 25.4577 25.5524 25.3787 25.4133L20.9523 17.5654C20.8768 17.4314 20.8321 17.2803 20.8218 17.1257L20.6157 13.9532C20.3941 10.5523 18.85 7.43131 16.2683 5.16574C13.6867 2.90018 10.3923 1.77513 6.99138 1.9967L1.09816 2.38145C0.527903 2.42096 0.0400941 1.98811 0.00230606 1.41958C-0.035482 0.851037 0.395645 0.361509 0.964183 0.323721L6.8574 -0.0610298C10.808 -0.318676 14.6331 0.98673 17.6287 3.61472C20.6243 6.2427 22.4158 9.86692 22.6734 13.8175L22.8641 16.7547L27.1753 24.3964C27.5824 25.1161 27.591 25.9818 27.1977 26.7101C26.8043 27.4384 26.0778 27.9073 25.2516 27.964L23.2797 28.0997L23.649 32.4401C23.6851 32.8678 23.4532 33.2732 23.065 33.4587L18.1887 35.7792L23.3141 36.9575C23.7521 37.0589 24.0733 37.4299 24.1111 37.8765L24.5267 42.9263C24.6023 43.8195 24.3206 44.6869 23.7349 45.3671C23.1492 46.0473 22.3333 46.4543 21.4367 46.5127L4.05078 47.6464C4.02673 47.6481 4.00268 47.6498 3.98036 47.6498Z" fill="#5AC7E6"/>
<path d="M46.9695 31.6672H35.2861C34.7176 31.6672 34.2556 32.1293 34.2556 32.6978C34.2556 33.2664 34.7176 33.7284 35.2861 33.7284H46.9695C47.5381 33.7284 48.0001 33.2664 48.0001 32.6978C48.0001 32.1293 47.5398 31.6672 46.9695 31.6672Z" fill="#FF7B00"/>
<path d="M32.579 25.0559C32.7817 25.329 33.0926 25.4716 33.4069 25.4716C33.6199 25.4716 33.8363 25.4063 34.0201 25.2689L41.6258 19.6247C42.0827 19.2846 42.1789 18.6405 41.8388 18.1836C41.5004 17.7267 40.8546 17.6305 40.3977 17.9706L32.792 23.6148C32.3368 23.9532 32.2406 24.599 32.579 25.0559Z" fill="#FF7B00"/>
<path d="M41.6276 46.0198L34.0218 40.3757C33.565 40.0373 32.9191 40.1318 32.5807 40.5887C32.2424 41.0455 32.3368 41.6914 32.7937 42.0297L40.3995 47.6739C40.5832 47.8113 40.7997 47.8766 41.0126 47.8766C41.327 47.8766 41.6396 47.7323 41.8405 47.4609C42.1806 47.004 42.0845 46.3599 41.6276 46.0198Z" fill="#FF7B00"/>
<path d="M33.072 17.1704C33.072 16.6018 32.6048 16.1398 32.0363 16.1398C31.4677 16.1398 31.0057 16.6018 31.0057 17.1704C31.0057 17.7389 31.4677 18.2009 32.0363 18.2009H32.0483C32.6168 18.2009 33.072 17.7389 33.072 17.1704Z" fill="#FF7B00"/>
<path d="M41.4335 25.9302C41.4335 26.4988 41.8956 26.9608 42.4641 26.9608H42.4761C43.0447 26.9608 43.5016 26.4988 43.5016 25.9302C43.5016 25.3617 43.0344 24.8997 42.4658 24.8997C41.8973 24.8997 41.4335 25.3617 41.4335 25.9302Z" fill="#FF7B00"/>
<path d="M29.8446 29.5048C29.276 29.5048 28.814 29.9668 28.814 30.5354C28.814 31.1039 29.276 31.566 29.8446 31.566H29.8566C30.4251 31.566 30.882 31.1039 30.882 30.5354C30.882 29.9668 30.4148 29.5048 29.8446 29.5048Z" fill="#FF7B00"/>
<path d="M45.1537 39.6387C44.5852 39.6387 44.1231 40.1007 44.1231 40.6693C44.1231 41.2378 44.5852 41.6998 45.1537 41.6998H45.1657C45.7343 41.6998 46.1911 41.2378 46.1911 40.6693C46.1911 40.1007 45.7222 39.6387 45.1537 39.6387Z" fill="#FF7B00"/>
<path d="M29.5011 45.0167C28.9325 45.0167 28.4705 45.4788 28.4705 46.0473C28.4705 46.6159 28.9325 47.0779 29.5011 47.0779H29.5131C30.0816 47.0779 30.5385 46.6159 30.5385 46.0473C30.5385 45.4788 30.0713 45.0167 29.5011 45.0167Z" fill="#FF7B00"/>
</g>
<defs>
<clipPath id="clip0_218_1348">
<rect width="48" height="48" fill="white"/>
</clipPath>
</defs>
</svg>
