<svg width="48" height="48" viewBox="0 0 48 48" fill="none" xmlns="http://www.w3.org/2000/svg">
<path d="M16.2802 12.2197L15.3105 11.25L16.2802 10.2802L15.2197 9.21973L13.1895 11.25L15.2197 13.2802L16.2802 12.2197Z" fill="#5AC7E6"/>
<path d="M33.75 21.75H26.25C25.4227 21.75 24.75 22.4227 24.75 23.25V33.75H22.9875C23.1547 33.2798 23.25 32.7765 23.25 32.25V23.0002C23.25 21.0435 22.3155 19.1738 20.7495 18L20.25 17.625V15.4012L21.3705 14.6542C23.4862 13.2435 24.75 10.8833 24.75 8.33925C24.75 4.15425 21.3458 0.75 17.1608 0.75H12C9.93225 0.75 8.25 2.43225 8.25 4.5C8.25 6.3105 9.54075 7.8255 11.25 8.17425V9.879C11.25 10.0762 11.1705 10.2697 11.0302 10.4092L10.2802 11.1592C9.9435 11.496 9.75 11.9625 9.75 12.4395C9.75 13.332 10.3988 14.076 11.25 14.2238V15.3488C11.25 17.184 12.7133 18.6742 14.5328 18.738L14.8807 20.478C13.9762 21.6105 13.3312 22.9432 12.9742 24.3855L10.359 24.6233C9.15675 24.7328 8.25 25.725 8.25 26.9318C8.25 28.2098 9.29025 29.25 10.5682 29.25H12.75V30.8018L10.6088 30.9547C5.922 31.29 2.25 35.2328 2.25 39.9315V39.9592L0.75 39.459V42.75C0.75 43.2757 1.023 43.7377 1.434 44.0055L1.28025 44.1593C0.9435 44.496 0.75 44.9625 0.75 45.4395C0.75 46.4377 1.56225 47.25 2.5605 47.25H7.5C8.7405 47.25 9.75 46.2405 9.75 45V44.25C10.5773 44.25 11.25 43.5773 11.25 42.75V39.459L9.75 39.9592V39C9.75 37.926 10.5067 37.029 11.5147 36.8063L12.0233 38.0775C13.524 41.8275 17.1022 44.25 21.141 44.25C21.7995 44.25 22.4452 44.1742 23.076 44.0482C22.9012 44.676 22.587 45.2535 22.152 45.75H20.25V47.25H34.5V45.75H33V40.7047C34.473 38.178 35.25 35.3032 35.25 32.3767V23.25C35.25 22.4227 34.5773 21.75 33.75 21.75ZM33.75 23.25V24.75H26.25V23.25H33.75ZM9.75 4.5C9.75 3.2595 10.7595 2.25 12 2.25H17.1608C20.5178 2.25 23.25 4.98225 23.25 8.33925C23.25 10.38 22.236 12.2745 20.5388 13.4062L20.25 13.599V12.6225C21.123 12.3127 21.75 11.4788 21.75 10.5008C21.75 9.501 21.0945 8.6505 20.19 8.3595C19.9283 6.978 18.837 5.88 17.4037 5.6415L15.642 5.3475C15.36 4.42575 14.5117 3.75 13.5 3.75H12.75V5.25H13.5C13.914 5.25 14.25 5.586 14.25 6C14.25 6.414 13.914 6.75 13.5 6.75H12C10.7595 6.75 9.75 5.7405 9.75 4.5ZM12.7943 15.75H14.25V14.25H12.75V12.75H11.5605C11.3895 12.75 11.25 12.6105 11.25 12.4395C11.25 12.3578 11.283 12.2775 11.3408 12.2197L12.0908 11.4698C12.516 11.0453 12.75 10.4797 12.75 9.879V8.25H13.5C14.4375 8.25 15.2407 7.67325 15.5782 6.8565L17.157 7.11975C18.0802 7.2735 18.75 8.064 18.75 9V9.75H19.5C19.914 9.75 20.25 10.086 20.25 10.5C20.25 10.914 19.914 11.25 19.5 11.25H18.75V17.5118C17.7878 17.934 16.9208 18.504 16.1498 19.1768L16.0073 18.4642C16.3928 18.2962 16.7498 18.06 17.0565 17.754L17.7803 17.0303L16.7197 15.9697L15.996 16.6935C15.6375 17.052 15.1597 17.25 14.6512 17.25C13.7415 17.25 12.9795 16.6058 12.7943 15.75ZM19.3987 18.861L19.8502 19.1993C21.0397 20.0918 21.75 21.513 21.75 23.0002C21.75 25.6192 19.6192 27.75 17.0002 27.75H12.75V25.9125L15.99 25.6178C17.0445 25.5218 18.0143 24.9802 18.6503 24.1327L20.1 22.2L18.9 21.3L17.4503 23.2327C17.0685 23.7412 16.4865 24.066 15.8535 24.1238L14.5538 24.2415C15.3038 21.8415 17.0572 19.872 19.3987 18.861ZM9.75 26.9318C9.75 26.5058 10.0702 26.1555 10.494 26.1173L11.25 26.049V27.75H10.5682C10.1167 27.75 9.75 27.3833 9.75 26.9318ZM17.0002 29.25C18.9007 29.25 20.6025 28.3943 21.75 27.0518V30.75H14.25V29.25H17.0002ZM8.25 45C8.25 45.414 7.914 45.75 7.5 45.75H2.5605C2.3895 45.75 2.25 45.6105 2.25 45.4395C2.25 45.3577 2.283 45.2775 2.34075 45.2197L3.3105 44.25H8.25V45ZM9.75 42.75H2.25V41.541L3.86025 42.078L6 40.6515L8.13975 42.0773L9.75 41.541V42.75ZM8.25 39V40.3485L6 38.8485L3.75 40.3485V39.9315C3.75 36.0158 6.80925 32.7292 10.7152 32.4502L13.5225 32.25H21.75C21.75 33.9045 20.4045 35.25 18.75 35.25H12C9.93225 35.25 8.25 36.9323 8.25 39ZM31.6073 40.1138L31.5 40.2922V45.75H23.9985C24.3742 45.081 24.6158 44.3423 24.7065 43.5705C26.292 42.9533 27.711 41.9362 28.8075 40.5637L29.0842 40.218L27.9135 39.2805L27.636 39.6262C26.0497 41.6115 23.682 42.75 21.141 42.75C17.7187 42.75 14.6873 40.6973 13.416 37.5203L13.1077 36.75H18.75C20.0783 36.75 21.27 36.168 22.095 35.25H24.75C25.5773 35.25 26.25 34.5773 26.25 33.75V26.25H33.75V32.3767C33.75 35.1022 33.009 37.7775 31.6073 40.1138Z" fill="#5AC7E6"/>
<path d="M5.06458 14.5065L3.93568 15.4943L9.18558 21.4944L10.3145 20.5066L5.06458 14.5065Z" fill="#5AC7E6"/>
<path d="M3.23729 21.0386L2.76323 22.4609L7.26362 23.9609L7.73769 22.5386L3.23729 21.0386Z" fill="#5AC7E6"/>
<path d="M6.28149 24.9153L2.53142 27.9153L3.46894 29.0872L7.21901 26.0873L6.28149 24.9153Z" fill="#5AC7E6"/>
<path d="M34.5 14.25H40.5C41.7405 14.25 42.75 13.2405 42.75 12C42.75 11.0235 42.1208 10.1985 41.25 9.88801V9.75601C41.25 8.53201 40.4692 7.44976 39.309 7.06276C38.9692 6.94951 38.6932 6.71026 38.5335 6.39076L37.7055 4.73401L35.7165 6.72301C35.6093 6.83026 35.487 6.91801 35.3528 6.98551C34.3635 7.47976 33.75 8.47351 33.75 9.57826V9.88801C32.8792 10.1985 32.25 11.0235 32.25 12C32.25 13.2405 33.2595 14.25 34.5 14.25ZM34.5 11.25H36.75V9.75001H35.25V9.57826C35.25 9.04426 35.547 8.56501 36.0232 8.32651C36.3022 8.18626 36.5557 8.00401 36.777 7.78276L37.3005 7.25926C37.6493 7.83751 38.1862 8.26876 38.8335 8.48551C39.3795 8.66701 39.7463 9.17476 39.7485 9.75001H38.25V11.25H40.5C40.914 11.25 41.25 11.586 41.25 12C41.25 12.414 40.914 12.75 40.5 12.75H34.5C34.086 12.75 33.75 12.414 33.75 12C33.75 11.586 34.086 11.25 34.5 11.25Z" fill="#FF7B00"/>
<path d="M45.75 2.25H29.25C28.4227 2.25 27.75 2.92275 27.75 3.75V15.75C27.75 16.5773 28.4227 17.25 29.25 17.25H32.25V18.573C32.25 19.4977 33.0023 20.25 33.927 20.25C34.566 20.25 35.1398 19.8945 35.427 19.323L36.4635 17.25H45.75C46.5773 17.25 47.25 16.5773 47.25 15.75V3.75C47.25 2.92275 46.5773 2.25 45.75 2.25ZM45.75 15.75H35.5365L34.086 18.651C34.011 18.7995 33.75 18.738 33.75 18.573V15.75H29.25V3.75H45.75V15.75Z" fill="#FF7B00"/>
</svg>
