<svg width="48" height="48" viewBox="0 0 48 48" fill="none" xmlns="http://www.w3.org/2000/svg">
<mask id="path-1-outside-1_218_1351" maskUnits="userSpaceOnUse" x="12.1346" y="5.65869" width="6" height="6" fill="black">
<rect fill="white" x="12.1346" y="5.65869" width="6" height="6"/>
<path d="M13.8687 11.1036C13.9558 11.1036 14.0429 11.0869 14.1277 11.0511C14.4682 10.9083 14.6289 10.5153 14.486 10.1737C14.4347 10.051 14.6948 9.28965 16.8559 8.05728C16.9385 8.0104 17.0233 7.9624 17.1093 7.91551C17.433 7.73691 17.5513 7.33058 17.3738 7.00575C17.1952 6.68202 16.7889 6.5637 16.4641 6.74119C16.3714 6.79254 16.2799 6.84277 16.1917 6.89412C13.7627 8.27942 12.7736 9.55644 13.2514 10.6928C13.3586 10.9484 13.6064 11.1036 13.8687 11.1036Z"/>
</mask>
<path d="M13.8687 11.1036C13.9558 11.1036 14.0429 11.0869 14.1277 11.0511C14.4682 10.9083 14.6289 10.5153 14.486 10.1737C14.4347 10.051 14.6948 9.28965 16.8559 8.05728C16.9385 8.0104 17.0233 7.9624 17.1093 7.91551C17.433 7.73691 17.5513 7.33058 17.3738 7.00575C17.1952 6.68202 16.7889 6.5637 16.4641 6.74119C16.3714 6.79254 16.2799 6.84277 16.1917 6.89412C13.7627 8.27942 12.7736 9.55644 13.2514 10.6928C13.3586 10.9484 13.6064 11.1036 13.8687 11.1036Z" fill="#FF7B00"/>
<path d="M13.8687 11.1036C13.9558 11.1036 14.0429 11.0869 14.1277 11.0511C14.4682 10.9083 14.6289 10.5153 14.486 10.1737C14.4347 10.051 14.6948 9.28965 16.8559 8.05728C16.9385 8.0104 17.0233 7.9624 17.1093 7.91551C17.433 7.73691 17.5513 7.33058 17.3738 7.00575C17.1952 6.68202 16.7889 6.5637 16.4641 6.74119C16.3714 6.79254 16.2799 6.84277 16.1917 6.89412C13.7627 8.27942 12.7736 9.55644 13.2514 10.6928C13.3586 10.9484 13.6064 11.1036 13.8687 11.1036Z" stroke="#FF7B00" mask="url(#path-1-outside-1_218_1351)"/>
<mask id="path-2-outside-2_218_1351" maskUnits="userSpaceOnUse" x="12.1974" y="1.57288" width="25" height="11" fill="black">
<rect fill="white" x="12.1974" y="1.57288" width="25" height="11"/>
<path d="M13.6085 4.84122C13.949 4.98411 14.3419 4.82448 14.4848 4.4829C14.5574 4.30987 15.3164 3.83546 17.7678 3.93034C19.0046 3.97834 20.4257 4.15806 21.936 4.45387C21.0206 4.7508 20.1377 5.07118 19.3027 5.41053C18.96 5.55006 18.7948 5.94076 18.9343 6.28346C19.0404 6.54355 19.2904 6.70094 19.555 6.70094C19.6387 6.70094 19.7246 6.68532 19.8072 6.65183C21.0039 6.16513 22.301 5.71862 23.6618 5.32457C23.9877 5.22969 24.2925 5.14597 24.5871 5.06783C24.8952 5.14932 25.2045 5.23527 25.5137 5.32457C30.7256 6.83378 34.1079 8.84085 34.6437 9.96271C34.6884 10.0565 34.7062 10.1357 34.6906 10.1737C34.5477 10.5153 34.7073 10.9071 35.0489 11.0511C35.1338 11.0868 35.2219 11.1035 35.3079 11.1035C35.5691 11.1035 35.818 10.9495 35.9252 10.6928C36.0435 10.4126 36.1261 9.95825 35.8526 9.3856C35.0087 7.61853 31.1174 5.72308 27.2383 4.45499C28.9183 4.1268 30.4833 3.94039 31.7894 3.92029C33.9594 3.88457 34.6192 4.31434 34.6895 4.4829C34.8324 4.82336 35.2253 4.98411 35.5658 4.84122C35.9073 4.69834 36.067 4.30541 35.9241 3.96494C34.9685 1.68997 28.4294 2.69908 24.5871 3.68364C19.4913 2.37201 14.0997 1.94113 13.2502 3.96494C13.1062 4.30541 13.267 4.69722 13.6085 4.84122Z"/>
</mask>
<path d="M13.6085 4.84122C13.949 4.98411 14.3419 4.82448 14.4848 4.4829C14.5574 4.30987 15.3164 3.83546 17.7678 3.93034C19.0046 3.97834 20.4257 4.15806 21.936 4.45387C21.0206 4.7508 20.1377 5.07118 19.3027 5.41053C18.96 5.55006 18.7948 5.94076 18.9343 6.28346C19.0404 6.54355 19.2904 6.70094 19.555 6.70094C19.6387 6.70094 19.7246 6.68532 19.8072 6.65183C21.0039 6.16513 22.301 5.71862 23.6618 5.32457C23.9877 5.22969 24.2925 5.14597 24.5871 5.06783C24.8952 5.14932 25.2045 5.23527 25.5137 5.32457C30.7256 6.83378 34.1079 8.84085 34.6437 9.96271C34.6884 10.0565 34.7062 10.1357 34.6906 10.1737C34.5477 10.5153 34.7073 10.9071 35.0489 11.0511C35.1338 11.0868 35.2219 11.1035 35.3079 11.1035C35.5691 11.1035 35.818 10.9495 35.9252 10.6928C36.0435 10.4126 36.1261 9.95825 35.8526 9.3856C35.0087 7.61853 31.1174 5.72308 27.2383 4.45499C28.9183 4.1268 30.4833 3.94039 31.7894 3.92029C33.9594 3.88457 34.6192 4.31434 34.6895 4.4829C34.8324 4.82336 35.2253 4.98411 35.5658 4.84122C35.9073 4.69834 36.067 4.30541 35.9241 3.96494C34.9685 1.68997 28.4294 2.69908 24.5871 3.68364C19.4913 2.37201 14.0997 1.94113 13.2502 3.96494C13.1062 4.30541 13.267 4.69722 13.6085 4.84122Z" fill="#FF7B00"/>
<path d="M13.6085 4.84122C13.949 4.98411 14.3419 4.82448 14.4848 4.4829C14.5574 4.30987 15.3164 3.83546 17.7678 3.93034C19.0046 3.97834 20.4257 4.15806 21.936 4.45387C21.0206 4.7508 20.1377 5.07118 19.3027 5.41053C18.96 5.55006 18.7948 5.94076 18.9343 6.28346C19.0404 6.54355 19.2904 6.70094 19.555 6.70094C19.6387 6.70094 19.7246 6.68532 19.8072 6.65183C21.0039 6.16513 22.301 5.71862 23.6618 5.32457C23.9877 5.22969 24.2925 5.14597 24.5871 5.06783C24.8952 5.14932 25.2045 5.23527 25.5137 5.32457C30.7256 6.83378 34.1079 8.84085 34.6437 9.96271C34.6884 10.0565 34.7062 10.1357 34.6906 10.1737C34.5477 10.5153 34.7073 10.9071 35.0489 11.0511C35.1338 11.0868 35.2219 11.1035 35.3079 11.1035C35.5691 11.1035 35.818 10.9495 35.9252 10.6928C36.0435 10.4126 36.1261 9.95825 35.8526 9.3856C35.0087 7.61853 31.1174 5.72308 27.2383 4.45499C28.9183 4.1268 30.4833 3.94039 31.7894 3.92029C33.9594 3.88457 34.6192 4.31434 34.6895 4.4829C34.8324 4.82336 35.2253 4.98411 35.5658 4.84122C35.9073 4.69834 36.067 4.30541 35.9241 3.96494C34.9685 1.68997 28.4294 2.69908 24.5871 3.68364C19.4913 2.37201 14.0997 1.94113 13.2502 3.96494C13.1062 4.30541 13.267 4.69722 13.6085 4.84122Z" stroke="#FF7B00" mask="url(#path-2-outside-2_218_1351)"/>
<mask id="path-3-outside-3_218_1351" maskUnits="userSpaceOnUse" x="8.86578" y="14.6161" width="31" height="32" fill="black">
<rect fill="white" x="8.86578" y="14.6161" width="31" height="32"/>
<path d="M29.202 27.5565H29.0144V26.4012C30.7536 25.0683 31.8263 23.0021 31.9022 20.8041L32.0451 16.7219C32.0585 16.3524 31.7694 16.0421 31.3988 16.0287C31.0282 16.0131 30.719 16.3044 30.7056 16.675L30.5627 20.7572C30.4968 22.6538 29.5257 24.4298 27.9618 25.5104C26.9515 26.2092 25.7661 26.5786 24.5337 26.5786C23.3013 26.5786 22.1158 26.2092 21.1067 25.5115C20.8388 25.3262 20.5809 25.1152 20.3421 24.8852C19.2113 23.7935 18.5594 22.3267 18.5047 20.7572L18.3495 16.2854L18.3484 16.2586C18.3339 15.8892 18.0202 15.6 17.6518 15.6168C17.2823 15.6313 16.9943 15.9439 17.01 16.3133L17.1662 20.803C17.2332 22.7219 18.0302 24.5135 19.4133 25.8497C19.6176 26.0462 19.833 26.2304 20.0563 26.4012V27.5554H19.8676C14.3521 27.5554 9.86578 32.0417 9.86578 37.5572V40.6795C9.86578 41.8761 10.7633 42.883 11.9521 43.0203L15.0476 43.3764C15.9138 43.4758 16.7633 43.6979 17.5804 44.0372L17.5949 44.0428C19.794 44.9571 22.1169 45.4203 24.4991 45.4203C26.8935 45.4203 29.2288 44.9526 31.4379 44.0283C32.207 43.7068 33.0185 43.4936 33.8501 43.3976L37.1164 43.0203C38.3052 42.883 39.2016 41.8761 39.2016 40.6795V37.5572C39.2038 32.0439 34.7175 27.5565 29.202 27.5565ZM21.3969 27.2194C22.3726 27.6793 23.4386 27.9204 24.5359 27.9204C25.6332 27.9204 26.6993 27.6793 27.6749 27.2183V28.1928C27.6749 29.923 26.2662 31.3318 24.5348 31.3318C22.8046 31.3318 21.3958 29.9241 21.3958 28.1928V27.2194H21.3969ZM37.8643 40.6806C37.8643 41.1974 37.4781 41.6317 36.9646 41.6908L33.6972 42.0681C32.7406 42.1798 31.8074 42.4242 30.9222 42.7937C28.8782 43.6477 26.7171 44.0819 24.5002 44.0819C22.2955 44.0819 20.1456 43.6532 18.1017 42.8038L18.0872 42.7982C17.1618 42.4142 16.1906 42.1608 15.2005 42.0469L12.105 41.6908C11.5916 41.6317 11.2042 41.1974 11.2042 40.6806V37.5584C11.2042 32.7818 15.09 28.896 19.8665 28.896H20.111C20.4503 31.0315 22.3034 32.6702 24.5337 32.6702C26.764 32.6702 28.6182 31.0326 28.9575 28.896H29.2008C33.9774 28.896 37.8632 32.7818 37.8632 37.5584V40.6806H37.8643Z"/>
</mask>
<path d="M29.202 27.5565H29.0144V26.4012C30.7536 25.0683 31.8263 23.0021 31.9022 20.8041L32.0451 16.7219C32.0585 16.3524 31.7694 16.0421 31.3988 16.0287C31.0282 16.0131 30.719 16.3044 30.7056 16.675L30.5627 20.7572C30.4968 22.6538 29.5257 24.4298 27.9618 25.5104C26.9515 26.2092 25.7661 26.5786 24.5337 26.5786C23.3013 26.5786 22.1158 26.2092 21.1067 25.5115C20.8388 25.3262 20.5809 25.1152 20.3421 24.8852C19.2113 23.7935 18.5594 22.3267 18.5047 20.7572L18.3495 16.2854L18.3484 16.2586C18.3339 15.8892 18.0202 15.6 17.6518 15.6168C17.2823 15.6313 16.9943 15.9439 17.01 16.3133L17.1662 20.803C17.2332 22.7219 18.0302 24.5135 19.4133 25.8497C19.6176 26.0462 19.833 26.2304 20.0563 26.4012V27.5554H19.8676C14.3521 27.5554 9.86578 32.0417 9.86578 37.5572V40.6795C9.86578 41.8761 10.7633 42.883 11.9521 43.0203L15.0476 43.3764C15.9138 43.4758 16.7633 43.6979 17.5804 44.0372L17.5949 44.0428C19.794 44.9571 22.1169 45.4203 24.4991 45.4203C26.8935 45.4203 29.2288 44.9526 31.4379 44.0283C32.207 43.7068 33.0185 43.4936 33.8501 43.3976L37.1164 43.0203C38.3052 42.883 39.2016 41.8761 39.2016 40.6795V37.5572C39.2038 32.0439 34.7175 27.5565 29.202 27.5565ZM21.3969 27.2194C22.3726 27.6793 23.4386 27.9204 24.5359 27.9204C25.6332 27.9204 26.6993 27.6793 27.6749 27.2183V28.1928C27.6749 29.923 26.2662 31.3318 24.5348 31.3318C22.8046 31.3318 21.3958 29.9241 21.3958 28.1928V27.2194H21.3969ZM37.8643 40.6806C37.8643 41.1974 37.4781 41.6317 36.9646 41.6908L33.6972 42.0681C32.7406 42.1798 31.8074 42.4242 30.9222 42.7937C28.8782 43.6477 26.7171 44.0819 24.5002 44.0819C22.2955 44.0819 20.1456 43.6532 18.1017 42.8038L18.0872 42.7982C17.1618 42.4142 16.1906 42.1608 15.2005 42.0469L12.105 41.6908C11.5916 41.6317 11.2042 41.1974 11.2042 40.6806V37.5584C11.2042 32.7818 15.09 28.896 19.8665 28.896H20.111C20.4503 31.0315 22.3034 32.6702 24.5337 32.6702C26.764 32.6702 28.6182 31.0326 28.9575 28.896H29.2008C33.9774 28.896 37.8632 32.7818 37.8632 37.5584V40.6806H37.8643Z" fill="white"/>
<path d="M29.202 27.5565H29.0144V26.4012C30.7536 25.0683 31.8263 23.0021 31.9022 20.8041L32.0451 16.7219C32.0585 16.3524 31.7694 16.0421 31.3988 16.0287C31.0282 16.0131 30.719 16.3044 30.7056 16.675L30.5627 20.7572C30.4968 22.6538 29.5257 24.4298 27.9618 25.5104C26.9515 26.2092 25.7661 26.5786 24.5337 26.5786C23.3013 26.5786 22.1158 26.2092 21.1067 25.5115C20.8388 25.3262 20.5809 25.1152 20.3421 24.8852C19.2113 23.7935 18.5594 22.3267 18.5047 20.7572L18.3495 16.2854L18.3484 16.2586C18.3339 15.8892 18.0202 15.6 17.6518 15.6168C17.2823 15.6313 16.9943 15.9439 17.01 16.3133L17.1662 20.803C17.2332 22.7219 18.0302 24.5135 19.4133 25.8497C19.6176 26.0462 19.833 26.2304 20.0563 26.4012V27.5554H19.8676C14.3521 27.5554 9.86578 32.0417 9.86578 37.5572V40.6795C9.86578 41.8761 10.7633 42.883 11.9521 43.0203L15.0476 43.3764C15.9138 43.4758 16.7633 43.6979 17.5804 44.0372L17.5949 44.0428C19.794 44.9571 22.1169 45.4203 24.4991 45.4203C26.8935 45.4203 29.2288 44.9526 31.4379 44.0283C32.207 43.7068 33.0185 43.4936 33.8501 43.3976L37.1164 43.0203C38.3052 42.883 39.2016 41.8761 39.2016 40.6795V37.5572C39.2038 32.0439 34.7175 27.5565 29.202 27.5565ZM21.3969 27.2194C22.3726 27.6793 23.4386 27.9204 24.5359 27.9204C25.6332 27.9204 26.6993 27.6793 27.6749 27.2183V28.1928C27.6749 29.923 26.2662 31.3318 24.5348 31.3318C22.8046 31.3318 21.3958 29.9241 21.3958 28.1928V27.2194H21.3969ZM37.8643 40.6806C37.8643 41.1974 37.4781 41.6317 36.9646 41.6908L33.6972 42.0681C32.7406 42.1798 31.8074 42.4242 30.9222 42.7937C28.8782 43.6477 26.7171 44.0819 24.5002 44.0819C22.2955 44.0819 20.1456 43.6532 18.1017 42.8038L18.0872 42.7982C17.1618 42.4142 16.1906 42.1608 15.2005 42.0469L12.105 41.6908C11.5916 41.6317 11.2042 41.1974 11.2042 40.6806V37.5584C11.2042 32.7818 15.09 28.896 19.8665 28.896H20.111C20.4503 31.0315 22.3034 32.6702 24.5337 32.6702C26.764 32.6702 28.6182 31.0326 28.9575 28.896H29.2008C33.9774 28.896 37.8632 32.7818 37.8632 37.5584V40.6806H37.8643Z" stroke="white" mask="url(#path-3-outside-3_218_1351)"/>
<mask id="path-4-outside-4_218_1351" maskUnits="userSpaceOnUse" x="6.89896" y="5.27393" width="5" height="5" fill="black">
<rect fill="white" x="6.89896" y="5.27393" width="5" height="5"/>
<path d="M10.3658 9.41012C10.5377 9.41012 10.7085 9.34425 10.8391 9.21365C11.1003 8.95244 11.1003 8.52825 10.8391 8.26593L10.4149 7.84174L10.8391 7.41755C11.1003 7.15635 11.1003 6.73216 10.8391 6.46983C10.5779 6.20862 10.1537 6.20862 9.89138 6.46983L9.46719 6.89402L9.043 6.46983C8.78179 6.20862 8.35761 6.20862 8.09528 6.46983C7.83296 6.73104 7.83407 7.15523 8.09528 7.41755L8.51947 7.84174L8.09528 8.26593C7.83407 8.52714 7.83407 8.95132 8.09528 9.21365C8.22589 9.34425 8.39779 9.41012 8.56859 9.41012C8.73938 9.41012 8.91128 9.34425 9.04189 9.21365L9.46607 8.78946L9.89026 9.21365C10.0231 9.34425 10.1939 9.41012 10.3658 9.41012Z"/>
</mask>
<path d="M10.3658 9.41012C10.5377 9.41012 10.7085 9.34425 10.8391 9.21365C11.1003 8.95244 11.1003 8.52825 10.8391 8.26593L10.4149 7.84174L10.8391 7.41755C11.1003 7.15635 11.1003 6.73216 10.8391 6.46983C10.5779 6.20862 10.1537 6.20862 9.89138 6.46983L9.46719 6.89402L9.043 6.46983C8.78179 6.20862 8.35761 6.20862 8.09528 6.46983C7.83296 6.73104 7.83407 7.15523 8.09528 7.41755L8.51947 7.84174L8.09528 8.26593C7.83407 8.52714 7.83407 8.95132 8.09528 9.21365C8.22589 9.34425 8.39779 9.41012 8.56859 9.41012C8.73938 9.41012 8.91128 9.34425 9.04189 9.21365L9.46607 8.78946L9.89026 9.21365C10.0231 9.34425 10.1939 9.41012 10.3658 9.41012Z" fill="#FF7B00"/>
<path d="M10.3658 9.41012C10.5377 9.41012 10.7085 9.34425 10.8391 9.21365C11.1003 8.95244 11.1003 8.52825 10.8391 8.26593L10.4149 7.84174L10.8391 7.41755C11.1003 7.15635 11.1003 6.73216 10.8391 6.46983C10.5779 6.20862 10.1537 6.20862 9.89138 6.46983L9.46719 6.89402L9.043 6.46983C8.78179 6.20862 8.35761 6.20862 8.09528 6.46983C7.83296 6.73104 7.83407 7.15523 8.09528 7.41755L8.51947 7.84174L8.09528 8.26593C7.83407 8.52714 7.83407 8.95132 8.09528 9.21365C8.22589 9.34425 8.39779 9.41012 8.56859 9.41012C8.73938 9.41012 8.91128 9.34425 9.04189 9.21365L9.46607 8.78946L9.89026 9.21365C10.0231 9.34425 10.1939 9.41012 10.3658 9.41012Z" stroke="#FF7B00" mask="url(#path-4-outside-4_218_1351)"/>
<mask id="path-5-outside-5_218_1351" maskUnits="userSpaceOnUse" x="35.4516" y="12.1302" width="5" height="5" fill="black">
<rect fill="white" x="35.4516" y="12.1302" width="5" height="5"/>
<path d="M39.3913 13.3262C39.1301 13.0649 38.7059 13.0649 38.4436 13.3262L38.0194 13.7503L37.5952 13.3262C37.334 13.0649 36.9098 13.0649 36.6475 13.3262C36.3863 13.5874 36.3863 14.0116 36.6475 14.2739L37.0717 14.6981L36.6475 15.1223C36.3863 15.3835 36.3863 15.8076 36.6475 16.07C36.7781 16.2006 36.95 16.2664 37.1208 16.2664C37.2916 16.2664 37.4635 16.2006 37.5941 16.07L38.0183 15.6458L38.4425 16.07C38.5731 16.2006 38.745 16.2664 38.9158 16.2664C39.0866 16.2664 39.2585 16.2006 39.3891 16.07C39.6503 15.8088 39.6503 15.3846 39.3891 15.1223L38.9649 14.6981L39.3891 14.2739C39.6536 14.0116 39.6536 13.5874 39.3913 13.3262Z"/>
</mask>
<path d="M39.3913 13.3262C39.1301 13.0649 38.7059 13.0649 38.4436 13.3262L38.0194 13.7503L37.5952 13.3262C37.334 13.0649 36.9098 13.0649 36.6475 13.3262C36.3863 13.5874 36.3863 14.0116 36.6475 14.2739L37.0717 14.6981L36.6475 15.1223C36.3863 15.3835 36.3863 15.8076 36.6475 16.07C36.7781 16.2006 36.95 16.2664 37.1208 16.2664C37.2916 16.2664 37.4635 16.2006 37.5941 16.07L38.0183 15.6458L38.4425 16.07C38.5731 16.2006 38.745 16.2664 38.9158 16.2664C39.0866 16.2664 39.2585 16.2006 39.3891 16.07C39.6503 15.8088 39.6503 15.3846 39.3891 15.1223L38.9649 14.6981L39.3891 14.2739C39.6536 14.0116 39.6536 13.5874 39.3913 13.3262Z" fill="#FF7B00"/>
<path d="M39.3913 13.3262C39.1301 13.0649 38.7059 13.0649 38.4436 13.3262L38.0194 13.7503L37.5952 13.3262C37.334 13.0649 36.9098 13.0649 36.6475 13.3262C36.3863 13.5874 36.3863 14.0116 36.6475 14.2739L37.0717 14.6981L36.6475 15.1223C36.3863 15.3835 36.3863 15.8076 36.6475 16.07C36.7781 16.2006 36.95 16.2664 37.1208 16.2664C37.2916 16.2664 37.4635 16.2006 37.5941 16.07L38.0183 15.6458L38.4425 16.07C38.5731 16.2006 38.745 16.2664 38.9158 16.2664C39.0866 16.2664 39.2585 16.2006 39.3891 16.07C39.6503 15.8088 39.6503 15.3846 39.3891 15.1223L38.9649 14.6981L39.3891 14.2739C39.6536 14.0116 39.6536 13.5874 39.3913 13.3262Z" stroke="#FF7B00" mask="url(#path-5-outside-5_218_1351)"/>
<mask id="path-6-outside-6_218_1351" maskUnits="userSpaceOnUse" x="10.6986" y="13.5338" width="4" height="4" fill="black">
<rect fill="white" x="10.6986" y="13.5338" width="4" height="4"/>
<path d="M12.5916 16.3199H12.6162C13.1096 16.3199 13.5092 15.9202 13.5092 15.4268C13.5092 14.9334 13.1096 14.5338 12.6162 14.5338H12.5916C12.0982 14.5338 11.6986 14.9334 11.6986 15.4268C11.6986 15.9202 12.0993 16.3199 12.5916 16.3199Z"/>
</mask>
<path d="M12.5916 16.3199H12.6162C13.1096 16.3199 13.5092 15.9202 13.5092 15.4268C13.5092 14.9334 13.1096 14.5338 12.6162 14.5338H12.5916C12.0982 14.5338 11.6986 14.9334 11.6986 15.4268C11.6986 15.9202 12.0993 16.3199 12.5916 16.3199Z" fill="#FF7B00"/>
<path d="M12.5916 16.3199H12.6162C13.1096 16.3199 13.5092 15.9202 13.5092 15.4268C13.5092 14.9334 13.1096 14.5338 12.6162 14.5338H12.5916C12.0982 14.5338 11.6986 14.9334 11.6986 15.4268C11.6986 15.9202 12.0993 16.3199 12.5916 16.3199Z" stroke="#FF7B00" mask="url(#path-6-outside-6_218_1351)"/>
<mask id="path-7-outside-7_218_1351" maskUnits="userSpaceOnUse" x="37.5373" y="5.46912" width="4" height="4" fill="black">
<rect fill="white" x="37.5373" y="5.46912" width="4" height="4"/>
<path d="M40.3066 7.18772C40.2943 7.13079 40.2776 7.07497 40.2553 7.02028C40.2329 6.9667 40.205 6.91535 40.1727 6.86623C40.1403 6.81711 40.1035 6.77135 40.0622 6.73116C40.0209 6.68986 39.9751 6.65191 39.926 6.61953C39.878 6.58716 39.8266 6.56037 39.7719 6.53805C39.7183 6.51572 39.6625 6.49786 39.6056 6.4867C39.4895 6.46326 39.3712 6.46326 39.2562 6.4867C39.1993 6.49786 39.1435 6.51572 39.0888 6.53805C39.0352 6.56037 38.9838 6.58716 38.9347 6.61953C38.8856 6.65191 38.8398 6.68986 38.7996 6.73116C38.7583 6.77135 38.7204 6.81711 38.688 6.86623C38.6556 6.91535 38.6289 6.9667 38.6065 7.02028C38.5842 7.07497 38.5663 7.13079 38.5552 7.18772C38.544 7.24576 38.5373 7.30381 38.5373 7.36186C38.5373 7.59739 38.6333 7.82734 38.7996 7.99367C38.8398 8.03497 38.8856 8.07181 38.9347 8.1053C38.9838 8.13655 39.0352 8.16446 39.0888 8.18679C39.1435 8.20911 39.1993 8.22586 39.2562 8.23813C39.3143 8.2493 39.3723 8.25488 39.4303 8.25488C39.4884 8.25488 39.5475 8.2493 39.6056 8.23813C39.6625 8.22586 39.7183 8.20911 39.7719 8.18679C39.8266 8.16446 39.878 8.13655 39.926 8.1053C39.9751 8.07181 40.0209 8.03497 40.0622 7.99367C40.2285 7.82734 40.3234 7.59739 40.3234 7.36186C40.3234 7.30381 40.3178 7.24576 40.3066 7.18772Z"/>
</mask>
<path d="M40.3066 7.18772C40.2943 7.13079 40.2776 7.07497 40.2553 7.02028C40.2329 6.9667 40.205 6.91535 40.1727 6.86623C40.1403 6.81711 40.1035 6.77135 40.0622 6.73116C40.0209 6.68986 39.9751 6.65191 39.926 6.61953C39.878 6.58716 39.8266 6.56037 39.7719 6.53805C39.7183 6.51572 39.6625 6.49786 39.6056 6.4867C39.4895 6.46326 39.3712 6.46326 39.2562 6.4867C39.1993 6.49786 39.1435 6.51572 39.0888 6.53805C39.0352 6.56037 38.9838 6.58716 38.9347 6.61953C38.8856 6.65191 38.8398 6.68986 38.7996 6.73116C38.7583 6.77135 38.7204 6.81711 38.688 6.86623C38.6556 6.91535 38.6289 6.9667 38.6065 7.02028C38.5842 7.07497 38.5663 7.13079 38.5552 7.18772C38.544 7.24576 38.5373 7.30381 38.5373 7.36186C38.5373 7.59739 38.6333 7.82734 38.7996 7.99367C38.8398 8.03497 38.8856 8.07181 38.9347 8.1053C38.9838 8.13655 39.0352 8.16446 39.0888 8.18679C39.1435 8.20911 39.1993 8.22586 39.2562 8.23813C39.3143 8.2493 39.3723 8.25488 39.4303 8.25488C39.4884 8.25488 39.5475 8.2493 39.6056 8.23813C39.6625 8.22586 39.7183 8.20911 39.7719 8.18679C39.8266 8.16446 39.878 8.13655 39.926 8.1053C39.9751 8.07181 40.0209 8.03497 40.0622 7.99367C40.2285 7.82734 40.3234 7.59739 40.3234 7.36186C40.3234 7.30381 40.3178 7.24576 40.3066 7.18772Z" fill="#FF7B00"/>
<path d="M40.3066 7.18772C40.2943 7.13079 40.2776 7.07497 40.2553 7.02028C40.2329 6.9667 40.205 6.91535 40.1727 6.86623C40.1403 6.81711 40.1035 6.77135 40.0622 6.73116C40.0209 6.68986 39.9751 6.65191 39.926 6.61953C39.878 6.58716 39.8266 6.56037 39.7719 6.53805C39.7183 6.51572 39.6625 6.49786 39.6056 6.4867C39.4895 6.46326 39.3712 6.46326 39.2562 6.4867C39.1993 6.49786 39.1435 6.51572 39.0888 6.53805C39.0352 6.56037 38.9838 6.58716 38.9347 6.61953C38.8856 6.65191 38.8398 6.68986 38.7996 6.73116C38.7583 6.77135 38.7204 6.81711 38.688 6.86623C38.6556 6.91535 38.6289 6.9667 38.6065 7.02028C38.5842 7.07497 38.5663 7.13079 38.5552 7.18772C38.544 7.24576 38.5373 7.30381 38.5373 7.36186C38.5373 7.59739 38.6333 7.82734 38.7996 7.99367C38.8398 8.03497 38.8856 8.07181 38.9347 8.1053C38.9838 8.13655 39.0352 8.16446 39.0888 8.18679C39.1435 8.20911 39.1993 8.22586 39.2562 8.23813C39.3143 8.2493 39.3723 8.25488 39.4303 8.25488C39.4884 8.25488 39.5475 8.2493 39.6056 8.23813C39.6625 8.22586 39.7183 8.20911 39.7719 8.18679C39.8266 8.16446 39.878 8.13655 39.926 8.1053C39.9751 8.07181 40.0209 8.03497 40.0622 7.99367C40.2285 7.82734 40.3234 7.59739 40.3234 7.36186C40.3234 7.30381 40.3178 7.24576 40.3066 7.18772Z" stroke="#FF7B00" mask="url(#path-7-outside-7_218_1351)"/>
<mask id="path-8-outside-8_218_1351" maskUnits="userSpaceOnUse" x="14.04" y="3.9021" width="20" height="14" fill="black">
<rect fill="white" x="14.04" y="3.9021" width="20" height="14"/>
<path d="M33.1044 11.3358C32.9704 9.96276 32.6155 8.77504 32.1053 7.99476C31.9903 7.81839 31.8609 7.64648 31.7191 7.48574C30.6352 6.2422 29.1215 5.82025 29.0579 5.80239C29.0523 5.80127 29.0467 5.79904 29.04 5.79792C26.4078 5.15941 23.7556 6.07699 22.4082 6.6809C22.109 6.81597 21.7597 6.78137 21.4951 6.59271L19.7157 5.32351C19.248 4.97634 18.6743 4.83681 18.0994 4.93058C17.5211 5.02434 17.0177 5.34137 16.6828 5.8236C16.4462 6.16518 16.2263 6.5436 16.0276 6.95104C15.9885 7.03253 15.9483 7.11625 15.9104 7.20109C15.5308 8.04164 15.2685 8.93801 15.129 9.86341C15.0553 10.3557 15.0274 10.8558 15.0452 11.3469C15.1468 14.1198 16.6683 16.1235 17.0903 16.6281C17.203 16.8401 17.4263 16.983 17.6808 16.983C17.6897 16.983 17.6997 16.983 17.7087 16.9819C21.7206 16.8156 25.1822 14.6679 27.2071 11.0902C27.389 10.7687 27.2763 10.3602 26.9537 10.1771C26.6311 9.99513 26.2237 10.1079 26.0406 10.4305C24.307 13.4924 21.3902 15.37 17.9989 15.6234C17.5468 15.0474 16.4629 13.45 16.3837 11.2978C16.3691 10.8882 16.3926 10.4718 16.454 10.0599C16.5745 9.25615 16.8023 8.47922 17.1316 7.75029C17.165 7.67662 17.1985 7.60518 17.232 7.53485C17.4006 7.18992 17.5859 6.86955 17.7824 6.5849C17.9074 6.40406 18.096 6.28574 18.3126 6.25113C18.5291 6.21653 18.7435 6.26899 18.9187 6.3996C18.9221 6.40183 18.9254 6.40518 18.9299 6.40741L20.7159 7.68109C21.3656 8.14657 22.224 8.23029 22.9563 7.90211C24.1451 7.36964 26.4703 6.55699 28.7107 7.09616C28.8101 7.12518 29.9308 7.47234 30.7089 8.36648C30.8093 8.48146 30.9009 8.60201 30.9812 8.72592C31.3641 9.31308 31.6588 10.3367 31.7693 11.4664C31.8821 12.6061 31.8039 13.7179 31.5628 14.6534C31.2692 13.4467 30.8272 12.1194 29.5836 10.7386C29.3358 10.464 28.9128 10.4416 28.6382 10.6895C28.3636 10.9373 28.3412 11.3603 28.589 11.6349C29.8225 13.0035 30.105 14.2582 30.4052 15.5854C30.5012 16.0119 30.6006 16.4528 30.7334 16.8915C30.8194 17.1784 31.0828 17.3681 31.3742 17.3681C31.4065 17.3681 31.4389 17.3659 31.4724 17.3614C31.6142 17.3402 31.7414 17.2755 31.8385 17.1828C31.8664 17.1561 31.8932 17.1259 31.9167 17.0935C32.8867 15.7696 33.3299 13.6175 33.1044 11.3358Z"/>
</mask>
<path d="M33.1044 11.3358C32.9704 9.96276 32.6155 8.77504 32.1053 7.99476C31.9903 7.81839 31.8609 7.64648 31.7191 7.48574C30.6352 6.2422 29.1215 5.82025 29.0579 5.80239C29.0523 5.80127 29.0467 5.79904 29.04 5.79792C26.4078 5.15941 23.7556 6.07699 22.4082 6.6809C22.109 6.81597 21.7597 6.78137 21.4951 6.59271L19.7157 5.32351C19.248 4.97634 18.6743 4.83681 18.0994 4.93058C17.5211 5.02434 17.0177 5.34137 16.6828 5.8236C16.4462 6.16518 16.2263 6.5436 16.0276 6.95104C15.9885 7.03253 15.9483 7.11625 15.9104 7.20109C15.5308 8.04164 15.2685 8.93801 15.129 9.86341C15.0553 10.3557 15.0274 10.8558 15.0452 11.3469C15.1468 14.1198 16.6683 16.1235 17.0903 16.6281C17.203 16.8401 17.4263 16.983 17.6808 16.983C17.6897 16.983 17.6997 16.983 17.7087 16.9819C21.7206 16.8156 25.1822 14.6679 27.2071 11.0902C27.389 10.7687 27.2763 10.3602 26.9537 10.1771C26.6311 9.99513 26.2237 10.1079 26.0406 10.4305C24.307 13.4924 21.3902 15.37 17.9989 15.6234C17.5468 15.0474 16.4629 13.45 16.3837 11.2978C16.3691 10.8882 16.3926 10.4718 16.454 10.0599C16.5745 9.25615 16.8023 8.47922 17.1316 7.75029C17.165 7.67662 17.1985 7.60518 17.232 7.53485C17.4006 7.18992 17.5859 6.86955 17.7824 6.5849C17.9074 6.40406 18.096 6.28574 18.3126 6.25113C18.5291 6.21653 18.7435 6.26899 18.9187 6.3996C18.9221 6.40183 18.9254 6.40518 18.9299 6.40741L20.7159 7.68109C21.3656 8.14657 22.224 8.23029 22.9563 7.90211C24.1451 7.36964 26.4703 6.55699 28.7107 7.09616C28.8101 7.12518 29.9308 7.47234 30.7089 8.36648C30.8093 8.48146 30.9009 8.60201 30.9812 8.72592C31.3641 9.31308 31.6588 10.3367 31.7693 11.4664C31.8821 12.6061 31.8039 13.7179 31.5628 14.6534C31.2692 13.4467 30.8272 12.1194 29.5836 10.7386C29.3358 10.464 28.9128 10.4416 28.6382 10.6895C28.3636 10.9373 28.3412 11.3603 28.589 11.6349C29.8225 13.0035 30.105 14.2582 30.4052 15.5854C30.5012 16.0119 30.6006 16.4528 30.7334 16.8915C30.8194 17.1784 31.0828 17.3681 31.3742 17.3681C31.4065 17.3681 31.4389 17.3659 31.4724 17.3614C31.6142 17.3402 31.7414 17.2755 31.8385 17.1828C31.8664 17.1561 31.8932 17.1259 31.9167 17.0935C32.8867 15.7696 33.3299 13.6175 33.1044 11.3358Z" fill="white"/>
<path d="M33.1044 11.3358C32.9704 9.96276 32.6155 8.77504 32.1053 7.99476C31.9903 7.81839 31.8609 7.64648 31.7191 7.48574C30.6352 6.2422 29.1215 5.82025 29.0579 5.80239C29.0523 5.80127 29.0467 5.79904 29.04 5.79792C26.4078 5.15941 23.7556 6.07699 22.4082 6.6809C22.109 6.81597 21.7597 6.78137 21.4951 6.59271L19.7157 5.32351C19.248 4.97634 18.6743 4.83681 18.0994 4.93058C17.5211 5.02434 17.0177 5.34137 16.6828 5.8236C16.4462 6.16518 16.2263 6.5436 16.0276 6.95104C15.9885 7.03253 15.9483 7.11625 15.9104 7.20109C15.5308 8.04164 15.2685 8.93801 15.129 9.86341C15.0553 10.3557 15.0274 10.8558 15.0452 11.3469C15.1468 14.1198 16.6683 16.1235 17.0903 16.6281C17.203 16.8401 17.4263 16.983 17.6808 16.983C17.6897 16.983 17.6997 16.983 17.7087 16.9819C21.7206 16.8156 25.1822 14.6679 27.2071 11.0902C27.389 10.7687 27.2763 10.3602 26.9537 10.1771C26.6311 9.99513 26.2237 10.1079 26.0406 10.4305C24.307 13.4924 21.3902 15.37 17.9989 15.6234C17.5468 15.0474 16.4629 13.45 16.3837 11.2978C16.3691 10.8882 16.3926 10.4718 16.454 10.0599C16.5745 9.25615 16.8023 8.47922 17.1316 7.75029C17.165 7.67662 17.1985 7.60518 17.232 7.53485C17.4006 7.18992 17.5859 6.86955 17.7824 6.5849C17.9074 6.40406 18.096 6.28574 18.3126 6.25113C18.5291 6.21653 18.7435 6.26899 18.9187 6.3996C18.9221 6.40183 18.9254 6.40518 18.9299 6.40741L20.7159 7.68109C21.3656 8.14657 22.224 8.23029 22.9563 7.90211C24.1451 7.36964 26.4703 6.55699 28.7107 7.09616C28.8101 7.12518 29.9308 7.47234 30.7089 8.36648C30.8093 8.48146 30.9009 8.60201 30.9812 8.72592C31.3641 9.31308 31.6588 10.3367 31.7693 11.4664C31.8821 12.6061 31.8039 13.7179 31.5628 14.6534C31.2692 13.4467 30.8272 12.1194 29.5836 10.7386C29.3358 10.464 28.9128 10.4416 28.6382 10.6895C28.3636 10.9373 28.3412 11.3603 28.589 11.6349C29.8225 13.0035 30.105 14.2582 30.4052 15.5854C30.5012 16.0119 30.6006 16.4528 30.7334 16.8915C30.8194 17.1784 31.0828 17.3681 31.3742 17.3681C31.4065 17.3681 31.4389 17.3659 31.4724 17.3614C31.6142 17.3402 31.7414 17.2755 31.8385 17.1828C31.8664 17.1561 31.8932 17.1259 31.9167 17.0935C32.8867 15.7696 33.3299 13.6175 33.1044 11.3358Z" stroke="white" mask="url(#path-8-outside-8_218_1351)"/>
<mask id="path-9-outside-9_218_1351" maskUnits="userSpaceOnUse" x="12.1374" y="2.55444" width="25" height="11" fill="black">
<rect fill="white" x="12.1374" y="2.55444" width="25" height="11"/>
<path d="M35.5658 9.81536C35.2253 9.67248 34.8324 9.8321 34.6895 10.1737C34.617 10.3467 33.8568 10.8211 31.4066 10.7262C30.1686 10.6782 28.7476 10.4974 27.235 10.2027C31.1141 8.93573 35.0066 7.03917 35.8505 5.2721C36.1239 4.69945 36.0413 4.24513 35.923 3.96494C35.7801 3.62448 35.3872 3.46373 35.0456 3.60662C34.704 3.7495 34.5444 4.14243 34.6873 4.48401C34.7029 4.52196 34.6862 4.60122 34.6404 4.69499C34.1046 5.81685 30.7223 7.8228 25.5104 9.33313C25.2012 9.42243 24.892 9.50838 24.585 9.58987C24.278 9.50838 23.9688 9.42243 23.6596 9.33313C18.4477 7.82392 15.0654 5.81685 14.5296 4.69499C14.4849 4.60122 14.467 4.52196 14.4827 4.48401C14.6256 4.14243 14.4659 3.75062 14.1243 3.60773C13.7839 3.46485 13.3909 3.62448 13.2481 3.96606C13.1297 4.24624 13.0471 4.70057 13.3206 5.27322C14.1645 7.04029 18.057 8.93685 21.9361 10.2038C20.4246 10.4996 19.0025 10.6805 17.7645 10.7274C15.3143 10.8222 14.5552 10.3478 14.4816 10.1748C14.3387 9.83434 13.9457 9.67359 13.6053 9.81648C13.2637 9.95936 13.1041 10.3523 13.2469 10.6928C13.6622 11.6818 15.1636 12.0848 17.1852 12.0848C19.2983 12.0848 21.9796 11.6438 24.5839 10.9729C27.1881 11.6438 29.8694 12.0848 31.9826 12.0848C34.0041 12.0848 35.5044 11.6818 35.9208 10.6928C36.067 10.3512 35.9074 9.95824 35.5658 9.81536Z"/>
</mask>
<path d="M35.5658 9.81536C35.2253 9.67248 34.8324 9.8321 34.6895 10.1737C34.617 10.3467 33.8568 10.8211 31.4066 10.7262C30.1686 10.6782 28.7476 10.4974 27.235 10.2027C31.1141 8.93573 35.0066 7.03917 35.8505 5.2721C36.1239 4.69945 36.0413 4.24513 35.923 3.96494C35.7801 3.62448 35.3872 3.46373 35.0456 3.60662C34.704 3.7495 34.5444 4.14243 34.6873 4.48401C34.7029 4.52196 34.6862 4.60122 34.6404 4.69499C34.1046 5.81685 30.7223 7.8228 25.5104 9.33313C25.2012 9.42243 24.892 9.50838 24.585 9.58987C24.278 9.50838 23.9688 9.42243 23.6596 9.33313C18.4477 7.82392 15.0654 5.81685 14.5296 4.69499C14.4849 4.60122 14.467 4.52196 14.4827 4.48401C14.6256 4.14243 14.4659 3.75062 14.1243 3.60773C13.7839 3.46485 13.3909 3.62448 13.2481 3.96606C13.1297 4.24624 13.0471 4.70057 13.3206 5.27322C14.1645 7.04029 18.057 8.93685 21.9361 10.2038C20.4246 10.4996 19.0025 10.6805 17.7645 10.7274C15.3143 10.8222 14.5552 10.3478 14.4816 10.1748C14.3387 9.83434 13.9457 9.67359 13.6053 9.81648C13.2637 9.95936 13.1041 10.3523 13.2469 10.6928C13.6622 11.6818 15.1636 12.0848 17.1852 12.0848C19.2983 12.0848 21.9796 11.6438 24.5839 10.9729C27.1881 11.6438 29.8694 12.0848 31.9826 12.0848C34.0041 12.0848 35.5044 11.6818 35.9208 10.6928C36.067 10.3512 35.9074 9.95824 35.5658 9.81536Z" fill="#FF7B00"/>
<path d="M35.5658 9.81536C35.2253 9.67248 34.8324 9.8321 34.6895 10.1737C34.617 10.3467 33.8568 10.8211 31.4066 10.7262C30.1686 10.6782 28.7476 10.4974 27.235 10.2027C31.1141 8.93573 35.0066 7.03917 35.8505 5.2721C36.1239 4.69945 36.0413 4.24513 35.923 3.96494C35.7801 3.62448 35.3872 3.46373 35.0456 3.60662C34.704 3.7495 34.5444 4.14243 34.6873 4.48401C34.7029 4.52196 34.6862 4.60122 34.6404 4.69499C34.1046 5.81685 30.7223 7.8228 25.5104 9.33313C25.2012 9.42243 24.892 9.50838 24.585 9.58987C24.278 9.50838 23.9688 9.42243 23.6596 9.33313C18.4477 7.82392 15.0654 5.81685 14.5296 4.69499C14.4849 4.60122 14.467 4.52196 14.4827 4.48401C14.6256 4.14243 14.4659 3.75062 14.1243 3.60773C13.7839 3.46485 13.3909 3.62448 13.2481 3.96606C13.1297 4.24624 13.0471 4.70057 13.3206 5.27322C14.1645 7.04029 18.057 8.93685 21.9361 10.2038C20.4246 10.4996 19.0025 10.6805 17.7645 10.7274C15.3143 10.8222 14.5552 10.3478 14.4816 10.1748C14.3387 9.83434 13.9457 9.67359 13.6053 9.81648C13.2637 9.95936 13.1041 10.3523 13.2469 10.6928C13.6622 11.6818 15.1636 12.0848 17.1852 12.0848C19.2983 12.0848 21.9796 11.6438 24.5839 10.9729C27.1881 11.6438 29.8694 12.0848 31.9826 12.0848C34.0041 12.0848 35.5044 11.6818 35.9208 10.6928C36.067 10.3512 35.9074 9.95824 35.5658 9.81536Z" stroke="#FF7B00" mask="url(#path-9-outside-9_218_1351)"/>
</svg>
