<svg width="32" height="30" viewBox="0 0 32 30" fill="none" xmlns="http://www.w3.org/2000/svg">
<path d="M25.5608 1.26904L19.0776 7.60759L21.244 9.7256L25.962 6.98443L27.7272 3.38705L25.5608 1.26904Z" fill="#4BBAED"/>
<path d="M29.8937 5.50502L27.7275 3.38721L21.2444 9.72569L23.4106 11.8435L29.8937 5.50502Z" fill="#19A2E0"/>
<path d="M25.0663 0L23.7949 1.24311L26.8574 4.23724H27.9947L28.1289 2.99419L25.0663 0Z" fill="#B7E4F8"/>
<path d="M31.1889 5.98558L28.1289 2.9939L26.8575 4.23697L29.9174 7.22865L31.1889 5.98558Z" fill="#93D6F4"/>
<path d="M7.6841 21.7361L0.50293 28.7571L1.1405 29.3804L3.69958 27.4271L8.32167 22.3594L7.6841 21.7361Z" fill="#DBDBDB"/>
<path d="M8.95617 22.9791L8.32227 22.3594L1.14108 29.3803L1.77498 30.0001L8.95617 22.9791Z" fill="#BDBDBD"/>
<path d="M8.26815 18.2256L3.13818 23.2732L5.27887 25.3794L7.77017 24.3065L10.4088 20.3319L8.26815 18.2256Z" fill="#8AD2F4"/>
<path d="M5.2793 25.3794L7.41998 27.4856L12.55 22.438L10.4093 20.3318L5.2793 25.3794Z" fill="#4BBAED"/>
<path d="M19.3085 4.48877L14.1143 9.56704L17.3953 13.4879L21.2713 11.7688L22.9541 8.05304L19.3085 4.48877Z" fill="#DBF1FB"/>
<path d="M17.4004 13.4831L21.3912 16.7013L26.5998 11.6175L22.9541 8.05322L17.4004 13.4831Z" fill="#B7E4F8"/>
<path d="M14.1097 9.57202L4.64355 18.8269L8.28916 22.3913L17.8852 15.3861L17.7553 13.1364L14.1097 9.57202Z" fill="#FFDB2D"/>
<path d="M21.401 16.7008L17.7554 13.1365L8.28938 22.3913L11.935 25.9556L21.401 16.7008Z" fill="#FFB700"/>
<path d="M18.2446 2.03125L16.9731 3.27436L22.4076 8.58754H23.679V7.34443L18.2446 2.03125Z" fill="#B7E4F8"/>
<path d="M29.1134 12.657L23.6792 7.34399L22.4078 8.58707L27.842 13.9L29.1134 12.657Z" fill="#93D6F4"/>
<path d="M15.4049 8.31067L16.6836 9.56079L17.955 8.31771L16.6764 7.06759L15.4049 8.31067Z" fill="#93D6F4"/>
<path d="M10.2878 13.3107L11.5664 14.5608L12.8378 13.3177L11.5592 12.0676L10.2878 13.3107Z" fill="#FFB700"/>
<path d="M12.8454 10.8102L14.124 12.0603L15.3955 10.8172L14.1168 9.5671L12.8454 10.8102Z" fill="#FFB700"/>
<path d="M7.7277 15.8114L9.00635 17.0615L10.2778 15.8184L8.99914 14.5683L7.7277 15.8114Z" fill="#FFB700"/>
</svg>
