<svg width="48" height="48" viewBox="0 0 48 48" fill="none" xmlns="http://www.w3.org/2000/svg">
<path d="M26.5472 18.2054C27.9437 18.2054 29.08 17.069 29.08 15.6725C29.08 14.5361 27.5742 12.087 27.112 11.3626C26.9893 11.1694 26.776 11.0533 26.5472 11.0533C26.3184 11.0533 26.1052 11.1706 25.9824 11.3626C25.5202 12.0859 24.0144 14.5361 24.0144 15.6725C24.0144 17.069 25.1507 18.2054 26.5472 18.2054ZM26.5472 13.0146C27.1891 14.1276 27.7405 15.2729 27.7405 15.6725C27.7405 16.33 27.2058 16.8658 26.5472 16.8658C25.8897 16.8658 25.3539 16.3311 25.3539 15.6725C25.3539 15.2729 25.9042 14.1276 26.5472 13.0146Z" fill="#FF7B00"/>
<path d="M13.8362 22.7363C13.8362 21.0876 11.4306 17.2308 10.9484 16.4751C10.8256 16.282 10.6124 16.1659 10.3835 16.1659C10.1547 16.1659 9.94148 16.2831 9.81869 16.4751C9.33646 17.2308 6.93088 21.0876 6.93088 22.7363C6.93088 24.6407 8.48027 26.189 10.3835 26.189C12.2868 26.189 13.8362 24.6407 13.8362 22.7363ZM8.2693 22.7363C8.2693 21.9248 9.40455 19.7547 10.3824 18.1138C11.3603 19.7559 12.4955 21.9248 12.4955 22.7363C12.4955 23.9017 11.5478 24.8494 10.3824 24.8494C9.21702 24.8494 8.2693 23.9017 8.2693 22.7363Z" fill="#FF7B00"/>
<path d="M41.07 37.9757C41.07 36.3348 40.3042 34.8133 39.0049 33.8344V21.1423C39.0049 19.421 37.604 18.02 35.8826 18.02C34.1613 18.02 32.7604 19.421 32.7604 21.1423V27.457C31.4454 26.8956 30.02 26.602 28.58 26.602H28.3344V25.3004C30.1919 23.885 31.3383 21.6825 31.4198 19.3406L31.5716 14.9804C31.585 14.6109 31.2947 14.3006 30.9253 14.2872C30.5558 14.276 30.2454 14.564 30.232 14.9335L30.0802 19.2937C30.0099 21.3343 28.964 23.2464 27.2828 24.4096C26.1956 25.162 24.9208 25.5594 23.5947 25.5594C22.2685 25.5594 20.9926 25.162 19.9054 24.4096C19.6185 24.212 19.3416 23.9854 19.0849 23.7376C17.8681 22.5622 17.166 20.9849 17.108 19.2948L16.9405 14.4937C16.9271 14.1242 16.6134 13.834 16.2473 13.8474C15.8778 13.8608 15.5887 14.17 15.601 14.5406L15.7684 19.3417C15.8387 21.38 16.686 23.2844 18.1539 24.7021C18.3772 24.9175 18.6127 25.1184 18.8549 25.3026V26.6031H18.6082C12.7411 26.6031 7.96786 31.3763 7.96786 37.2435V40.5789C7.96786 41.8347 8.90889 42.8896 10.1558 43.0336L13.4633 43.4154C14.3932 43.5225 15.3052 43.7592 16.1669 44.1175L16.1971 44.1298C18.5424 45.1043 21.0194 45.5988 23.5567 45.5988C26.1074 45.5988 28.5945 45.0998 30.9509 44.1142C31.7759 43.7681 32.6477 43.5404 33.5407 43.4377L35.9295 43.162C36.3024 43.1586 36.6663 43.1151 37.0179 43.0358L37.0335 43.0336C37.3762 42.9923 37.6999 42.884 37.9935 42.711C39.8041 41.9017 41.07 40.0844 41.07 37.9757ZM20.1945 26.1253C21.2482 26.6343 22.4036 26.9 23.5935 26.9C24.7835 26.9 25.9388 26.6343 26.9937 26.1242V27.2371C26.9937 29.1114 25.4689 30.6362 23.5935 30.6362C21.7193 30.6362 20.1945 29.1114 20.1945 27.2371V26.1253ZM30.4352 42.8796C28.244 43.796 25.931 44.2604 23.5578 44.2604C21.1969 44.2604 18.894 43.8005 16.7184 42.8963L16.6882 42.884C15.7048 42.4755 14.6711 42.2064 13.6174 42.0859L10.3098 41.7041C9.73828 41.6383 9.3074 41.1549 9.3074 40.58V37.2446C9.3074 32.1164 13.48 27.9437 18.6082 27.9437H18.9074C19.249 30.2232 21.2203 31.9757 23.5935 31.9757C25.9667 31.9757 27.9381 30.2221 28.2808 27.9437H28.58C30.0345 27.9437 31.4711 28.2864 32.7604 28.9361V33.8355C31.4611 34.8144 30.6953 36.3348 30.6953 37.9769C30.6953 39.7082 31.5481 41.242 32.8553 42.1852C32.0226 42.3225 31.211 42.5547 30.4352 42.8796ZM36.7924 41.7142L35.8503 41.8236C33.7439 41.8057 32.0348 40.0877 32.0348 37.9769C32.0348 36.6664 32.6923 35.4585 33.7941 34.7452C33.7952 34.7441 33.7963 34.743 33.7986 34.7419C33.8097 34.7341 33.8209 34.7263 33.832 34.7173C33.8387 34.7117 33.8466 34.7073 33.8533 34.7017C33.8611 34.695 33.8689 34.6883 33.8767 34.6805C33.8856 34.6727 33.8946 34.6649 33.9035 34.657C33.9068 34.6537 33.9102 34.6492 33.9146 34.6459C33.956 34.6024 33.9917 34.5544 34.0196 34.503C34.0296 34.4851 34.0386 34.4662 34.0464 34.4472C34.0464 34.4472 34.0464 34.4461 34.0475 34.4461C34.062 34.4115 34.0732 34.3757 34.0821 34.3389C34.0832 34.3333 34.0854 34.3277 34.0866 34.3233C34.0888 34.3121 34.0899 34.2998 34.0921 34.2887C34.0933 34.2786 34.0955 34.2675 34.0966 34.2574C34.0977 34.2485 34.0977 34.2396 34.0988 34.2317C34.1 34.2184 34.1011 34.2038 34.1011 34.1904C34.1011 34.1882 34.1011 34.1871 34.1011 34.1849V21.1467C34.1011 20.1633 34.9014 19.364 35.8838 19.364C36.8672 19.364 37.6665 20.1644 37.6665 21.1467V34.1849C37.6665 34.1871 37.6665 34.1882 37.6665 34.1904C37.6665 34.2038 37.6676 34.2184 37.6687 34.2317C37.6698 34.2407 37.6698 34.2496 37.6709 34.2574C37.672 34.2675 37.6743 34.2786 37.6754 34.2887C37.6776 34.2998 37.6787 34.3121 37.681 34.3233C37.6821 34.3289 37.6843 34.3344 37.6854 34.3389C37.6944 34.3757 37.7055 34.4126 37.72 34.4461C37.72 34.4461 37.72 34.4472 37.7212 34.4472C37.729 34.4662 37.7379 34.4851 37.7479 34.503C37.7759 34.5544 37.8116 34.6024 37.8529 34.6459C37.8562 34.6492 37.8596 34.6537 37.864 34.657C37.8719 34.6649 37.8819 34.6727 37.8908 34.6805C37.8986 34.6872 37.9065 34.695 37.9143 34.7017C37.921 34.7073 37.9288 34.7117 37.9355 34.7173C37.9466 34.7251 37.9578 34.7341 37.969 34.7419C37.9701 34.743 37.9712 34.7441 37.9734 34.7452C39.0752 35.4585 39.7327 36.6664 39.7327 37.9769C39.7305 39.7841 38.4758 41.3045 36.7924 41.7142Z" fill="white"/>
<path d="M36.7198 36.4207V24.6272C36.7198 24.1651 36.3448 23.79 35.8826 23.79C35.4205 23.79 35.0454 24.1651 35.0454 24.6272V36.4163C34.542 36.7054 34.2026 37.2468 34.2026 37.8686C34.2026 38.7928 34.9528 39.543 35.8771 39.543H35.8871C36.8114 39.543 37.5559 38.7928 37.5559 37.8686C37.557 37.2501 37.2188 36.711 36.7198 36.4207Z" fill="#FF7B00"/>
<path d="M28.4148 3.36107C28.4092 3.35884 28.4025 3.35772 28.3969 3.35661C25.5962 2.67791 22.7742 3.65577 21.342 4.29763C21.0071 4.44721 20.6164 4.40926 20.3206 4.19828L18.4185 2.842C17.9284 2.47809 17.3268 2.33186 16.7251 2.43009C16.119 2.52833 15.5932 2.86098 15.2438 3.36554C14.7638 4.05986 13.9098 5.54005 13.5928 7.66098C13.0257 11.4362 15.1467 14.2258 15.6803 14.8588C15.7975 15.0798 16.033 15.2294 16.3009 15.216C20.7549 15.0307 24.6775 12.4286 26.7214 8.36089C29.127 10.2842 29.5087 11.9754 29.9106 13.757C30.0133 14.2124 30.1193 14.6824 30.26 15.1512C30.3337 15.3946 30.5379 15.5754 30.788 15.6189C30.8259 15.6256 30.8639 15.629 30.9018 15.629C31.1128 15.629 31.3149 15.5285 31.4421 15.3544C33.4068 12.672 32.9178 7.63865 31.6431 5.68405C30.51 3.94712 28.4996 3.3834 28.4148 3.36107ZM31.1039 12.9711C30.6641 11.1002 29.9787 9.01168 26.8497 6.78247C26.6845 6.66414 26.4747 6.62842 26.2793 6.68312C26.084 6.73782 25.9244 6.87847 25.8451 7.06489C24.1785 10.9808 20.6544 13.5561 16.5923 13.8574C16.0464 13.1609 14.468 10.8457 14.9167 7.85968C15.1199 6.50563 15.6401 5.146 16.3444 4.12796C16.4851 3.92479 16.6972 3.79084 16.9405 3.75177C16.9897 3.74396 17.0388 3.73949 17.0879 3.73949C17.2799 3.73949 17.4663 3.80089 17.6237 3.91921C17.6282 3.92256 17.6315 3.92479 17.636 3.92814L19.5437 5.28889C20.2235 5.77447 21.1232 5.86377 21.8901 5.51996C23.1649 4.94842 25.6598 4.07661 28.0687 4.65484C28.1871 4.68944 29.7018 5.1594 30.5212 6.41521C31.3551 7.69559 31.7513 10.7062 31.1039 12.9711Z" fill="white"/>
</svg>
