<svg width="30" height="30" viewBox="0 0 30 30" fill="none" xmlns="http://www.w3.org/2000/svg">
<path fill-rule="evenodd" clip-rule="evenodd" d="M15 0C23.2832 0 30 6.71513 30 15C30 23.2832 23.2832 30 15 30C6.71513 30 0 23.2832 0 15C0 6.71676 6.71676 0 15 0Z" fill="#55C113"/>
<path d="M10.7797 7.26701C12.437 7.28656 13.6586 7.77011 14.623 8.79587C14.9369 9.12921 15.0712 9.05822 15.352 8.7722C16.7305 7.36578 18.4126 6.88223 20.3064 7.4059C22.1784 7.92341 23.3886 9.17448 23.843 11.0655C24.257 12.7867 23.8461 14.3454 22.6245 15.6325C20.3064 18.0739 17.8333 20.36 15.414 22.6996C15.1321 22.9722 14.908 22.9681 14.622 22.7016C12.3451 20.5843 10.0487 18.4886 7.84514 16.2961C6.04534 14.5059 5.53112 12.3238 6.43979 10.2918C7.31749 8.33289 8.89528 7.37195 10.7797 7.26701Z" fill="#A3DF99"/>
</svg>
