<svg width="20" height="20" viewBox="0 0 20 20" fill="none" xmlns="http://www.w3.org/2000/svg">
<path d="M5.31111 0.0851022C7.15264 0.11 8.50999 0.725891 9.58164 2.03237C9.93044 2.45694 10.0796 2.36652 10.3917 2.00223C11.9234 0.210901 13.7925 -0.40499 15.8968 0.262007C17.977 0.921141 19.3217 2.5146 19.8266 4.92312C20.2867 7.11543 19.83 9.1007 18.4727 10.74C15.8968 13.8496 13.1488 16.7613 10.4605 19.7412C10.1473 20.0885 9.89832 20.0832 9.58049 19.7438C7.05053 17.047 4.49876 14.3777 2.05026 11.5852C0.0503852 9.30512 -0.521008 6.52575 0.488683 3.9377C1.46395 1.44268 3.21714 0.218764 5.31111 0.0851022Z" fill="#FF7B00"/>
</svg>
