<svg width="48" height="48" viewBox="0 0 48 48" fill="none" xmlns="http://www.w3.org/2000/svg">
<path d="M43.5 14.9951C43.055 14.9951 42.62 15.127 42.25 15.3742C41.88 15.6213 41.5916 15.9726 41.4213 16.3836C41.251 16.7946 41.2064 17.2469 41.2932 17.6832C41.3801 18.1195 41.5943 18.5203 41.909 18.8349C42.2237 19.1494 42.6246 19.3637 43.061 19.4504C43.4975 19.5372 43.9499 19.4927 44.361 19.3224C44.7722 19.1522 45.1236 18.8639 45.3708 18.494C45.618 18.1241 45.75 17.6893 45.75 17.2444C45.75 16.6478 45.5129 16.0757 45.091 15.6539C44.669 15.2321 44.0967 14.9951 43.5 14.9951ZM43.5 17.9941C43.3517 17.9941 43.2067 17.9502 43.0833 17.8678C42.96 17.7854 42.8639 17.6683 42.8071 17.5313C42.7503 17.3943 42.7355 17.2436 42.7644 17.0981C42.7934 16.9527 42.8648 16.8191 42.9697 16.7142C43.0746 16.6094 43.2082 16.538 43.3537 16.509C43.4992 16.4801 43.65 16.495 43.787 16.5517C43.9241 16.6085 44.0412 16.7045 44.1236 16.8278C44.206 16.9511 44.25 17.0961 44.25 17.2444C44.25 17.4432 44.171 17.6339 44.0303 17.7745C43.8897 17.9152 43.6989 17.9941 43.5 17.9941Z" fill="#FF7B00"/>
<path d="M47.25 13.4961C47.6642 13.4961 48 13.1603 48 12.7461C48 12.3319 47.6642 11.9961 47.25 11.9961C46.8358 11.9961 46.5 12.3319 46.5 12.7461C46.5 13.1603 46.8358 13.4961 47.25 13.4961Z" fill="#FF7B00"/>
<path d="M4.5 14.9951C4.05499 14.9951 3.61998 15.127 3.24997 15.3742C2.87996 15.6213 2.59157 15.9726 2.42127 16.3836C2.25097 16.7946 2.20642 17.2469 2.29323 17.6832C2.38005 18.1195 2.59434 18.5203 2.90901 18.8349C3.22368 19.1494 3.62459 19.3637 4.06105 19.4504C4.49751 19.5372 4.94991 19.4927 5.36104 19.3224C5.77217 19.1522 6.12357 18.8639 6.37081 18.494C6.61804 18.1241 6.75 17.6893 6.75 17.2444C6.75 16.6478 6.51295 16.0757 6.09099 15.6539C5.66903 15.2321 5.09674 14.9951 4.5 14.9951ZM4.5 17.9941C4.35167 17.9941 4.20666 17.9502 4.08332 17.8678C3.95999 17.7854 3.86386 17.6683 3.80709 17.5313C3.75033 17.3943 3.73547 17.2436 3.76441 17.0981C3.79335 16.9527 3.86478 16.8191 3.96967 16.7142C4.07456 16.6094 4.2082 16.538 4.35368 16.509C4.49917 16.4801 4.64997 16.495 4.78701 16.5517C4.92406 16.6085 5.04119 16.7045 5.1236 16.8278C5.20601 16.9511 5.25 17.0961 5.25 17.2444C5.25 17.4432 5.17098 17.6339 5.03033 17.7745C4.88968 17.9152 4.69891 17.9941 4.5 17.9941Z" fill="#FF7B00"/>
<path d="M0.75 13.4961C1.16421 13.4961 1.5 13.1603 1.5 12.7461C1.5 12.3319 1.16421 11.9961 0.75 11.9961C0.335786 11.9961 0 12.3319 0 12.7461C0 13.1603 0.335786 13.4961 0.75 13.4961Z" fill="#FF7B00"/>
<path d="M38.625 47.2348V43.486C38.625 43.2871 38.546 43.0964 38.4053 42.9558C38.2647 42.8152 38.0739 42.7362 37.875 42.7362C37.6761 42.7362 37.4853 42.8152 37.3447 42.9558C37.204 43.0964 37.125 43.2871 37.125 43.486V47.2348C37.125 47.4336 37.204 47.6243 37.3447 47.7649C37.4853 47.9055 37.6761 47.9845 37.875 47.9845C38.0739 47.9845 38.2647 47.9055 38.4053 47.7649C38.546 47.6243 38.625 47.4336 38.625 47.2348Z" fill="#5AC7E6"/>
<path d="M45.75 32.6444C45.75 25.6154 42.345 21.7429 36.1575 21.7429H35.1975C34.8321 22.2685 34.4325 22.7694 34.0013 23.2424H36.1613C41.5275 23.2424 44.25 26.4064 44.25 32.6444V47.2347C44.25 47.4335 44.329 47.6242 44.4697 47.7648C44.6103 47.9054 44.8011 47.9844 45 47.9844C45.1989 47.9844 45.3897 47.9054 45.5303 47.7648C45.671 47.6242 45.75 47.4335 45.75 47.2347V32.6444Z" fill="#5AC7E6"/>
<path d="M2.25 32.6444V47.2347C2.25 47.4335 2.32902 47.6242 2.46967 47.7648C2.61032 47.9054 2.80109 47.9844 3 47.9844C3.19891 47.9844 3.38968 47.9054 3.53033 47.7648C3.67098 47.6242 3.75 47.4335 3.75 47.2347V32.6444C3.75 26.4064 6.4725 23.2424 11.8425 23.2424H14.0025C13.5713 22.7694 13.1716 22.2685 12.8063 21.7429H11.8425C5.655 21.7429 2.25 25.6154 2.25 32.6444Z" fill="#5AC7E6"/>
<path d="M24 0C17.175 0 11.625 5.8856 11.625 13.1208C11.625 20.3559 17.175 26.2415 24 26.2415C30.825 26.2415 36.375 20.3559 36.375 13.1208C36.375 5.8856 30.825 0 24 0ZM24 24.742C18 24.742 13.125 19.5274 13.125 13.1208C13.125 6.71408 18 1.49951 24 1.49951C30 1.49951 34.875 6.71408 34.875 13.1208C34.875 19.5274 30 24.742 24 24.742Z" fill="#5AC7E6"/>
<path d="M17.4675 9.45445C18.7145 9.04268 19.9022 8.46923 21 7.74875C21.0865 7.69638 21.1614 7.62707 21.2204 7.54501C21.2794 7.46294 21.3212 7.3698 21.3432 7.27118C21.3653 7.17256 21.3672 7.07051 21.3488 6.97114C21.3304 6.87178 21.2921 6.77715 21.2362 6.69295C21.1803 6.60876 21.108 6.53672 21.0235 6.48119C20.9391 6.42565 20.8443 6.38774 20.7448 6.36976C20.6453 6.35177 20.5432 6.35408 20.4447 6.37653C20.3461 6.39898 20.2531 6.44111 20.1713 6.5004C19.1939 7.13892 18.1392 7.65038 17.0325 8.02241C16.9382 8.05121 16.8505 8.0983 16.7744 8.16098C16.6983 8.22367 16.6353 8.30072 16.589 8.38775C16.5427 8.47478 16.514 8.57007 16.5045 8.66819C16.495 8.76631 16.505 8.86533 16.5338 8.95961C16.5626 9.05388 16.6097 9.14156 16.6724 9.21764C16.7351 9.29372 16.8122 9.3567 16.8992 9.403C16.9863 9.4493 17.0816 9.478 17.1798 9.48747C17.2779 9.49694 17.377 9.487 17.4713 9.4582L17.4675 9.45445Z" fill="#5AC7E6"/>
<path d="M21.5962 11.914C21.0525 11.2053 19.4587 10.1778 17.31 11.344C17.2233 11.391 17.1468 11.4547 17.0847 11.5313C17.0226 11.6079 16.9762 11.696 16.9482 11.7906C16.9202 11.8851 16.911 11.9842 16.9213 12.0823C16.9316 12.1804 16.9611 12.2755 17.0081 12.3621C17.0551 12.4488 17.1188 12.5254 17.1954 12.5874C17.272 12.6495 17.3601 12.6959 17.4547 12.7239C17.5492 12.752 17.6483 12.7611 17.7464 12.7508C17.8445 12.7405 17.9396 12.711 18.0262 12.664C19.5262 11.8465 20.3212 12.7278 20.4112 12.8365C20.5351 12.9876 20.713 13.0844 20.9072 13.1063C21.1013 13.1281 21.2963 13.0734 21.4507 12.9537C21.6051 12.834 21.7067 12.6588 21.7339 12.4653C21.7611 12.2718 21.7117 12.0754 21.5962 11.9178V11.914Z" fill="#5AC7E6"/>
<path d="M30.9675 8.01872C29.8604 7.64786 28.8055 7.13634 27.8288 6.49671C27.7465 6.44231 27.6544 6.40464 27.5576 6.38584C27.4608 6.36705 27.3612 6.36749 27.2646 6.38716C27.1679 6.40683 27.0761 6.44533 26.9944 6.50047C26.9126 6.55561 26.8426 6.6263 26.7881 6.70852C26.6782 6.87455 26.6388 7.07744 26.6786 7.27253C26.7183 7.46762 26.8339 7.63894 27 7.7488C28.0967 8.46899 29.283 9.04244 30.5288 9.4545C30.6231 9.4833 30.7221 9.49325 30.8203 9.48378C30.9184 9.47431 31.0138 9.44561 31.1008 9.39931C31.1879 9.35301 31.2649 9.29002 31.3276 9.21395C31.3904 9.13787 31.4375 9.05019 31.4663 8.95591C31.4951 8.86164 31.505 8.76262 31.4955 8.6645C31.4861 8.56638 31.4574 8.47108 31.411 8.38405C31.3647 8.29703 31.3017 8.21997 31.2256 8.15729C31.1495 8.0946 31.0618 8.04752 30.9675 8.01872V8.01872Z" fill="#5AC7E6"/>
<path d="M30.69 11.3439C28.5413 10.1777 26.94 11.2089 26.4038 11.9139C26.2824 12.0716 26.2287 12.271 26.2544 12.4682C26.28 12.6655 26.383 12.8445 26.5406 12.9658C26.6983 13.0871 26.8977 13.1409 27.0949 13.1152C27.2922 13.0896 27.4712 12.9866 27.5925 12.8289C27.6263 12.7877 28.3988 11.8089 29.9738 12.6639C30.0604 12.711 30.1555 12.7405 30.2536 12.7507C30.3517 12.761 30.4508 12.7519 30.5453 12.7239C30.6399 12.6958 30.728 12.6494 30.8046 12.5874C30.8812 12.5253 30.9449 12.4487 30.9919 12.3621C31.0389 12.2754 31.0684 12.1803 31.0787 12.0822C31.089 11.9842 31.0798 11.885 31.0518 11.7905C31.0238 11.6959 30.9774 11.6078 30.9153 11.5312C30.8532 11.4546 30.7767 11.391 30.69 11.3439V11.3439Z" fill="#5AC7E6"/>
<path d="M24 16.8695C23.4808 16.8695 22.9733 17.0234 22.5416 17.3118C22.11 17.6001 21.7735 18.0099 21.5748 18.4894C21.3761 18.9689 21.3242 19.4966 21.4254 20.0056C21.5267 20.5146 21.7767 20.9822 22.1438 21.3492C22.511 21.7162 22.9787 21.9661 23.4879 22.0674C23.9971 22.1686 24.5249 22.1167 25.0045 21.9181C25.4842 21.7194 25.8942 21.3831 26.1826 20.9516C26.4711 20.52 26.625 20.0127 26.625 19.4937C26.625 18.7977 26.3484 18.1302 25.8562 17.6381C25.3639 17.146 24.6962 16.8695 24 16.8695ZM24 20.6183C23.7775 20.6183 23.56 20.5523 23.375 20.4288C23.19 20.3052 23.0458 20.1295 22.9606 19.924C22.8755 19.7185 22.8532 19.4924 22.8966 19.2743C22.94 19.0561 23.0472 18.8557 23.2045 18.6984C23.3618 18.5411 23.5623 18.434 23.7805 18.3906C23.9988 18.3472 24.225 18.3695 24.4305 18.4546C24.6361 18.5398 24.8118 18.6839 24.9354 18.8688C25.059 19.0538 25.125 19.2712 25.125 19.4937C25.125 19.7919 25.0065 20.078 24.7955 20.2889C24.5845 20.4998 24.2984 20.6183 24 20.6183V20.6183Z" fill="#5AC7E6"/>
<path d="M14.4712 28.3446L15.8175 27.9285L16.2487 29.3942C16.2766 29.4897 16.3232 29.5786 16.3858 29.6559C16.4484 29.7331 16.5258 29.7972 16.6134 29.8443C16.701 29.8914 16.797 29.9206 16.896 29.9302C16.995 29.9398 17.0949 29.9297 17.19 29.9003L17.9625 29.6604C18.489 29.1145 19.0597 28.6129 19.6687 28.1609C19.5808 28.0226 19.4499 27.917 19.2962 27.8601C19.1424 27.8032 18.9743 27.7983 18.8175 27.846L17.475 28.2621L17.0437 26.7963C17.0158 26.7009 16.9692 26.6119 16.9066 26.5347C16.844 26.4574 16.7667 26.3934 16.6791 26.3463C16.5915 26.2992 16.4954 26.27 16.3964 26.2604C16.2974 26.2507 16.1975 26.2609 16.1025 26.2902L14.0287 26.9275C13.8444 26.9907 13.6919 27.1232 13.6035 27.2969C13.5152 27.4706 13.4979 27.6718 13.5555 27.858C13.613 28.0442 13.7408 28.2006 13.9117 28.2943C14.0826 28.3879 14.2833 28.4113 14.4712 28.3596V28.3446Z" fill="#FF7B00"/>
<path d="M33.5288 36.1309L32.1825 36.547L31.7513 35.0812C31.7234 34.9858 31.6768 34.8969 31.6142 34.8196C31.5516 34.7423 31.4742 34.6783 31.3866 34.6312C31.2991 34.5841 31.203 34.5549 31.104 34.5453C31.005 34.5356 30.9051 34.5458 30.81 34.5751L29.4675 34.9913L29.04 33.5292C29.0121 33.4338 28.9655 33.3449 28.9029 33.2676C28.8403 33.1903 28.763 33.1263 28.6754 33.0792C28.5878 33.0321 28.4917 33.0029 28.3927 32.9933C28.2937 32.9836 28.1938 32.9938 28.0988 33.0231L27.7463 33.1319C27.7178 33.687 27.6362 34.238 27.5025 34.7776L27.8175 34.6801L28.245 36.1421C28.2729 36.2376 28.3195 36.3265 28.3821 36.4038C28.4447 36.481 28.5221 36.5451 28.6097 36.5922C28.6973 36.6393 28.7934 36.6685 28.8923 36.6781C28.9913 36.6877 29.0913 36.6776 29.1863 36.6482L30.5288 36.2321L30.96 37.6979C30.9879 37.7933 31.0345 37.8823 31.0971 37.9595C31.1597 38.0368 31.2371 38.1008 31.3247 38.1479C31.4123 38.195 31.5084 38.2242 31.6073 38.2338C31.7063 38.2435 31.8063 38.2333 31.9013 38.204L33.975 37.5667C34.1594 37.5035 34.3119 37.371 34.4002 37.1973C34.4886 37.0236 34.5058 36.8224 34.4483 36.6362C34.3908 36.45 34.263 36.2936 34.0921 36.1999C33.9211 36.1063 33.7204 36.0829 33.5325 36.1346L33.5288 36.1309Z" fill="#FF7B00"/>
<path d="M33.9712 26.9126L31.8975 26.2753C31.8025 26.246 31.7025 26.2358 31.6035 26.2455C31.5046 26.2551 31.4085 26.2843 31.3209 26.3314C31.2333 26.3785 31.1559 26.4425 31.0933 26.5198C31.0307 26.5971 30.9841 26.686 30.9562 26.7814L30.525 28.2472L29.1825 27.8311C29.0875 27.8017 28.9875 27.7916 28.8885 27.8012C28.7896 27.8108 28.6935 27.84 28.6059 27.8871C28.5183 27.9342 28.4409 27.9983 28.3783 28.0755C28.3157 28.1528 28.2691 28.2417 28.2412 28.3372L27.8137 29.7992L27.3412 29.653L27.3112 30.2341C27.4406 30.5826 27.5409 30.9412 27.6112 31.3062L28.095 31.4562C28.1902 31.4856 28.2902 31.4958 28.3894 31.4861C28.4885 31.4765 28.5848 31.4472 28.6725 31.3999C28.762 31.3539 28.8413 31.2904 28.9057 31.2131C28.9702 31.1358 29.0184 31.0464 29.0475 30.9501L29.475 29.4881L30.8175 29.9042C30.9125 29.9335 31.0124 29.9437 31.1114 29.934C31.2104 29.9244 31.3065 29.8952 31.3941 29.8481C31.4817 29.801 31.559 29.737 31.6216 29.6597C31.6842 29.5825 31.7308 29.4935 31.7587 29.3981L32.19 27.9323L33.5362 28.3484C33.7241 28.4002 33.9248 28.3767 34.0958 28.2831C34.2667 28.1895 34.3945 28.033 34.452 27.8469C34.5095 27.6607 34.4923 27.4595 34.4039 27.2858C34.3156 27.1121 34.1631 26.9796 33.9787 26.9164L33.9712 26.9126Z" fill="#FF7B00"/>
<path d="M24.7012 37.2216C24.8297 37.1558 24.9365 37.0542 25.0087 36.9292C26.9287 33.6003 26.1337 31.2235 25.8 30.4963L25.8937 28.5732C25.9026 28.3896 25.8438 28.2091 25.7283 28.066C25.6129 27.923 25.4489 27.8273 25.2675 27.7972C22.095 27.2648 19.0087 30.7362 18.8925 30.8824C18.8312 30.9505 18.7829 31.0293 18.75 31.1148L17.205 34.9836C16.955 34.8589 16.6676 34.8317 16.3986 34.9073C16.1297 34.9828 15.8985 35.1557 15.75 35.3922L8.00247 46.8148C7.90053 46.9793 7.86622 47.177 7.90673 47.3663C7.94724 47.5556 8.05942 47.7219 8.21979 47.8304C8.38017 47.9389 8.57631 47.9812 8.76716 47.9484C8.95801 47.9156 9.12878 47.8103 9.24372 47.6545L15.1425 38.9573L19.02 42.185C19.0517 42.2115 19.0856 42.2353 19.1212 42.2562L16.6912 46.886C16.6427 46.9733 16.6121 47.0695 16.6012 47.1689C16.5904 47.2682 16.5995 47.3687 16.6281 47.4645C16.6567 47.5603 16.7041 47.6494 16.7676 47.7265C16.8311 47.8037 16.9094 47.8674 16.9979 47.9139C17.0864 47.9604 17.1833 47.9887 17.283 47.9972C17.3826 48.0057 17.4829 47.9942 17.578 47.9634C17.6731 47.9326 17.7611 47.8831 17.8368 47.8178C17.9124 47.7525 17.9743 47.6728 18.0187 47.5833L22.0012 39.992C22.0995 39.7979 22.1395 39.5796 22.1162 39.3633C22.0929 39.1471 22.0074 38.9423 21.87 38.7736L22.0125 38.5974L24.7012 37.2216ZM19.8262 40.9067L15.9862 37.7089L16.7812 36.5356C17.5912 37.1879 19.2412 38.5224 20.5312 39.5758L19.8262 40.9067ZM21.1837 37.3341C21.0893 37.3823 21.0063 37.4501 20.94 37.5328L20.7262 37.8027L18.435 35.9283L20.0887 31.7634C20.8125 30.9949 22.6462 29.3904 24.375 29.2404L24.3075 30.6088C24.3 30.7589 24.3379 30.9078 24.4162 31.0361C24.4162 31.0361 25.5 32.9218 23.8162 35.9883L21.1837 37.3341Z" fill="#5AC7E6"/>
</svg>
