<svg width="30" height="30" viewBox="0 0 30 30" fill="none" xmlns="http://www.w3.org/2000/svg">
<path d="M28.6363 19.5H1.36365C0.613651 19.5 0 18.825 0 18V1.50001C0 0.675015 0.613651 0 1.36365 0H28.6364C29.3864 0 30 0.675015 30 1.50001V18C29.9999 18.825 29.3863 19.5 28.6363 19.5Z" fill="#0E9347"/>
<path d="M25.2271 13.5C23.6589 13.5 22.2271 14.325 21.4089 15.675C20.7271 15.3 19.9771 15 19.0908 15C16.7044 15 14.7271 16.95 14.3862 19.5H28.6362C29.318 19.5 29.8634 18.975 29.9999 18.225C29.7271 15.6 27.6817 13.5 25.2271 13.5Z" fill="#0D8944"/>
<path d="M25.9092 17.9999H4.09101C4.09101 16.3499 2.86377 14.9999 1.36377 14.9999V4.49996C2.86377 4.49996 4.09101 3.14999 4.09101 1.5H25.9092C25.9092 3.14999 27.1364 4.49996 28.6364 4.49996V14.9999C27.1364 14.9999 25.9092 16.3499 25.9092 17.9999Z" fill="#3BB54A"/>
<path d="M25.2272 13.5C23.659 13.5 22.2272 14.325 21.409 15.675C20.7272 15.3 19.9772 15 19.0909 15C17.1818 15 15.5454 16.2 14.7954 18H25.909C25.909 16.35 27.0681 15.075 28.5681 15C27.6817 14.1 26.5227 13.5 25.2272 13.5Z" fill="#0E9347"/>
<path d="M15 16.4999C18.0124 16.4999 20.4545 13.4779 20.4545 9.74996C20.4545 6.02206 18.0124 3 15 3C11.9875 3 9.54541 6.02206 9.54541 9.74996C9.54541 13.4779 11.9875 16.4999 15 16.4999Z" fill="#0E9347"/>
<path d="M6.81824 11.25C7.57136 11.25 8.18189 10.5784 8.18189 9.75001C8.18189 8.92158 7.57136 8.25 6.81824 8.25C6.06512 8.25 5.45459 8.92158 5.45459 9.75001C5.45459 10.5784 6.06512 11.25 6.81824 11.25Z" fill="#0E9347"/>
<path d="M23.182 11.25C23.9351 11.25 24.5457 10.5784 24.5457 9.75001C24.5457 8.92158 23.9351 8.25 23.182 8.25C22.4289 8.25 21.8184 8.92158 21.8184 9.75001C21.8184 10.5784 22.4289 11.25 23.182 11.25Z" fill="#0E9347"/>
<path d="M15.682 9.00011H14.3183C13.9092 9.00011 13.6365 8.70009 13.6365 8.25014C13.6365 7.80013 13.9093 7.50017 14.3183 7.50017H16.3638C16.7729 7.50017 17.0456 7.20014 17.0456 6.75019C17.0456 6.30018 16.7728 6.00022 16.3638 6.00022H15.682C15.682 5.55021 15.4092 5.25024 15.0002 5.25024C14.5911 5.25024 14.3184 5.55027 14.3184 6.00022C13.1593 6.00022 12.2729 6.9752 12.2729 8.25021C12.2729 9.52521 13.1593 10.5002 14.3184 10.5002H15.682C16.0911 10.5002 16.3638 10.8002 16.3638 11.2502C16.3638 11.7002 16.0911 12.0001 15.682 12.0001H13.6366C13.2275 12.0001 12.9548 12.3002 12.9548 12.7501C12.9548 13.2001 13.2276 13.5001 13.6366 13.5001H14.3184C14.3184 13.9501 14.5911 14.2501 15.0002 14.2501C15.4093 14.2501 15.682 13.95 15.682 13.5001C16.8411 13.5001 17.7274 12.5251 17.7274 11.2501C17.7274 9.97509 16.8411 9.00011 15.682 9.00011Z" fill="#89C763"/>
<path d="M17.7273 25.5C20.3633 25.5 22.5001 23.1495 22.5001 20.25C22.5001 17.3505 20.3633 15 17.7273 15C15.0914 15 12.9546 17.3505 12.9546 20.25C12.9546 23.1495 15.0914 25.5 17.7273 25.5Z" fill="#FFCA5D"/>
<path d="M23.8636 24C26.4995 24 28.6363 21.6495 28.6363 18.75C28.6363 15.8505 26.4995 13.5 23.8636 13.5C21.2277 13.5 19.0908 15.8505 19.0908 18.75C19.0908 21.6495 21.2277 24 23.8636 24Z" fill="#F6B545"/>
<path d="M23.8636 13.5C21.2045 13.5 19.0908 15.825 19.0908 18.75C19.0908 21.675 21.2045 24 23.8636 24C26.5227 24 28.6363 21.675 28.6363 18.75C28.6363 15.825 26.5227 13.5 23.8636 13.5ZM23.8636 22.5C21.9545 22.5 20.4545 20.85 20.4545 18.75C20.4545 16.65 21.9545 15 23.8636 15C25.7727 15 27.2727 16.65 27.2727 18.75C27.2727 20.85 25.7727 22.5 23.8636 22.5Z" fill="#FFCB5B"/>
<path d="M23.8638 23.925C26.5229 24 28.6365 21.6 28.6365 18.75H28.5683C28.2274 18.75 27.9547 19.05 27.8865 19.425C27.7502 20.475 27.2729 21.45 26.5911 22.125C26.0456 22.725 25.2956 23.1 24.4774 23.25C24.1365 23.25 23.8638 23.55 23.8638 23.925Z" fill="#F6B545"/>
<path d="M23.8636 13.575C21.2045 13.4999 19.0908 15.9 19.0908 18.7499H19.159C19.4999 18.7499 19.7727 18.4499 19.8408 18.0749C19.9772 17.0249 20.4545 16.0499 21.1363 15.3749C21.6817 14.7749 22.4317 14.4 23.2499 14.2499C23.5908 14.25 23.8636 13.9499 23.8636 13.575Z" fill="#FFE27A"/>
<path d="M20.9318 19.275C20.9318 17.175 22.4318 15.525 24.3409 15.525C25.1591 15.525 25.9091 15.825 26.5227 16.425C25.8409 15.525 24.9546 15 23.8637 15C21.9546 15 20.4546 16.65 20.4546 18.75C20.4546 19.95 20.9318 20.925 21.6818 21.6C21.2046 21 20.9318 20.175 20.9318 19.275Z" fill="#F19920"/>
<path d="M25.9089 21.075C25.8407 21.075 25.7725 21.075 25.7043 21C25.568 20.85 25.568 20.625 25.7043 20.475C26.1134 20.025 26.318 19.35 26.318 18.75C26.318 18.525 26.4543 18.375 26.6589 18.375C26.8634 18.375 26.9998 18.525 26.9998 18.75C26.9998 19.575 26.727 20.4 26.2498 21C26.1134 21.075 25.977 21.075 25.9089 21.075Z" fill="#FFCB5B"/>
<path d="M23.8639 20.9999C23.4548 20.9999 23.1821 20.6999 23.1821 20.2499V17.25C23.1821 16.8 23.4549 16.5 23.8639 16.5C24.273 16.5 24.5457 16.8 24.5457 17.25V20.2499C24.5457 20.6999 24.273 20.9999 23.8639 20.9999Z" fill="#F19920"/>
<path d="M26.3865 23.175C25.9092 21.3 24.6819 19.7999 23.1137 19.125C22.841 17.4 21.8183 15.9 20.5228 15C19.7046 15.975 19.1592 17.25 19.1592 18.675C19.1592 21.6 21.2728 23.925 23.9319 23.925C24.8183 23.9999 25.6365 23.7 26.3865 23.175Z" fill="#F19920"/>
<path d="M21.6819 21.6C21.2046 20.925 20.8637 20.1 20.8637 19.2001C20.8637 18.1501 21.2728 17.1751 21.9546 16.5001C21.8182 16.2751 21.6818 16.1251 21.5455 15.9751C20.8637 16.6501 20.4546 17.6251 20.4546 18.7501C20.4546 19.95 20.9319 20.925 21.6819 21.6Z" fill="#E78825"/>
<path d="M23.1816 19.2V20.25C23.1816 20.7 23.4544 20.9999 23.8634 20.9999C24.2725 20.9999 24.5452 20.6999 24.5452 20.25V20.1C24.1362 19.7249 23.6589 19.425 23.1816 19.2Z" fill="#E78825"/>
<path d="M26.3863 23.175C26.2499 22.65 26.1135 22.2 25.8408 21.75C25.2954 22.2 24.6136 22.5 23.8636 22.5C21.9545 22.5 20.4545 20.85 20.4545 18.75C20.4545 17.625 20.8636 16.65 21.5454 15.975C21.2045 15.6 20.8636 15.3 20.4545 15.075C19.6363 16.0499 19.0908 17.3249 19.0908 18.7499C19.0908 21.6749 21.2045 23.9999 23.8636 23.9999C24.8181 24 25.6363 23.7 26.3863 23.175Z" fill="#F6B545"/>
<path d="M26.182 22.5C25.7047 22.875 25.0911 23.1 24.4774 23.25C24.1365 23.325 23.8638 23.625 23.8638 23.9999C24.8183 23.9999 25.6365 23.6999 26.3865 23.1749C26.3184 22.9499 26.2502 22.725 26.182 22.5Z" fill="#F19920"/>
<path d="M20.4545 15.075C19.6363 16.0499 19.0908 17.3249 19.0908 18.7499H19.159C19.4999 18.7499 19.7727 18.4499 19.8408 18.0749C19.9772 17.0249 20.4545 16.1249 21.0681 15.4499C20.8636 15.3749 20.659 15.2249 20.4545 15.075Z" fill="#FFCB5B"/>
<path d="M17.7273 25.5C20.3633 25.5 22.5001 23.1495 22.5001 20.25C22.5001 17.3505 20.3633 15 17.7273 15C15.0914 15 12.9546 17.3505 12.9546 20.25C12.9546 23.1495 15.0914 25.5 17.7273 25.5Z" fill="#F6B545"/>
<path d="M17.0454 24C17.0454 24.525 17.1136 24.975 17.25 25.5C17.3863 25.5 17.5909 25.5 17.7272 25.5C20.3863 25.5 22.5 23.175 22.5 20.25C22.5 19.725 22.4317 19.275 22.2954 18.75C22.1591 18.75 21.9545 18.75 21.8182 18.75C19.1591 18.7501 17.0454 21.0751 17.0454 24Z" fill="#F19920"/>
<path d="M17.7273 15C15.0682 15 12.9546 17.325 12.9546 20.25C12.9546 23.175 15.0682 25.5 17.7273 25.5C20.3864 25.5 22.5001 23.1749 22.5001 20.25C22.5001 17.3251 20.3864 15 17.7273 15ZM17.7273 23.9999C15.8182 23.9999 14.3182 22.35 14.3182 20.2499C14.3182 18.1499 15.8182 16.4999 17.7273 16.4999C19.6364 16.4999 21.1364 18.1499 21.1364 20.2499C21.1364 22.35 19.6364 23.9999 17.7273 23.9999Z" fill="#FFCB5B"/>
<path d="M17.7271 25.4249C20.3861 25.4999 22.4998 23.1 22.4998 20.25H22.4316C22.0907 20.25 21.8179 20.55 21.7498 20.925C21.6134 21.975 21.1361 22.95 20.4543 23.625C19.9089 24.225 19.1589 24.6 18.3407 24.75C17.9998 24.75 17.7271 25.0499 17.7271 25.4249Z" fill="#F6B545"/>
<path d="M17.7273 15.075C15.0682 14.9999 12.9546 17.4 12.9546 20.2499H13.0228C13.3637 20.2499 13.6364 19.9499 13.7046 19.5749C13.8409 18.5249 14.3182 17.5499 15 16.8749C15.5455 16.2749 16.2955 15.9 17.1137 15.7499C17.4546 15.7499 17.7273 15.4499 17.7273 15.075Z" fill="#FFE27A"/>
<path d="M14.7957 20.775C14.7957 18.675 16.2957 17.025 18.2048 17.025C19.023 17.025 19.773 17.325 20.3866 17.925C19.7048 17.025 18.8184 16.5 17.7275 16.5C15.8184 16.5 14.3184 18.15 14.3184 20.25C14.3184 21.45 14.7956 22.425 15.5456 23.1C15.0684 22.5 14.7957 21.675 14.7957 20.775Z" fill="#F19920"/>
<path d="M19.7726 22.575C19.7044 22.575 19.6363 22.575 19.5681 22.5C19.4317 22.35 19.4317 22.125 19.5681 21.975C19.9772 21.525 20.1817 20.85 20.1817 20.25C20.1817 20.025 20.3181 19.875 20.5226 19.875C20.7272 19.875 20.8635 20.025 20.8635 20.25C20.8635 21.075 20.5908 21.9 20.1135 22.5C19.9771 22.575 19.8408 22.575 19.7726 22.575Z" fill="#FFCB5B"/>
<path d="M17.7272 22.4999C17.3181 22.4999 17.0454 22.1999 17.0454 21.7499V18.75C17.0454 18.3 17.3182 18 17.7272 18C18.1363 18 18.409 18.3 18.409 18.75V21.7499C18.4091 22.1999 18.1363 22.4999 17.7272 22.4999Z" fill="#F19920"/>
<path d="M20.864 18.825C21.0004 19.275 21.1368 19.725 21.1368 20.25C21.1368 22.35 19.6368 24 17.7277 24C17.5231 24 17.2504 24 17.0459 23.925V24C17.0459 24.525 17.1141 24.975 17.2504 25.5C17.3868 25.5 17.5913 25.5 17.7277 25.5C20.3868 25.5 22.5004 23.175 22.5004 20.25C22.5004 19.725 22.4322 19.275 22.2959 18.75C22.1595 18.75 21.955 18.75 21.8186 18.75C21.4776 18.7501 21.2049 18.7501 20.864 18.825Z" fill="#F6B545"/>
<path d="M21.1365 30C23.7724 30 25.9093 27.6495 25.9093 24.75C25.9093 21.8505 23.7724 19.5 21.1365 19.5C18.5006 19.5 16.3638 21.8505 16.3638 24.75C16.3638 27.6495 18.5006 30 21.1365 30Z" fill="#F6B545"/>
<path d="M21.1365 19.5C18.4774 19.5 16.3638 21.825 16.3638 24.75C16.3638 27.675 18.4774 30 21.1365 30C23.7956 30 25.9093 27.675 25.9093 24.75C25.9093 21.825 23.7956 19.5 21.1365 19.5ZM21.1365 28.5C19.2274 28.5 17.7274 26.85 17.7274 24.75C17.7274 22.65 19.2274 21 21.1365 21C23.0456 21 24.5456 22.65 24.5456 24.75C24.5456 26.85 23.0456 28.5 21.1365 28.5Z" fill="#FFCB5B"/>
<path d="M21.1362 29.925C23.7953 30 25.909 27.6 25.909 24.75H25.8408C25.4999 24.75 25.2271 25.05 25.159 25.425C25.0226 26.475 24.5453 27.45 23.8635 28.125C23.3181 28.725 22.5681 29.1 21.7499 29.25C21.409 29.25 21.1362 29.5499 21.1362 29.925Z" fill="#F6B545"/>
<path d="M21.1365 19.575C18.4774 19.4999 16.3638 21.9 16.3638 24.7499H16.432C16.7729 24.7499 17.0456 24.4499 17.1138 24.0749C17.2501 23.0249 17.7274 22.0499 18.4092 21.3749C18.9547 20.7749 19.7047 20.4 20.5229 20.2499C20.8638 20.25 21.1365 19.9499 21.1365 19.575Z" fill="#FFE27A"/>
<path d="M18.2044 25.275C18.2044 23.175 19.7044 21.525 21.6134 21.525C22.4316 21.525 23.1816 21.825 23.7952 22.425C23.1134 21.525 22.227 21 21.1361 21C19.227 21 17.7271 22.65 17.7271 24.75C17.7271 25.95 18.2043 26.925 18.9543 27.6C18.477 27 18.2044 26.175 18.2044 25.275Z" fill="#F19920"/>
<path d="M23.1818 27.075C23.1136 27.075 23.0455 27.075 22.9773 27C22.8409 26.85 22.8409 26.625 22.9773 26.475C23.3864 26.025 23.5909 25.35 23.5909 24.75C23.5909 24.525 23.7273 24.375 23.9318 24.375C24.1364 24.375 24.2727 24.525 24.2727 24.75C24.2727 25.575 24 26.4 23.5227 27C23.3864 27.075 23.25 27.075 23.1818 27.075Z" fill="#FFCB5B"/>
<path d="M21.1364 27C20.7273 27 20.4546 26.6999 20.4546 26.25V23.25C20.4546 22.8 20.7273 22.5 21.1364 22.5C21.5455 22.5 21.8182 22.8 21.8182 23.25V26.2499C21.8182 26.6999 21.5455 27 21.1364 27Z" fill="#F19920"/>
</svg>
