<svg width="60" height="60" viewBox="0 0 60 60" fill="none" xmlns="http://www.w3.org/2000/svg">
<path d="M20.0673 42.4514C19.7913 42.4522 19.5219 42.3673 19.2962 42.2085C19.0706 42.0497 18.8997 41.8248 18.8073 41.5648L17.9073 39.0181C17.3428 37.4207 16.6747 35.8618 15.9073 34.3514C14.4273 31.4314 11.7406 26.2114 10.4806 24.1448C10.0113 23.2758 9.87994 22.264 10.112 21.304C10.344 20.3441 10.9229 19.5039 11.7373 18.9452C12.5517 18.3866 13.544 18.149 14.5231 18.2781C15.5022 18.4073 16.3989 18.8941 17.0406 19.6448C17.8139 20.6581 19.5473 22.6914 21.0006 24.3781V7.47811C21.0006 7.12449 21.1411 6.78535 21.3911 6.5353C21.6412 6.28525 21.9803 6.14478 22.3339 6.14478C22.6876 6.14478 23.0267 6.28525 23.2768 6.5353C23.5268 6.78535 23.6673 7.12449 23.6673 7.47811V27.9181C23.6681 28.1884 23.5867 28.4526 23.4339 28.6756C23.2812 28.8986 23.0642 29.0699 22.8119 29.1668C22.5595 29.2637 22.2837 29.2816 22.0209 29.2181C21.7582 29.1546 21.5209 29.0128 21.3406 28.8114C21.1406 28.5848 16.4273 23.2181 14.9273 21.2581C14.7277 20.9635 14.4216 20.7578 14.0734 20.6844C13.7252 20.6111 13.3621 20.6757 13.0606 20.8648C12.7789 21.083 12.5914 21.4009 12.5369 21.753C12.4823 22.1052 12.5648 22.4649 12.7673 22.7581C14.1006 24.9181 16.7673 30.2048 18.2939 33.1581C19.1105 34.7723 19.8209 36.4381 20.4206 38.1448L21.3206 40.6914C21.3922 40.8929 21.4144 41.1086 21.3851 41.3205C21.3559 41.5323 21.2761 41.7339 21.1526 41.9085C21.0291 42.083 20.8654 42.2252 20.6753 42.3232C20.4853 42.4212 20.2744 42.472 20.0606 42.4714L20.0673 42.4514Z" fill="white"/>
<path d="M28.3406 27.4781C27.987 27.4781 27.6478 27.3376 27.3978 27.0876C27.1477 26.8375 27.0073 26.4984 27.0073 26.1448V6.14475C27.0414 5.77193 26.9343 5.39989 26.7071 5.10232C26.4799 4.80475 26.1492 4.60338 25.7806 4.53809C25.5269 4.48339 25.2641 4.48615 25.0116 4.54616C24.7591 4.60617 24.5232 4.72192 24.3212 4.88491C24.1192 5.04791 23.9563 5.25403 23.8443 5.48817C23.7323 5.72231 23.6741 5.97854 23.6739 6.23808C23.6739 6.59171 23.5335 6.93085 23.2834 7.18089C23.0334 7.43094 22.6942 7.57142 22.3406 7.57142C21.987 7.57142 21.6478 7.43094 21.3978 7.18089C21.1477 6.93085 21.0073 6.59171 21.0073 6.23808C21.0075 5.58376 21.1535 4.9377 21.4346 4.34683C21.7157 3.75596 22.1249 3.2351 22.6324 2.82208C23.1399 2.40906 23.733 2.11424 24.3686 1.95902C25.0043 1.80381 25.6665 1.7921 26.3073 1.92475C27.2823 2.10524 28.1596 2.63136 28.778 3.40654C29.3965 4.18172 29.7146 5.15394 29.6739 6.14475V26.1448C29.6739 26.4984 29.5335 26.8375 29.2834 27.0876C29.0334 27.3376 28.6942 27.4781 28.3406 27.4781Z" fill="white"/>
<path d="M34.3406 27.4781C33.987 27.4781 33.6478 27.3376 33.3978 27.0876C33.1477 26.8375 33.0073 26.4984 33.0073 26.1448V4.9781C33.0234 4.6694 32.9486 4.36275 32.7922 4.09613C32.6358 3.82951 32.4046 3.61463 32.1273 3.4781C31.8591 3.34769 31.5619 3.2884 31.2642 3.30591C30.9665 3.32342 30.6783 3.41715 30.4273 3.5781C30.1912 3.73268 29.9982 3.94467 29.8665 4.1942C29.7347 4.44373 29.6685 4.72263 29.6739 5.00476V8.14476C29.6739 8.49839 29.5335 8.83753 29.2834 9.08757C29.0334 9.33762 28.6942 9.4781 28.3406 9.4781C27.987 9.4781 27.6478 9.33762 27.3978 9.08757C27.1477 8.83753 27.0073 8.49839 27.0073 8.14476V5.00476C27.0069 4.28666 27.1852 3.57976 27.5262 2.94779C27.8672 2.31582 28.3602 1.77867 28.9606 1.38476C29.5796 0.979349 30.2909 0.736838 31.0287 0.679731C31.7664 0.622624 32.5066 0.752771 33.1806 1.0581C33.9342 1.39587 34.572 1.94732 35.0152 2.64411C35.4584 3.3409 35.6875 4.15241 35.6739 4.9781V26.1448C35.6739 26.4984 35.5335 26.8375 35.2834 27.0876C35.0334 27.3376 34.6942 27.4781 34.3406 27.4781Z" fill="white"/>
<path d="M39.6739 27.4781C39.3203 27.4781 38.9812 27.3376 38.7311 27.0876C38.4811 26.8375 38.3406 26.4984 38.3406 26.1447V7.86475C38.3517 7.62706 38.2949 7.39112 38.1768 7.18453C38.0588 6.97793 37.8843 6.8092 37.6739 6.69808C37.4575 6.59208 37.2174 6.54375 36.9768 6.55777C36.7362 6.57178 36.5033 6.64767 36.3006 6.77808C36.1162 6.89949 35.9649 7.06477 35.8602 7.25908C35.7555 7.4534 35.7006 7.67068 35.7006 7.89142V10.7247C35.7006 11.0784 35.5601 11.4175 35.3101 11.6676C35.06 11.9176 34.7209 12.0581 34.3673 12.0581C34.0136 12.0581 33.6745 11.9176 33.4245 11.6676C33.1744 11.4175 33.0339 11.0784 33.0339 10.7247V7.89142C33.0351 7.23033 33.2002 6.57985 33.5143 5.99815C33.8284 5.41645 34.2818 4.92168 34.8339 4.55808C35.4051 4.18428 36.0615 3.96079 36.7421 3.90834C37.4227 3.8559 38.1056 3.9762 38.7273 4.25808C39.4166 4.57276 39.9993 5.08144 40.4042 5.72196C40.8092 6.36247 41.0187 7.10707 41.0073 7.86475V26.1447C41.0073 26.4984 40.8668 26.8375 40.6167 27.0876C40.3667 27.3376 40.0276 27.4781 39.6739 27.4781Z" fill="white"/>
<path d="M43.674 59.478C43.3203 59.478 42.9812 59.3375 42.7311 59.0875C42.4811 58.8374 42.3406 58.4983 42.3406 58.1447V46.8113C42.3353 46.7425 42.3353 46.6734 42.3406 46.6047L44.0406 35.678C44.0678 35.5029 44.1291 35.3349 44.2212 35.1835C44.3133 35.0321 44.4343 34.9003 44.5773 34.7957C44.7203 34.6911 44.8825 34.6157 45.0546 34.5737C45.2268 34.5318 45.4055 34.5242 45.5806 34.5513C45.7557 34.5785 45.9238 34.6398 46.0751 34.7319C46.2265 34.824 46.3583 34.945 46.4629 35.088C46.5675 35.231 46.643 35.3932 46.6849 35.5653C46.7268 35.7375 46.7344 35.9162 46.7073 36.0913L45.0073 46.9113V58.1447C45.0073 58.4983 44.8668 58.8374 44.6168 59.0875C44.3667 59.3375 44.0276 59.478 43.674 59.478Z" fill="white"/>
<path d="M45.674 29.478C45.3203 29.478 44.9812 29.3376 44.7312 29.0875C44.4811 28.8375 44.3406 28.4983 44.3406 28.1447V13.738C44.3412 13.4621 44.2733 13.1904 44.143 12.9472C44.0127 12.704 43.824 12.497 43.594 12.3447C43.3445 12.1833 43.0578 12.0887 42.7612 12.07C42.4647 12.0513 42.1684 12.1092 41.9006 12.238C41.623 12.3735 41.3907 12.5869 41.2321 12.852C41.0735 13.1171 40.9954 13.4227 41.0073 13.7314V16.8114C41.0073 17.165 40.8668 17.5041 40.6168 17.7542C40.3667 18.0042 40.0276 18.1447 39.674 18.1447C39.3203 18.1447 38.9812 18.0042 38.7312 17.7542C38.4811 17.5041 38.3406 17.165 38.3406 16.8114V13.7314C38.3253 12.8993 38.5555 12.0812 39.0025 11.3793C39.4495 10.6773 40.0935 10.1227 40.854 9.78471C41.5273 9.48371 42.2656 9.35708 43.0008 9.4165C43.736 9.47592 44.4444 9.71948 45.0606 10.1247C45.6589 10.5188 46.1499 11.0552 46.4897 11.6859C46.8294 12.3165 47.0073 13.0217 47.0073 13.738V28.1447C47.0073 28.4983 46.8668 28.8375 46.6168 29.0875C46.3667 29.3376 46.0276 29.478 45.674 29.478Z" fill="white"/>
<path d="M26.3406 59.478C25.987 59.478 25.6478 59.3376 25.3978 59.0875C25.1477 58.8375 25.0073 58.4983 25.0073 58.1447V49.478C24.3335 48.9772 23.6943 48.4315 23.0939 47.8447C22.859 47.5949 22.7294 47.2643 22.7319 46.9214C22.7344 46.5785 22.8689 46.2498 23.1075 46.0036C23.3461 45.7573 23.6703 45.6124 24.0129 45.5989C24.3555 45.5855 24.6902 45.7045 24.9473 45.9314C25.5959 46.574 26.3034 47.1544 27.0606 47.6647C27.2522 47.7876 27.4092 47.9575 27.5165 48.1582C27.6239 48.3589 27.6781 48.5838 27.6739 48.8114V58.1447C27.6739 58.4983 27.5335 58.8375 27.2834 59.0875C27.0334 59.3376 26.6942 59.478 26.3406 59.478Z" fill="white"/>
<path d="M39.0073 37.478C38.7436 37.478 38.4858 37.5562 38.2665 37.7027C38.0473 37.8492 37.8764 38.0575 37.7754 38.3011C37.6745 38.5448 37.6481 38.8128 37.6996 39.0715C37.751 39.3301 37.878 39.5677 38.0645 39.7542C38.2509 39.9406 38.4885 40.0676 38.7472 40.1191C39.0058 40.1705 39.2739 40.1441 39.5175 40.0432C39.7612 39.9423 39.9694 39.7714 40.1159 39.5521C40.2624 39.3329 40.3406 39.0751 40.3406 38.8114C40.3406 38.4577 40.2001 38.1186 39.9501 37.8686C39.7 37.6185 39.3609 37.478 39.0073 37.478Z" fill="#FF7B00"/>
<path d="M38.3406 50.1448C38.0769 50.1448 37.8191 50.223 37.5998 50.3695C37.3806 50.516 37.2097 50.7242 37.1088 50.9679C37.0078 51.2115 36.9814 51.4796 37.0329 51.7382C37.0843 51.9969 37.2113 52.2345 37.3978 52.4209C37.5843 52.6074 37.8218 52.7344 38.0805 52.7858C38.3391 52.8373 38.6072 52.8109 38.8508 52.71C39.0945 52.609 39.3027 52.4381 39.4492 52.2189C39.5957 51.9996 39.6739 51.7418 39.6739 51.4781C39.6739 51.1245 39.5335 50.7853 39.2834 50.5353C39.0334 50.2853 38.6942 50.1448 38.3406 50.1448Z" fill="#FF7B00"/>
<path d="M25.6739 34.1448C25.4102 34.1448 25.1524 34.223 24.9332 34.3695C24.7139 34.516 24.543 34.7242 24.4421 34.9679C24.3412 35.2115 24.3148 35.4796 24.3662 35.7382C24.4177 35.9969 24.5447 36.2344 24.7311 36.4209C24.9176 36.6074 25.1552 36.7344 25.4138 36.7858C25.6725 36.8373 25.9405 36.8109 26.1842 36.7099C26.4278 36.609 26.6361 36.4381 26.7826 36.2189C26.9291 35.9996 27.0073 35.7418 27.0073 35.4781C27.0073 35.1245 26.8668 34.7853 26.6167 34.5353C26.3667 34.2853 26.0276 34.1448 25.6739 34.1448Z" fill="#FF7B00"/>
<path d="M31.0073 41.478C30.7436 41.478 30.4858 41.5562 30.2665 41.7027C30.0473 41.8492 29.8764 42.0575 29.7754 42.3011C29.6745 42.5448 29.6481 42.8128 29.6996 43.0715C29.751 43.3301 29.878 43.5677 30.0645 43.7542C30.2509 43.9406 30.4885 44.0676 30.7472 44.1191C31.0058 44.1705 31.2739 44.1441 31.5175 44.0432C31.7612 43.9423 31.9694 43.7714 32.1159 43.5521C32.2624 43.3329 32.3406 43.0751 32.3406 42.8114C32.3406 42.4577 32.2001 42.1186 31.9501 41.8686C31.7 41.6185 31.3609 41.478 31.0073 41.478Z" fill="#FF7B00"/>
<path d="M32.3406 32.1448C32.0769 32.1448 31.8191 32.223 31.5999 32.3695C31.3806 32.516 31.2097 32.7242 31.1088 32.9679C31.0079 33.2115 30.9815 33.4796 31.0329 33.7382C31.0844 33.9969 31.2113 34.2344 31.3978 34.4209C31.5843 34.6074 31.8219 34.7344 32.0805 34.7858C32.3391 34.8373 32.6072 34.8109 32.8509 34.7099C33.0945 34.609 33.3027 34.4381 33.4493 34.2189C33.5958 33.9996 33.674 33.7418 33.674 33.4781C33.674 33.1245 33.5335 32.7853 33.2834 32.5353C33.0334 32.2853 32.6942 32.1448 32.3406 32.1448Z" fill="#FF7B00"/>
<path d="M45.374 37.2181C45.0203 37.2181 44.6812 37.0776 44.4311 36.8275C44.1811 36.5775 44.0406 36.2384 44.0406 35.8847C44.0406 35.5311 44.1811 35.192 44.4311 34.9419C44.6812 34.6919 45.0203 34.5514 45.374 34.5514C45.9539 34.577 46.5203 34.3712 46.9485 33.9793C47.3767 33.5873 47.6316 33.0413 47.6573 32.4614C47.6829 31.8815 47.4771 31.3151 47.0852 30.8869C46.6932 30.4587 46.1472 30.2037 45.5673 30.1781C45.3922 30.1632 45.2217 30.114 45.0657 30.0332C44.9096 29.9524 44.771 29.8417 44.6577 29.7074C44.5444 29.5731 44.4587 29.4177 44.4054 29.2503C44.3521 29.0828 44.3324 28.9065 44.3473 28.7314C44.3622 28.5563 44.4114 28.3859 44.4921 28.2298C44.5729 28.0737 44.6836 27.9351 44.8179 27.8218C44.9523 27.7085 45.1076 27.6228 45.2751 27.5695C45.4425 27.5163 45.6189 27.4965 45.794 27.5114C47.053 27.6033 48.2266 28.1821 49.0659 29.125C49.9052 30.0679 50.3441 31.3008 50.2895 32.5619C50.2348 33.8231 49.6909 35.0134 48.7732 35.8802C47.8555 36.747 46.6362 37.2221 45.374 37.2047V37.2181Z" fill="white"/>
<path d="M22.2739 47.9647C21.4854 47.9536 20.7178 47.7097 20.0675 47.2636C19.4172 46.8175 18.9133 46.1891 18.6191 45.4575C18.3249 44.7259 18.2535 43.9236 18.4139 43.1515C18.5743 42.3794 18.9593 41.6719 19.5206 41.118C19.7792 40.8918 20.1151 40.774 20.4583 40.7894C20.8015 40.8048 21.1256 40.9521 21.3629 41.2005C21.6002 41.449 21.7324 41.7795 21.732 42.1231C21.7315 42.4666 21.5985 42.7968 21.3606 43.0447C21.1675 43.2786 21.0599 43.5714 21.0556 43.8747C21.0514 44.178 21.1507 44.4737 21.3371 44.713C21.5236 44.9523 21.786 45.1209 22.0812 45.1908C22.3764 45.2608 22.6866 45.2281 22.9606 45.098C23.2603 44.9097 23.6225 44.8482 23.9676 44.9269C24.3126 45.0057 24.6123 45.2183 24.8006 45.518C24.9889 45.8177 25.0504 46.1799 24.9717 46.525C24.8929 46.8701 24.6803 47.1697 24.3806 47.358C23.7496 47.7548 23.0193 47.9651 22.2739 47.9647Z" fill="white"/>
</svg>
