<svg width="100" height="100" viewBox="0 0 100 100" fill="none" xmlns="http://www.w3.org/2000/svg">
<path fill-rule="evenodd" clip-rule="evenodd" d="M45.8335 8.33325C25.1228 8.33325 8.3335 25.1226 8.3335 45.8333C8.3335 66.5439 25.1228 83.3333 45.8335 83.3333C54.6877 83.3333 62.8252 80.2646 69.2405 75.1328L87.5002 93.3925L93.3927 87.4999L75.1331 69.2403C80.2649 62.825 83.3335 54.6875 83.3335 45.8333C83.3335 25.1226 66.5442 8.33325 45.8335 8.33325ZM16.6668 45.8333C16.6668 29.7249 29.7252 16.6666 45.8335 16.6666C61.9418 16.6666 75.0002 29.7249 75.0002 45.8333C75.0002 61.9416 61.9418 74.9999 45.8335 74.9999C29.7252 74.9999 16.6668 61.9416 16.6668 45.8333Z" fill="#5AC7E6"/>
</svg>
