<svg width="32" height="30" viewBox="0 0 32 30" fill="none" xmlns="http://www.w3.org/2000/svg">
<path d="M31.1427 4.76379V11.8331C31.1427 18.219 27.2987 24.1437 21.1108 27.2954L15.7999 30L10.4891 27.2954C4.30106 24.1437 0.457031 18.219 0.457031 11.8331V4.76379L1.43673 4.73162C3.85676 4.65088 5.77602 2.9533 5.80595 0.86666L5.81888 0H25.7809L25.7938 0.866602C25.8237 2.9533 27.743 4.65082 30.163 4.73156L31.1427 4.76379Z" fill="#79D5FA"/>
<path d="M31.1427 4.76379V11.8331C31.1427 18.219 27.2986 24.1437 21.1107 27.2954L15.7998 30V0H25.7808L25.7937 0.866602C25.8236 2.9533 27.7429 4.65082 30.163 4.73156L31.1427 4.76379Z" fill="#4BBBF0"/>
<path d="M22.3388 19.3988C25.9521 16.2866 25.9521 11.2407 22.3388 8.12857C18.7254 5.01638 12.8669 5.01638 9.25354 8.12857C5.64016 11.2407 5.64016 16.2866 9.25354 19.3988C12.8669 22.511 18.7254 22.511 22.3388 19.3988Z" fill="#FF4945"/>
<path d="M25.0538 13.7637C25.0538 18.1588 20.9027 21.7341 15.7998 21.7341V5.79321C20.9027 5.79321 25.0538 9.36854 25.0538 13.7637Z" fill="#FF155D"/>
<path d="M20.2919 12.8859V14.6413H16.8189V17.6327H14.7807V14.6413H11.3076V12.8859H14.7807V9.89453H16.8189V12.8859H20.2919Z" fill="white"/>
<path d="M20.292 12.8859V14.6413H16.8189V17.6327H15.7998V9.89453H16.8189V12.8859H20.292Z" fill="#EBDFD9"/>
</svg>
