<svg width="48" height="48" viewBox="0 0 48 48" fill="none" xmlns="http://www.w3.org/2000/svg">
<path d="M27 25.5V24.75C27 23.9544 26.6839 23.1913 26.1213 22.6287C25.5587 22.0661 24.7956 21.75 24 21.75C23.2044 21.75 22.4413 22.0661 21.8787 22.6287C21.3161 23.1913 21 23.9544 21 24.75V25.5C21 25.6989 21.079 25.8897 21.2197 26.0303C21.3603 26.171 21.5511 26.25 21.75 26.25H26.25C26.4489 26.25 26.6397 26.171 26.7803 26.0303C26.921 25.8897 27 25.6989 27 25.5ZM22.5 24.75C22.5 24.3522 22.658 23.9706 22.9393 23.6893C23.2206 23.408 23.6022 23.25 24 23.25C24.3978 23.25 24.7794 23.408 25.0607 23.6893C25.342 23.9706 25.5 24.3522 25.5 24.75H22.5Z" fill="#5AC7E6"/>
<path d="M34.6575 34.0425L28.5 31.7325V28.14C29.8531 27.4339 31.0215 26.4199 31.9112 25.1798C32.801 23.9397 33.3871 22.508 33.6225 21H33.75C34.3954 20.9975 35.0228 20.7869 35.539 20.3994C36.0552 20.012 36.4327 19.4685 36.6154 18.8495C36.7982 18.2305 36.7765 17.5691 36.5534 16.9634C36.3304 16.3578 35.918 15.8402 35.3775 15.4875L36.7875 11.25C37.2713 9.78054 37.2235 8.18782 36.6525 6.75C36.1393 5.45101 35.2215 4.35177 34.035 3.615C31.0523 1.74455 27.6032 0.75167 24.0825 0.75H23.9175C20.3975 0.749422 16.9485 1.73969 13.965 3.6075C12.7772 4.34621 11.8593 5.44824 11.3475 6.75C10.7887 8.19224 10.7542 9.78491 11.25 11.25L12.66 15.4725C12.1152 15.8208 11.6976 16.3357 11.4692 16.9406C11.2409 17.5456 11.2141 18.2081 11.3928 18.8294C11.5716 19.4508 11.9463 19.9978 12.4611 20.389C12.976 20.7801 13.6034 20.9944 14.25 21H14.3775C14.6129 22.508 15.199 23.9397 16.0888 25.1798C16.9785 26.4199 18.1469 27.4339 19.5 28.14V31.7325L13.3425 34.0425C11.6273 34.6851 10.149 35.8357 9.10501 37.3407C8.06104 38.8457 7.50111 40.6334 7.5 42.465V46.5C7.5 46.6989 7.57902 46.8897 7.71967 47.0303C7.86032 47.171 8.05109 47.25 8.25 47.25H39.75C39.9489 47.25 40.1397 47.171 40.2803 47.0303C40.421 46.8897 40.5 46.6989 40.5 46.5V42.465C40.4989 40.6334 39.939 38.8457 38.895 37.3407C37.851 35.8357 36.3727 34.6851 34.6575 34.0425ZM20.115 33.105L22.875 35.31L21.165 37.0275L19.1325 33.4725L20.115 33.105ZM27.885 33.105L28.8675 33.4725L26.835 37.0275L25.125 35.31L27.885 33.105ZM33.75 19.5V16.5C34.1478 16.5 34.5294 16.658 34.8107 16.9393C35.092 17.2206 35.25 17.6022 35.25 18C35.25 18.3978 35.092 18.7794 34.8107 19.0607C34.5294 19.342 34.1478 19.5 33.75 19.5ZM12.75 18C12.75 17.6022 12.908 17.2206 13.1893 16.9393C13.4706 16.658 13.8522 16.5 14.25 16.5V19.5C13.8522 19.5 13.4706 19.342 13.1893 19.0607C12.908 18.7794 12.75 18.3978 12.75 18ZM14.715 11.31C14.578 11.3663 14.4608 11.4618 14.378 11.5846C14.2953 11.7074 14.2507 11.8519 14.25 12V15C14.1826 14.9963 14.1149 14.9963 14.0475 15L12.6375 10.7625C12.2855 9.6849 12.3032 8.52067 12.6876 7.45423C13.0721 6.38779 13.8014 5.48011 14.76 4.875C17.5056 3.15777 20.6791 2.24807 23.9175 2.25H24.0825C27.3209 2.24807 30.4944 3.15777 33.24 4.875C34.2034 5.4812 34.9359 6.39267 35.3206 7.46391C35.7053 8.53515 35.7201 9.7044 35.3625 10.785L33.9525 15C33.8851 14.9963 33.8174 14.9963 33.75 15V12C33.7494 11.8626 33.711 11.728 33.6391 11.6109C33.5671 11.4938 33.4644 11.3987 33.3422 11.336C33.2199 11.2734 33.0827 11.2455 32.9457 11.2554C32.8086 11.2654 32.6769 11.3128 32.565 11.3925L28.5 14.295V12C28.5002 11.8574 28.4598 11.7176 28.3834 11.5972C28.307 11.4767 28.1979 11.3805 28.0687 11.3199C27.9396 11.2593 27.7959 11.2367 27.6544 11.2549C27.513 11.2731 27.3796 11.3312 27.27 11.4225L24 14.145V12.75C23.9996 12.6143 23.9625 12.4813 23.8925 12.3651C23.8225 12.2488 23.7223 12.1538 23.6025 12.09C23.4852 12.0298 23.3541 12.0015 23.2225 12.0081C23.0908 12.0147 22.9632 12.0559 22.8525 12.1275L18.8625 14.7825L15.5475 11.4675C15.4408 11.3604 15.3042 11.288 15.1556 11.2599C15.0071 11.2318 14.8535 11.2493 14.715 11.31V11.31ZM15.75 19.5V13.8075L18.2175 16.2825C18.3405 16.4042 18.5017 16.4796 18.6739 16.496C18.8462 16.5124 19.0188 16.4688 19.1625 16.3725L22.5 14.1225V15.75C22.4998 15.8926 22.5402 16.0324 22.6166 16.1528C22.693 16.2733 22.8021 16.3695 22.9312 16.4301C23.0604 16.4907 23.2041 16.5133 23.3456 16.4951C23.487 16.4769 23.6204 16.4188 23.73 16.3275L27 13.605V15.75C27.0006 15.8874 27.039 16.022 27.1109 16.1391C27.1829 16.2562 27.2856 16.3513 27.4078 16.414C27.5301 16.4766 27.6673 16.5045 27.8043 16.4946C27.9414 16.4846 28.0731 16.4372 28.185 16.3575L32.25 13.455V19.5C32.25 21.688 31.3808 23.7865 29.8336 25.3336C28.2865 26.8808 26.188 27.75 24 27.75C21.812 27.75 19.7135 26.8808 18.1664 25.3336C16.6192 23.7865 15.75 21.688 15.75 19.5ZM24 29.25C25.019 29.2491 26.0315 29.0871 27 28.77V31.89L24 34.29L21 31.89V28.77C21.9685 29.0871 22.981 29.2491 24 29.25ZM39 45.75H35.25V42H33.75V45.75H14.25V42H12.75V45.75H9V42.465C9.00582 40.9398 9.47421 39.4523 10.3433 38.1989C11.2123 36.9455 12.4412 35.9853 13.8675 35.445L17.7075 34.005L20.3475 38.625C20.4055 38.7248 20.4857 38.81 20.582 38.8737C20.6783 38.9374 20.7879 38.9781 20.9025 38.9925H21C21.0987 38.9931 21.1966 38.9742 21.2879 38.9368C21.3793 38.8995 21.4624 38.8445 21.5325 38.775L24 36.3075L26.4675 38.7825C26.5376 38.852 26.6207 38.907 26.7121 38.9443C26.8034 38.9817 26.9013 39.0006 27 39H27.0975C27.2121 38.9856 27.3217 38.9449 27.418 38.8812C27.5143 38.8174 27.5945 38.7323 27.6525 38.6325L30.2925 34.0125L34.1325 35.4525C35.5576 35.9923 36.7856 36.9514 37.6546 38.2033C38.5236 39.4552 38.9927 40.9411 39 42.465V45.75Z" fill="#5AC7E6"/>
<path d="M32.25 42H28.5V43.5H32.25V42Z" fill="#5AC7E6"/>
<path d="M21.75 18.7501C21.7494 18.6265 21.7182 18.5051 21.6593 18.3965C21.6005 18.2879 21.5157 18.1955 21.4125 18.1276L19.1625 16.6276L18.3375 17.8726L19.65 18.7501L18.3375 19.6276L19.1625 20.8726L21.4125 19.3726C21.5157 19.3046 21.6005 19.2122 21.6593 19.1037C21.7182 18.9951 21.7494 18.8736 21.75 18.7501V18.7501Z" fill="#5AC7E6"/>
<path d="M26.5875 19.3726L28.8375 20.8726L29.6625 19.6276L28.35 18.7501L29.6625 17.8726L28.8375 16.6276L26.5875 18.1276C26.4854 18.1962 26.4017 18.2888 26.3439 18.3974C26.2861 18.5059 26.2558 18.6271 26.2558 18.7501C26.2558 18.8731 26.2861 18.9942 26.3439 19.1027C26.4017 19.2113 26.4854 19.304 26.5875 19.3726V19.3726Z" fill="#5AC7E6"/>
<path d="M35.8725 25.0875C35.8162 25.0026 35.7432 24.93 35.6579 24.8743C35.5727 24.8185 35.4769 24.7807 35.3766 24.7632C35.2762 24.7456 35.1733 24.7487 35.0742 24.7722C34.9751 24.7958 34.8818 24.8392 34.8 24.9L31.8 27.15L32.7 28.35L35.0625 26.5725L36.1275 28.1625C36.1831 28.2484 36.2557 28.3219 36.3409 28.3787C36.426 28.4354 36.5218 28.4742 36.6225 28.4925H36.75C36.9123 28.4925 37.0702 28.4399 37.2 28.3425L40.2 26.0925L39.3 24.8925L36.9375 26.67L35.8725 25.0875Z" fill="#FF7B00"/>
<path d="M35.1225 29.25C35.0218 29.2683 34.926 29.307 34.8409 29.3638C34.7557 29.4205 34.6831 29.4941 34.6275 29.58L33.5625 31.17L31.2 29.4L30.3 30.6L33.3 32.85C33.4298 32.9473 33.5877 33 33.75 33H33.8775C33.9781 32.9816 34.074 32.9429 34.1591 32.8861C34.2442 32.8294 34.3169 32.7558 34.3725 32.67L35.4375 31.08L37.8 32.85L38.7 31.65L35.7 29.4C35.6191 29.3368 35.5261 29.2909 35.4268 29.2651C35.3275 29.2393 35.2239 29.2341 35.1225 29.25Z" fill="#FF7B00"/>
<path d="M13.3725 29.5875C13.3162 29.5026 13.2432 29.43 13.1579 29.3743C13.0727 29.3185 12.9769 29.2807 12.8766 29.2632C12.7762 29.2456 12.6733 29.2487 12.5742 29.2722C12.4751 29.2958 12.3818 29.3392 12.3 29.4L9.3 31.65L10.2 32.85L12.5625 31.0725L13.6275 32.6625C13.6831 32.7484 13.7557 32.8219 13.8409 32.8787C13.926 32.9354 14.0218 32.9742 14.1225 32.9925H14.25C14.4123 32.9925 14.5702 32.9399 14.7 32.8425L17.7 30.5925L16.8 29.3925L14.4375 31.17L13.3725 29.5875Z" fill="#FF7B00"/>
<path d="M11.25 28.5H11.3775C11.4781 28.4817 11.574 28.4429 11.6591 28.3862C11.7442 28.3294 11.8169 28.2559 11.8725 28.17L12.9375 26.58L15.3 28.35L16.2 27.15L13.2 24.9C13.1182 24.8392 13.0249 24.7958 12.9258 24.7722C12.8267 24.7487 12.7238 24.7456 12.6234 24.7632C12.5231 24.7807 12.4273 24.8185 12.3421 24.8743C12.2568 24.93 12.1838 25.0026 12.1275 25.0875L11.0625 26.6775L8.7 24.9L7.8 26.1L10.8 28.35C10.9298 28.4474 11.0877 28.5 11.25 28.5V28.5Z" fill="#FF7B00"/>
</svg>
