<svg width="48" height="48" viewBox="0 0 48 48" fill="none" xmlns="http://www.w3.org/2000/svg">
<path d="M48 39.9474L47.7037 38.5328C45.8456 29.6568 37.9494 23.2153 28.9279 23.2153H26.1694V24.763H28.9279C36.7279 24.763 43.6143 29.9996 45.8318 37.4084L41.9533 35.8491L44.0253 43.4877L40.5956 40.6144L38.9847 43.3128L38.7499 41.307C38.0626 35.4343 34.9053 30.1211 30.0871 26.7293C29.6976 26.4562 29.2396 26.3107 28.7624 26.3107H25.3997C24.1266 26.3107 23.0906 25.2691 23.0906 23.9892C23.0906 22.7092 24.1266 21.6676 25.3997 21.6676H32.3269V10.8338H35.7735L35.351 9.7721C34.8561 8.52931 34.121 7.40801 33.2158 6.45076L37.7301 4.9379L36.6687 4.04875C33.5522 1.4378 29.6022 0 25.5451 0H15.3937C6.90563 0 0 6.94293 0 15.4769C0 22.443 4.6035 28.3451 10.9111 30.2797C8.10096 31.6665 6.1575 34.5645 6.1575 37.9184V39.7315C6.1575 42.4005 8.18716 44.6013 10.7756 44.8574V47.9783H27.7087V43.3353H28.4784C30.6005 43.3353 32.3269 41.5995 32.3269 39.466V37.9184C32.3269 34.4631 30.2656 31.4885 27.317 30.1559C28.1644 29.6823 28.901 29.0176 29.4567 28.1857C33.7716 31.3306 36.5986 36.1586 37.2221 41.4889L37.9841 48L40.9912 42.9599L46.7977 47.8251L44.2516 38.4392L48 39.9474ZM1.53937 15.4769C1.53937 7.79648 7.7546 1.54769 15.3937 1.54769H25.5451C28.7671 1.54769 31.9135 2.54285 34.5489 4.37222L31.8835 5.26601C31.1631 4.72432 30.3788 4.26465 29.5337 3.92494L28.9626 5.36197C30.8491 6.12033 32.4246 7.52022 33.4152 9.28613H16.9331C15.2352 9.28613 13.8544 10.6744 13.8544 12.3815V14.1459C13.3556 14.0089 12.8399 13.9292 12.315 13.9292C9.7681 13.9292 7.69687 16.0116 7.69687 18.5723C7.69687 21.1329 9.7681 23.2153 12.315 23.2153C12.8399 23.2153 13.3556 23.1356 13.8544 22.9986V29.3148C6.93796 28.5417 1.53937 22.6342 1.53937 15.4769ZM16.9331 39.1457L14.9427 37.1445L16.0726 36.0085C16.3366 35.7431 16.6914 35.5968 17.1063 35.5968C17.4711 35.5968 17.8144 35.7408 18.0723 36C18.3316 36.2616 18.4733 36.6098 18.4733 37.0571C18.4725 37.4053 18.3378 37.7326 18.0938 37.9779L16.9331 39.1457ZM7.69687 39.7315V37.9184C7.69687 34.2356 10.557 31.2192 14.1599 30.9777L15.8278 34.3324C15.5184 34.4763 15.2298 34.6667 14.9835 34.9158L12.315 37.598V35.5968H10.7756V39.1457L9.46176 40.4666L10.5501 41.5608L13.8544 38.2387L15.8448 40.2399L13.8159 42.2797C13.1386 42.9607 12.238 43.3353 11.2813 43.3353C9.30475 43.3353 7.69687 41.7187 7.69687 39.7315ZM15.8694 30.9538H17.3842L16.3743 31.969L15.8694 30.9538ZM26.1694 46.4306H12.315V44.7777C13.2894 44.5781 14.1846 44.0975 14.9042 43.3747L18.5233 39.7361C18.4964 39.9009 18.4725 40.0673 18.4725 40.2399C18.4725 41.947 19.8533 43.3353 21.5512 43.3353H26.1694V46.4306ZM21.5512 41.7876C20.7023 41.7876 20.0119 41.0934 20.0119 40.2399C20.0119 39.3863 20.7023 38.6922 21.5512 38.6922H23.0906V41.7876H21.5512ZM30.7875 37.9184V39.466C30.7875 40.746 29.7515 41.7876 28.4784 41.7876H24.63V38.6922H29.2481V37.1445H27.7087V35.5968H26.1694V37.1445H21.5512C20.9663 37.1445 20.4252 37.3179 19.9595 37.6034C19.9934 37.4254 20.0126 37.2436 20.0126 37.0586V36.9812C20.0134 36.1966 19.7109 35.4606 19.1621 34.9066C18.6133 34.3548 17.8829 34.0491 17.0717 34.0491C16.8408 34.0491 16.6175 34.0824 16.399 34.1335L19.2422 31.2741L22.5318 34.5815L24.3244 30.977C27.9273 31.2192 30.7875 34.2356 30.7875 37.9184ZM21.1002 30.9538H22.6149L22.11 31.969L21.1002 30.9538ZM24.2859 29.4061H15.3937V22.3223C15.4484 22.2883 15.5077 22.2627 15.5623 22.2263L16.5906 21.5369L15.737 20.2492L14.7087 20.9387C13.9975 21.4154 13.1693 21.6676 12.315 21.6676C10.6171 21.6676 9.23625 20.2794 9.23625 18.5723C9.23625 16.8652 10.6171 15.4769 12.315 15.4769C13.1693 15.4769 13.9975 15.7292 14.708 16.2051L15.7363 16.8946L16.5898 15.6069L15.5615 14.9174C15.5077 14.881 15.4484 14.8563 15.393 14.8214V12.3815C15.393 11.528 16.0834 10.8338 16.9323 10.8338H30.7867V20.1199H25.3989C23.2769 20.1199 21.5505 21.8557 21.5505 23.9892C21.5505 26.1227 23.2769 27.8584 25.3989 27.8584H27.7649C26.889 28.8327 25.6398 29.4061 24.2859 29.4061Z" fill="#5AC7E6"/>
<path d="M12.315 17.0245V18.5722C12.9715 18.5722 13.5611 18.939 13.8544 19.5287L13.9352 19.692L15.3122 18.9994L15.2313 18.8369C14.6756 17.7187 13.558 17.0245 12.315 17.0245Z" fill="#5AC7E6"/>
<path d="M22.0954 18.3456L23.8603 16.5711L25.6252 18.3456L26.7135 17.2513L24.9486 15.4769L26.7135 13.7025L25.6252 12.6083L23.8603 14.3827L22.0954 12.6083L21.0071 13.7025L22.772 15.4769L21.0071 17.2513L22.0954 18.3456Z" fill="#FF7B00"/>
<path d="M46.1812 23.9891C46.1812 24.4155 45.8364 24.763 45.4115 24.763H43.1025V26.3107H45.4115C46.6846 26.3107 47.7206 25.2691 47.7206 23.9891C47.7206 22.7092 46.6846 21.6676 45.4115 21.6676H40.0237V23.2153H45.4115C45.8364 23.2153 46.1812 23.5627 46.1812 23.9891Z" fill="#5AC7E6"/>
<path d="M40.0784 35.11L41.5077 34.5358C40.4524 31.8839 38.5298 29.615 36.096 28.1462L35.802 27.969L35.0085 29.2961L35.3032 29.4733C37.4522 30.7688 39.1478 32.7707 40.0784 35.11Z" fill="#5AC7E6"/>
</svg>
