<svg width="32" height="30" viewBox="0 0 32 30" fill="none" xmlns="http://www.w3.org/2000/svg">
<path d="M30.4317 15.5387L30.4186 15.5399L29.4265 15.6283C29.3893 15.6319 29.3528 15.6338 29.3157 15.6356L29.0418 15.6466C28.7927 15.6568 28.5518 15.7284 28.3462 15.8534C28.1406 15.9785 27.9786 16.1519 27.8784 16.3541L27.8089 16.4955C27.6472 16.8223 27.3816 17.1003 27.0445 17.2955C26.7074 17.4908 26.3133 17.5948 25.9106 17.5949H24.745C24.4682 17.5949 24.2013 17.5036 23.9961 17.339C23.791 17.1743 23.6624 16.948 23.6352 16.7039L23.5884 16.2907C23.5685 16.1148 23.5041 15.9451 23.4 15.7942C23.2959 15.6433 23.1548 15.5152 22.9871 15.4192C22.8127 15.3193 22.6693 15.1823 22.57 15.0207C22.4708 14.8591 22.4188 14.6781 22.4187 14.4941V14.0797C22.4187 13.8928 22.4636 13.708 22.5503 13.5376C22.637 13.3672 22.7636 13.215 22.9217 13.0912L24.9129 11.5316C25.1118 11.376 25.256 11.1731 25.3283 10.9469C25.4007 10.7208 25.3981 10.481 25.3209 10.2561C25.241 10.0219 25.0861 9.81335 24.8749 9.65572C24.6637 9.49809 24.4054 9.39818 24.1313 9.36813L23.9304 9.34619C23.5502 9.30496 23.2006 9.1409 22.9485 8.88546C22.7938 8.72843 22.6981 8.53265 22.6747 8.32527C22.6513 8.1179 22.7013 7.9092 22.8178 7.72814L24.1271 5.74015L24.1285 5.73893C21.6467 4.33662 18.6118 3.40479 15.6986 3.40479C15.3154 3.40479 14.8902 3.42612 14.4725 3.45842V3.45963L16.3433 5.84985C16.5932 6.16951 16.7219 6.55126 16.7107 6.93994C16.6996 7.32862 16.5492 7.7041 16.2814 8.01214L15.7922 8.57586C15.6289 8.76357 15.413 8.91015 15.1659 9.00103C14.9188 9.09191 14.6492 9.12392 14.3838 9.09389L13.8285 9.03112C13.5172 8.99593 13.2011 9.04249 12.9194 9.16502C12.6377 9.28756 12.4028 9.48067 12.244 9.72039C12.0906 9.95195 11.8638 10.1385 11.5918 10.2569C11.3197 10.3753 11.0144 10.4204 10.7137 10.3865L9.43123 10.2421C9.12337 10.2075 8.8107 10.2491 8.52794 10.3624C8.24518 10.4757 8.00341 10.6562 7.82947 10.8838C7.67269 11.0892 7.58692 11.3306 7.58264 11.5784C7.57836 11.8263 7.65577 12.0699 7.80539 12.2794L8.65306 13.4654C8.82952 13.7129 9.10533 13.8919 9.4249 13.9664C9.74447 14.041 10.0841 14.0054 10.3752 13.867L11.2477 13.4526C11.871 13.1564 12.8646 13.2021 13.4714 13.5245H13.4721L17.5054 15.8654L17.9712 16.4309C18.0215 16.4931 18.0751 16.554 18.1315 16.6125L19.1911 17.718C19.2745 17.8051 19.337 17.9062 19.375 18.0153C19.4129 18.1243 19.4255 18.2391 19.4119 18.3526C19.3983 18.4661 19.3589 18.5759 19.296 18.6755C19.2331 18.7751 19.148 18.8624 19.0459 18.932L17.4394 20.0254C17.0809 20.2698 16.8167 20.6066 16.6832 20.9895L16.1486 22.5289C16.0901 22.6963 15.995 22.8519 15.8686 22.9866L15.3477 23.5418C15.0127 23.8994 14.8051 24.3369 14.7512 24.7991C14.7287 24.9944 14.6472 25.1807 14.5152 25.3383C14.3832 25.496 14.2057 25.6192 14.0012 25.695C13.8868 25.7378 13.763 25.757 13.639 25.7513C13.5149 25.7455 13.394 25.7149 13.2853 25.6617C13.1766 25.6086 13.0829 25.5342 13.0114 25.4444C12.9398 25.3545 12.8922 25.2514 12.8721 25.1428L12.3816 22.5332C12.332 22.2675 12.2096 22.0166 12.0252 21.8025L10.228 19.7133C10.0349 19.4887 9.89195 19.2334 9.80691 18.9613L9.21381 17.0641C9.12905 16.7923 8.96592 16.5448 8.74047 16.3457C8.51501 16.1466 8.23497 16.0029 7.92786 15.9287L7.7992 15.8977C7.47275 15.8186 7.17319 15.6698 6.92676 15.4643L5.82039 14.541C5.61535 14.3698 5.43944 14.1732 5.29816 13.9572C5.08378 13.63 4.75948 13.3703 4.37046 13.2141C3.98145 13.058 3.54713 13.0133 3.12807 13.0863L1.30958 13.6104L1.30682 13.6098C1.05441 14.561 0.923323 15.5343 0.916016 16.5114C0.916016 23.7503 7.5343 29.6185 15.6986 29.6185C23.8629 29.6185 30.4819 23.7503 30.4819 16.5114C30.4819 16.2121 30.464 15.8836 30.4317 15.5387Z" fill="#7CE5E9"/>
<path d="M29.4379 11.2173L29.4372 11.2166L26.9905 7.79038L26.9898 7.78977C26.1298 7.0094 25.1694 6.32111 24.1282 5.73901L24.1269 5.74023L22.8175 7.72822C22.701 7.90928 22.651 8.11798 22.6744 8.32536C22.6978 8.53274 22.7935 8.72852 22.9483 8.88554C23.2003 9.14099 23.5499 9.30505 23.9301 9.34628L24.131 9.36822C24.4051 9.39826 24.6634 9.49817 24.8746 9.65581C25.0858 9.81344 25.2407 10.022 25.3206 10.2562C25.3978 10.4811 25.4004 10.7209 25.3281 10.947C25.2557 11.1732 25.1115 11.3761 24.9126 11.5317L22.9214 13.0913C22.7633 13.2151 22.6367 13.3672 22.55 13.5377C22.4633 13.7081 22.4185 13.8929 22.4185 14.0798V14.4942C22.4185 14.6782 22.4705 14.8592 22.5698 15.0208C22.669 15.1824 22.8124 15.3194 22.9868 15.4193C23.1545 15.5153 23.2956 15.6434 23.3997 15.7943C23.5038 15.9452 23.5682 16.1149 23.5881 16.2908L23.6349 16.704C23.6621 16.948 23.7908 17.1744 23.9959 17.3391C24.201 17.5037 24.4679 17.595 24.7447 17.595H25.9103C26.3131 17.5949 26.7071 17.4909 27.0442 17.2956C27.3813 17.1004 27.6469 16.8224 27.8086 16.4956L27.8781 16.3542C27.9783 16.152 28.1404 15.9785 28.346 15.8535C28.5515 15.7285 28.7925 15.6569 29.0416 15.6467L29.3154 15.6357C29.3526 15.6339 29.389 15.632 29.4262 15.6284L30.4183 15.54L30.4314 15.5388C30.2945 14.0865 29.8934 12.3374 29.4379 11.2173Z" fill="#B1E862"/>
<path d="M19.1909 17.7181L18.1314 16.6126C18.0749 16.5541 18.0213 16.4932 17.971 16.431L17.5052 15.8654L13.4719 13.5246H13.4712C12.8644 13.2022 11.8709 13.1565 11.2475 13.4527L10.375 13.8671C10.0839 14.0055 9.74429 14.041 9.42472 13.9665C9.10514 13.892 8.82934 13.7129 8.65287 13.4655L7.80521 12.2795C7.65559 12.07 7.57818 11.8264 7.58245 11.5785C7.58673 11.3306 7.67251 11.0892 7.82929 10.8839C8.00322 10.6562 8.245 10.4757 8.52775 10.3625C8.81051 10.2492 9.12318 10.2075 9.43105 10.2421L10.7136 10.3866C11.0142 10.4205 11.3195 10.3754 11.5916 10.257C11.8636 10.1386 12.0904 9.95203 12.2438 9.72047C12.4027 9.48075 12.6375 9.28764 12.9192 9.1651C13.2009 9.04257 13.517 8.99601 13.8283 9.0312L14.3836 9.09397C14.649 9.124 14.9186 9.09199 15.1657 9.00111C15.4128 8.91023 15.6287 8.76365 15.792 8.57595L16.2812 8.01222C16.5491 7.70418 16.6994 7.3287 16.7105 6.94002C16.7217 6.55134 16.593 6.16959 16.3431 5.84993L14.4723 3.45971V3.4585C14.1242 3.48592 13.7815 3.52127 13.474 3.55966L13.4657 3.55723L9.27142 4.6725C8.36871 5.06802 7.19491 5.76522 6.40917 6.30884L2.85061 9.9612L2.84579 9.96424C2.15184 11.1134 1.63422 12.3394 1.30664 13.6099L1.30939 13.6105L3.12789 13.0864C3.54695 13.0134 3.98127 13.0581 4.37028 13.2142C4.75929 13.3703 5.0836 13.6301 5.29798 13.9573C5.43926 14.1732 5.61516 14.3699 5.8202 14.5411L6.92657 15.4644C7.173 15.6699 7.47257 15.8187 7.79901 15.8977L7.92768 15.9288C8.23479 16.003 8.51482 16.1467 8.74028 16.3458C8.96574 16.5448 9.12886 16.7924 9.21363 17.0642L9.80672 18.9614C9.89177 19.2335 10.0347 19.4888 10.2278 19.7134L12.025 21.8026C12.2095 22.0167 12.3318 22.2676 12.3814 22.5333L12.872 25.1429C12.892 25.2514 12.9396 25.3545 13.0112 25.4444C13.0828 25.5343 13.1764 25.6086 13.2851 25.6618C13.3938 25.715 13.5148 25.7456 13.6388 25.7513C13.7628 25.7571 13.8866 25.7379 14.001 25.6951C14.2055 25.6193 14.383 25.4961 14.515 25.3384C14.647 25.1808 14.7285 24.9945 14.751 24.7992C14.8049 24.337 15.0125 23.8994 15.3475 23.5419L15.8684 22.9867C15.9948 22.8519 16.0899 22.6964 16.1484 22.529L16.683 20.9896C16.8166 20.6067 17.0807 20.2699 17.4392 20.0255L19.0458 18.9321C19.1478 18.8625 19.2329 18.7752 19.2958 18.6756C19.3587 18.576 19.3981 18.4661 19.4117 18.3526C19.4253 18.2392 19.4127 18.1244 19.3748 18.0153C19.3368 17.9063 19.2743 17.8052 19.1909 17.7181Z" fill="#B1E862"/>
<path d="M2.98014 16.5115C2.98745 15.5345 3.11854 14.5612 3.37095 13.61C3.41953 13.4231 3.47228 13.2373 3.5292 13.0525H3.52439C3.39134 13.0524 3.25861 13.0639 3.12807 13.0866L1.30958 13.6107L1.30682 13.6101C1.05442 14.5613 0.923333 15.5345 0.916016 16.5115C0.916016 23.7504 7.5343 29.6187 15.6986 29.6187C16.0457 29.6187 16.3896 29.6073 16.7307 29.5864C9.04799 29.1165 2.98014 23.4427 2.98014 16.5115Z" fill="#64CCC9"/>
<path d="M3.12789 13.0864C3.25843 13.0636 3.39116 13.0522 3.5242 13.0523H3.52902C3.85421 11.9795 4.31755 10.9433 4.90992 9.96424L4.91474 9.9612L8.47329 6.30884C9.25904 5.76522 10.4328 5.06802 11.3356 4.6725L14.718 3.77321L14.4723 3.45971V3.4585C14.1242 3.48592 13.7815 3.52127 13.474 3.55966L13.4657 3.55723L9.27142 4.6725C8.36871 5.06802 7.19491 5.76522 6.40917 6.30884L2.85061 9.9612L2.84579 9.96424C2.15184 11.1134 1.63422 12.3394 1.30664 13.6099L1.30939 13.6105L3.12789 13.0864Z" fill="#9AC146"/>
<path d="M9.27159 4.67262L8.89729 4.22895C8.50297 3.76672 8.30516 3.19619 8.3386 2.6176C8.42598 1.42371 9.49933 0.365723 10.9779 0.365723C12.4565 0.365723 13.5299 1.42371 13.6173 2.6176C13.6407 2.93675 13.5892 3.25674 13.4659 3.55735C13.3691 3.79811 13.2318 4.02453 13.0586 4.22895L10.9779 6.69412L9.27159 4.67262Z" fill="#D4E1F4"/>
<path d="M6.91988 7.57952C6.95702 8.15823 6.75908 8.7296 6.36188 9.19026L4.28055 11.656L2.8508 9.9612L2.19991 9.19026C1.80612 8.72802 1.60836 8.15786 1.64122 7.57952C1.72929 6.38563 2.80195 5.32765 4.28055 5.32765C4.69849 5.32664 5.11048 5.41539 5.48123 5.58627C5.85198 5.75715 6.17045 6.00509 6.40936 6.30884C6.70873 6.68252 6.88544 7.12233 6.91988 7.57952Z" fill="#D4E1F4"/>
<path d="M10.8912 3.92236C11.6531 3.92236 12.2708 3.37501 12.2708 2.69983C12.2708 2.02464 11.6531 1.47729 10.8912 1.47729C10.1294 1.47729 9.51172 2.02464 9.51172 2.69983C9.51172 3.37501 10.1294 3.92236 10.8912 3.92236Z" fill="#FF8564"/>
<path d="M4.19349 6.43872C4.46657 6.43854 4.73357 6.5101 4.96073 6.64434C5.18789 6.77858 5.365 6.96948 5.46966 7.19289C5.57432 7.4163 5.60183 7.66219 5.54871 7.89945C5.49558 8.13671 5.36421 8.35468 5.17121 8.5258C4.97821 8.69692 4.73226 8.8135 4.46445 8.86079C4.19664 8.90809 3.91901 8.88397 3.66668 8.79149C3.41435 8.69901 3.19866 8.54232 3.04687 8.34125C2.89509 8.14017 2.81403 7.90374 2.81397 7.66186C2.81387 7.50132 2.84947 7.34232 2.91875 7.19396C2.98802 7.0456 3.08961 6.91079 3.21771 6.79721C3.34582 6.68362 3.49792 6.59351 3.66535 6.532C3.83277 6.47049 4.01224 6.43879 4.19349 6.43872Z" fill="#FF8564"/>
<path d="M18.7197 13.4098C18.7568 13.9885 18.5589 14.5599 18.1617 15.0206L16.0804 17.4864L14.6506 15.7915L13.9997 15.0206C13.6059 14.5583 13.4082 13.9882 13.441 13.4098C13.5291 12.2159 14.6018 11.158 16.0804 11.158C16.4983 11.157 16.9103 11.2457 17.281 11.4166C17.6518 11.5875 17.9703 11.8354 18.2092 12.1392C18.5085 12.5128 18.6852 12.9526 18.7197 13.4098Z" fill="#D4E1F4"/>
<path d="M16.0285 12.2954C16.3016 12.2952 16.5686 12.3668 16.7958 12.5011C17.0229 12.6353 17.2001 12.8263 17.3047 13.0497C17.4093 13.2732 17.4368 13.5191 17.3836 13.7564C17.3304 13.9936 17.199 14.2116 17.0059 14.3827C16.8129 14.5538 16.5668 14.6703 16.299 14.7176C16.0311 14.7648 15.7535 14.7406 15.5012 14.648C15.2488 14.5554 15.0332 14.3986 14.8815 14.1975C14.7298 13.9963 14.6489 13.7598 14.6489 13.5179C14.6489 13.1938 14.7941 12.8829 15.0529 12.6536C15.3116 12.4244 15.6625 12.2955 16.0285 12.2954Z" fill="#FF8564"/>
<path d="M30.772 8.87278C30.8015 9.33802 30.6424 9.79728 30.3234 10.1678L29.4372 11.2167L28.6501 12.1491L26.9775 10.1678C26.6815 9.82648 26.5221 9.40758 26.5244 8.97715C26.5268 8.54672 26.6908 8.12921 26.9905 7.79042C27.1846 7.56354 27.4356 7.37971 27.7236 7.25343C28.0116 7.12715 28.3288 7.06187 28.6501 7.06275C29.839 7.06275 30.7019 7.91353 30.772 8.87278ZM29.6897 8.93921C29.6897 8.74491 29.6247 8.55497 29.5028 8.39341C29.3809 8.23186 29.2077 8.10594 29.0051 8.03158C28.8024 7.95722 28.5794 7.93777 28.3642 7.97568C28.1491 8.01358 27.9515 8.10715 27.7963 8.24454C27.6412 8.38193 27.5356 8.55698 27.4928 8.74755C27.45 8.93812 27.472 9.13565 27.5559 9.31517C27.6399 9.49468 27.782 9.64811 27.9644 9.75606C28.1468 9.86401 28.3613 9.92163 28.5806 9.92163C28.8747 9.92153 29.1568 9.818 29.3648 9.63378C29.5727 9.44956 29.6896 9.19974 29.6897 8.93921Z" fill="#D4E1F4"/>
<path d="M28.5808 7.9563C28.8002 7.95624 29.0148 8.01381 29.1973 8.12175C29.3797 8.22968 29.522 8.38312 29.606 8.56266C29.6901 8.74221 29.7121 8.9398 29.6694 9.13044C29.6266 9.32108 29.521 9.49621 29.3659 9.63369C29.2108 9.77117 29.0131 9.86482 28.7979 9.90279C28.5827 9.94077 28.3596 9.92137 28.1569 9.84705C27.9541 9.77272 27.7808 9.64681 27.6589 9.48524C27.5369 9.32367 27.4717 9.13368 27.4717 8.93932C27.4716 8.67869 27.5884 8.42871 27.7964 8.24436C28.0044 8.06001 28.2866 7.9564 28.5808 7.9563Z" fill="#FF8564"/>
<path d="M28.5806 7.59058C28.2795 7.59053 27.9852 7.66956 27.7348 7.81769C27.4845 7.96582 27.2893 8.17638 27.1741 8.42275C27.0588 8.66912 27.0286 8.94023 27.0873 9.20179C27.146 9.46336 27.291 9.70363 27.5039 9.89222C27.7167 10.0808 27.988 10.2092 28.2833 10.2613C28.5786 10.3133 28.8846 10.2866 29.1628 10.1846C29.441 10.0826 29.6787 9.90974 29.846 9.68801C30.0133 9.46627 30.1026 9.20558 30.1026 8.9389C30.1021 8.58146 29.9417 8.23876 29.6563 7.98599C29.371 7.73321 28.9842 7.59101 28.5806 7.59058ZM28.5806 9.55589C28.4428 9.55594 28.3081 9.51979 28.1935 9.45203C28.079 9.38426 27.9896 9.28792 27.9369 9.17518C27.8841 9.06244 27.8703 8.93838 27.8971 8.81868C27.924 8.69898 27.9903 8.58901 28.0877 8.5027C28.1851 8.41639 28.3092 8.3576 28.4443 8.33377C28.5795 8.30995 28.7195 8.32215 28.8468 8.36884C28.9741 8.41554 29.0829 8.49462 29.1595 8.59609C29.2361 8.69756 29.2769 8.81686 29.2769 8.9389C29.2768 9.10246 29.2034 9.25929 29.0728 9.37497C28.9423 9.49065 28.7653 9.55574 28.5806 9.55595V9.55589Z" fill="#344D6B"/>
<path d="M10.8911 4.28821C11.2457 4.28834 11.5925 4.1953 11.8875 4.02085C12.1825 3.84641 12.4124 3.59839 12.5483 3.30818C12.6841 3.01796 12.7197 2.69858 12.6506 2.39044C12.5815 2.08229 12.4108 1.79921 12.16 1.57702C11.9093 1.35482 11.5898 1.20348 11.2419 1.14214C10.8941 1.0808 10.5335 1.11222 10.2058 1.23241C9.87806 1.35261 9.59796 1.55619 9.40089 1.8174C9.20382 2.07861 9.09863 2.38572 9.09863 2.69989C9.09905 3.12091 9.28801 3.52458 9.62404 3.82235C9.96007 4.12012 10.4157 4.28766 10.8911 4.28821ZM10.8911 1.8429C11.0824 1.84277 11.2696 1.89291 11.4288 1.987C11.588 2.08109 11.7121 2.21489 11.7855 2.37147C11.8588 2.52805 11.8781 2.70038 11.8408 2.86667C11.8036 3.03295 11.7115 3.18572 11.5762 3.30564C11.4409 3.42556 11.2685 3.50724 11.0808 3.54036C10.8931 3.57349 10.6986 3.55655 10.5217 3.49171C10.3449 3.42687 10.1937 3.31702 10.0874 3.17608C9.98105 3.03513 9.92428 2.86941 9.92428 2.69989C9.92446 2.47277 10.0264 2.25498 10.2076 2.09432C10.3888 1.93366 10.6346 1.84324 10.8911 1.8429Z" fill="#344D6B"/>
<path d="M17.8212 13.5181C17.821 13.2042 17.7158 12.8973 17.5187 12.6363C17.3217 12.3753 17.0417 12.1719 16.7142 12.0518C16.3866 11.9318 16.0262 11.9004 15.6786 11.9617C15.331 12.0231 15.0116 12.1743 14.761 12.3964C14.5105 12.6185 14.3398 12.9014 14.2707 13.2093C14.2016 13.5173 14.2372 13.8365 14.3728 14.1265C14.5085 14.4166 14.7383 14.6645 15.033 14.8389C15.3278 15.0133 15.6743 15.1064 16.0287 15.1064C16.5041 15.1059 16.9597 14.9383 17.2957 14.6406C17.6318 14.3428 17.8207 13.9391 17.8212 13.5181ZM16.0287 14.3751C15.8374 14.3753 15.6502 14.3251 15.491 14.231C15.3318 14.1369 15.2077 14.0031 15.1343 13.8466C15.061 13.69 15.0417 13.5176 15.079 13.3514C15.1162 13.1851 15.2083 13.0323 15.3436 12.9124C15.4789 12.7925 15.6513 12.7108 15.839 12.6777C16.0267 12.6445 16.2212 12.6615 16.3981 12.7263C16.5749 12.7912 16.7261 12.901 16.8324 13.0419C16.9388 13.1829 16.9955 13.3486 16.9955 13.5181C16.9953 13.7453 16.8934 13.9631 16.7122 14.1237C16.5309 14.2844 16.2851 14.3748 16.0286 14.3751H16.0287Z" fill="#344D6B"/>
<path d="M4.19379 9.24988C4.54848 9.25001 4.89525 9.15697 5.19023 8.98252C5.48522 8.80808 5.71517 8.56006 5.85101 8.26985C5.98685 7.97963 6.02247 7.66025 5.95336 7.35211C5.88426 7.04396 5.71353 6.76088 5.46278 6.53869C5.21203 6.31649 4.89252 6.16515 4.54466 6.10381C4.19679 6.04247 3.83621 6.07389 3.5085 6.19408C3.1808 6.31428 2.9007 6.51786 2.70362 6.77907C2.50655 7.04028 2.40137 7.34739 2.40137 7.66156C2.4018 8.08257 2.59076 8.48624 2.92679 8.784C3.26282 9.08177 3.71847 9.24931 4.19379 9.24988ZM4.19379 6.80457C4.38518 6.80444 4.57232 6.85458 4.73152 6.94867C4.89073 7.04276 5.01486 7.17655 5.08821 7.33314C5.16155 7.48972 5.18082 7.66205 5.14357 7.82834C5.10633 7.99462 5.01424 8.14739 4.87896 8.26731C4.74368 8.38723 4.57128 8.46891 4.38358 8.50203C4.19588 8.53516 4.0013 8.51822 3.82446 8.45338C3.64763 8.38854 3.49648 8.27869 3.39013 8.13775C3.28378 7.9968 3.22702 7.83109 3.22702 7.66156C3.2272 7.43444 3.32909 7.21665 3.51033 7.05599C3.69158 6.89533 3.93737 6.80491 4.19379 6.80457Z" fill="#344D6B"/>
<path d="M31.1842 8.84904C31.0956 7.64235 29.9826 6.69729 28.6502 6.69729C28.0345 6.69844 27.441 6.90113 26.9838 7.26639C25.631 6.09584 23.942 5.08759 22.0724 4.3381C19.9524 3.48824 17.7483 3.03902 15.6986 3.03902C15.1332 3.04358 14.5684 3.07463 14.0067 3.13202C14.0349 2.95375 14.0423 2.77339 14.029 2.59377C13.9222 1.13928 12.5819 0 10.9777 0C9.37342 0 8.03284 1.13928 7.92633 2.59316C7.88807 3.25859 8.1145 3.91483 8.56621 4.44762L8.65146 4.5486C7.8961 4.92717 7.16833 5.34737 6.47242 5.80672C6.19132 5.54101 5.85186 5.329 5.4749 5.1837C5.09794 5.03841 4.69142 4.96289 4.28032 4.9618C2.67601 4.9618 1.3355 6.10145 1.22906 7.55496C1.19083 8.2204 1.41726 8.87665 1.86894 9.40948L2.36109 9.99247C1.19486 11.9791 0.502964 14.3982 0.502964 16.5117C0.498712 18.2816 0.888622 20.035 1.65037 21.6713C2.41212 23.3076 3.53075 24.7947 4.94222 26.0476C6.35369 27.3005 8.03029 28.2945 9.87602 28.9727C11.7218 29.6509 13.7004 30 15.6986 30C17.6969 30 19.6755 29.6509 21.5212 28.9727C23.367 28.2945 25.0436 27.3005 26.455 26.0476C27.8665 24.7947 28.9851 23.3076 29.7469 21.6713C30.5086 20.035 30.8986 18.2816 30.8943 16.5117C30.8943 15.0116 30.463 12.762 29.8996 11.2799L30.6535 10.3871C31.0324 9.94713 31.2207 9.40144 31.1842 8.84904ZM8.75019 2.64118C8.819 1.70265 9.67114 0.731325 10.9777 0.731325C12.2842 0.731325 13.1361 1.7024 13.2051 2.64216C13.2358 3.13391 13.0665 3.6191 12.7278 4.00974L10.9777 6.08335L9.23044 4.01333C8.89436 3.61966 8.72445 3.13421 8.75019 2.64118ZM2.05312 7.60298C2.12193 6.66445 2.974 5.69312 4.28053 5.69312C5.58705 5.69312 6.43905 6.6642 6.508 7.60402C6.53871 8.09575 6.36937 8.58095 6.0307 8.97153L4.28032 11.0451L2.53331 8.97513C2.19724 8.58146 2.02736 8.096 2.05312 7.60298ZM2.91469 10.6483L3.95006 11.8748C3.9885 11.9203 4.0384 11.9573 4.09579 11.9828C4.15319 12.0082 4.2165 12.0215 4.2807 12.0215C4.34489 12.0215 4.40821 12.0082 4.4656 11.9828C4.523 11.9573 4.5729 11.9203 4.61134 11.8748L6.6917 9.40972C7.06012 8.98447 7.28127 8.47364 7.32833 7.93923C7.37539 7.40482 7.24633 6.8698 6.95681 6.3991C7.65609 5.93711 8.38903 5.5165 9.15084 5.14L10.6471 6.91273C10.6856 6.95827 10.7355 6.99525 10.7929 7.02071C10.8503 7.04618 10.9136 7.05944 10.9778 7.05944C11.042 7.05944 11.1053 7.04618 11.1627 7.02071C11.2201 6.99525 11.27 6.95827 11.3084 6.91273L13.3889 4.44774C13.5343 4.27611 13.6579 4.09084 13.7576 3.89528C13.9292 3.87584 14.1005 3.85768 14.2695 3.84251L16.0034 6.05818C16.2043 6.31375 16.3078 6.61943 16.2989 6.93073C16.2901 7.24203 16.1693 7.5427 15.9541 7.78898L15.4644 8.35228C15.3449 8.4892 15.1872 8.59615 15.0068 8.66259C14.8264 8.72902 14.6295 8.75264 14.4357 8.73111L13.8802 8.66822C13.4887 8.62373 13.0911 8.68215 12.7369 8.83621C12.3826 8.99027 12.0873 9.23317 11.8877 9.53472C11.7752 9.70457 11.6089 9.84142 11.4094 9.92828C11.2099 10.0151 10.986 10.0482 10.7655 10.0233L9.48282 9.87887C9.09918 9.83467 8.70924 9.88609 8.35677 10.0273C8.0043 10.1686 7.70328 10.3941 7.48749 10.6785C7.28558 10.9427 7.17508 11.2534 7.16953 11.5724C7.16398 11.8914 7.26363 12.2049 7.45626 12.4745L8.30358 13.6608C8.45974 13.8781 8.67538 14.057 8.93046 14.1807C9.18554 14.3045 9.4718 14.3692 9.76265 14.3687C10.0444 14.3689 10.3219 14.3073 10.5701 14.1892L11.4426 13.7748C11.87 13.5718 12.5641 13.5698 13.0644 13.7524C13.1121 14.3001 13.3337 14.8246 13.7035 15.2656L15.7844 17.7313C15.8228 17.7769 15.8727 17.8139 15.9301 17.8393C15.9875 17.8648 16.0508 17.8781 16.115 17.8781C16.1792 17.8781 16.2425 17.8648 16.2999 17.8393C16.3573 17.8139 16.4072 17.7769 16.4457 17.7313L17.5011 16.4809L17.6352 16.6437C17.6921 16.714 17.753 16.7831 17.8163 16.8491L18.8759 17.9545C18.9231 18.0038 18.9586 18.061 18.9801 18.1228C19.0016 18.1845 19.0087 18.2495 19.001 18.3138C18.9933 18.3781 18.971 18.4403 18.9353 18.4967C18.8997 18.553 18.8515 18.6024 18.7937 18.6418L17.188 19.7355C16.7607 20.0254 16.4463 20.4263 16.2888 20.8823L15.7536 22.4212C15.7115 22.5426 15.6427 22.6554 15.551 22.753L15.0302 23.3083C14.6423 23.7212 14.4021 24.2271 14.3404 24.7615C14.3253 24.8914 14.271 25.0154 14.1832 25.1203C14.0954 25.2252 13.9773 25.3073 13.8414 25.3579C13.7844 25.379 13.7227 25.3885 13.661 25.3855C13.5993 25.3825 13.5392 25.3672 13.4851 25.3407C13.4311 25.3142 13.3845 25.2773 13.3488 25.2325C13.3132 25.1878 13.2894 25.1366 13.2794 25.0826L12.7888 22.473C12.7276 22.1487 12.5781 21.8425 12.3534 21.5808L10.5562 19.4916C10.3947 19.3042 10.2753 19.0911 10.2044 18.8639L9.61128 16.9667C9.50642 16.6344 9.30628 16.3316 9.0303 16.088C8.75432 15.8444 8.41189 15.6681 8.03628 15.5763L7.90734 15.5452C7.64642 15.4819 7.40698 15.3629 7.20994 15.1987L6.10363 14.2752C5.92741 14.1282 5.77623 13.9593 5.65482 13.7738C5.39737 13.3806 5.00773 13.0685 4.5403 12.881C4.07287 12.6935 3.55099 12.6399 3.04755 12.7279C3.03142 12.7307 3.0155 12.7343 2.99987 12.7388L1.89137 13.0582C2.14998 12.2293 2.49248 11.4228 2.91469 10.6483ZM13.8877 13.4596C13.9565 12.521 14.8086 11.5497 16.1151 11.5497C17.4217 11.5497 18.2737 12.5208 18.3426 13.4606C18.3733 13.9523 18.204 14.4375 17.8653 14.8281L16.1151 16.9017L14.3679 14.8317C14.0319 14.438 13.862 13.9526 13.8877 13.4596ZM30.0686 16.5117C30.0686 23.5373 23.6222 29.253 15.6986 29.253C7.77496 29.253 1.32862 23.5373 1.32862 16.5117C1.33535 15.6313 1.44623 14.754 1.65943 13.8941L3.23043 13.4415C3.56213 13.3879 3.90441 13.4263 4.21054 13.5515C4.51666 13.6766 4.77171 13.8824 4.94084 14.1408C5.10232 14.3874 5.30335 14.612 5.53765 14.8075L6.64402 15.7307C6.93968 15.977 7.29887 16.1554 7.69026 16.2504L7.8192 16.2815C8.05687 16.3397 8.27352 16.4513 8.44811 16.6055C8.62269 16.7598 8.74927 16.9514 8.81556 17.1618L9.40872 19.0592C9.50752 19.3763 9.67411 19.6736 9.89943 19.9351L11.6967 22.0244C11.84 22.1913 11.9353 22.3867 11.9744 22.5935L12.4649 25.2031C12.4952 25.366 12.5667 25.5208 12.6742 25.6558C12.7817 25.7907 12.9224 25.9023 13.0856 25.9821C13.2489 26.0619 13.4304 26.1079 13.6166 26.1166C13.8028 26.1254 13.9888 26.0965 14.1606 26.0324C14.4333 25.931 14.67 25.7665 14.8461 25.5562C15.0222 25.3458 15.1311 25.0973 15.1614 24.8368C15.2064 24.4466 15.3818 24.0771 15.6651 23.7756L16.1859 23.2203C16.3472 23.0485 16.4684 22.85 16.5424 22.6364L17.0774 21.0975C17.1848 20.7865 17.3992 20.5131 17.6906 20.3154L19.297 19.2217C19.4435 19.1219 19.5656 18.9968 19.6558 18.854C19.7461 18.7112 19.8027 18.5537 19.8222 18.3909C19.8417 18.2282 19.8237 18.0636 19.7692 17.9072C19.7147 17.7508 19.625 17.6059 19.5054 17.4811L18.4458 16.3757C18.3971 16.3249 18.3502 16.2717 18.3046 16.2154L18.0186 15.868L18.5265 15.2664C18.9832 14.736 19.2103 14.0781 19.1663 13.4121C19.0596 11.9577 17.7193 10.8184 16.115 10.8184C14.6653 10.8184 13.4316 11.7488 13.1283 13.0008C12.4425 12.8218 11.6215 12.8607 11.0525 13.1308L10.18 13.5452C9.98053 13.6391 9.74841 13.6629 9.52996 13.612C9.3115 13.561 9.12277 13.439 9.0014 13.2702L8.154 12.0839C8.04726 11.9345 7.99204 11.7608 7.99511 11.584C7.99818 11.4073 8.0594 11.2351 8.17127 11.0887C8.30184 10.9166 8.484 10.7801 8.69729 10.6946C8.91058 10.6092 9.14656 10.578 9.37872 10.6048L10.6614 10.7491C11.0422 10.7923 11.429 10.7353 11.7735 10.5853C12.1181 10.4354 12.4054 10.199 12.5995 9.90562C12.7172 9.72751 12.8915 9.584 13.1006 9.49298C13.3097 9.40195 13.5444 9.36742 13.7755 9.39369L14.331 9.45659C14.6678 9.49401 15.0099 9.45299 15.3234 9.33757C15.6369 9.22214 15.9109 9.0363 16.1186 8.79839L16.6083 8.23509C16.9308 7.86605 17.1118 7.41547 17.1251 6.94896C17.1383 6.48245 16.9831 6.02438 16.682 5.64144L15.225 3.7801C15.392 3.774 15.5509 3.77035 15.6986 3.77035C17.632 3.77035 19.7181 4.19695 21.732 5.0044C22.3629 5.258 22.9761 5.54495 23.5682 5.86371L22.4592 7.5474C22.3002 7.79449 22.232 8.07928 22.2641 8.36225C22.2961 8.64522 22.4268 8.91233 22.6381 9.12651C22.9567 9.44982 23.3989 9.65755 23.8798 9.70987L24.081 9.73181C24.2756 9.75318 24.4591 9.82414 24.6091 9.93608C24.7591 10.048 24.8692 10.1961 24.926 10.3624C24.9798 10.5204 24.9813 10.6887 24.9306 10.8474C24.8798 11.0062 24.7788 11.1487 24.6394 11.2583L22.648 12.8179C22.4461 12.9762 22.2845 13.1705 22.1738 13.3882C22.0631 13.6059 22.0058 13.8419 22.0058 14.0806V14.4945C22.0051 14.7398 22.0742 14.9812 22.2066 15.1966C22.339 15.412 22.5305 15.5944 22.7634 15.7271C22.8791 15.793 22.9766 15.8813 23.0483 15.9854C23.12 16.0894 23.1642 16.2065 23.1776 16.3279L23.2241 16.7411C23.2606 17.0756 23.4367 17.386 23.7179 17.6116C23.9991 17.8373 24.3653 17.9618 24.7447 17.961H25.9103C26.3932 17.9609 26.8656 17.8362 27.2698 17.6021C27.674 17.3681 27.9925 17.0349 28.1864 16.6432L28.2564 16.5017C28.325 16.3615 28.4369 16.2412 28.5791 16.1547C28.7213 16.0682 28.8882 16.0189 29.0606 16.0124L29.3341 16.0015C29.3786 15.9997 29.423 15.9969 29.4673 15.9929L30.0488 15.941C30.0617 16.1413 30.0686 16.3329 30.0686 16.5117ZM29.9802 15.2116L29.3846 15.2647C29.3556 15.2673 29.3264 15.2691 29.2969 15.2703L29.023 15.2813C28.6966 15.2935 28.3806 15.3868 28.1113 15.5506C27.842 15.7145 27.6302 15.9422 27.5003 16.2077L27.4302 16.3491C27.3008 16.6108 27.0881 16.8333 26.8182 16.9896C26.5483 17.1459 26.2328 17.2292 25.9103 17.2294H24.7446C24.5701 17.2297 24.4017 17.1723 24.2724 17.0686C24.1432 16.9648 24.0622 16.822 24.0455 16.6681L23.9989 16.2549C23.9735 16.0241 23.8895 15.8014 23.753 15.6036C23.6166 15.4057 23.4313 15.2378 23.2111 15.1125C23.0943 15.0459 22.9983 14.9544 22.9319 14.8464C22.8655 14.7383 22.8309 14.6172 22.8312 14.4942V14.0803C22.8312 13.9452 22.8636 13.8116 22.9263 13.6883C22.9889 13.5651 23.0804 13.4551 23.1947 13.3655L25.1862 11.8058C25.4436 11.6034 25.6303 11.34 25.7241 11.0467C25.818 10.7534 25.8152 10.4424 25.716 10.1504C25.6127 9.84858 25.4128 9.57975 25.1404 9.37658C24.8681 9.17341 24.535 9.04462 24.1816 9.00585L23.9805 8.98391C23.7012 8.95353 23.4444 8.83289 23.2593 8.64512C23.1612 8.54587 23.1004 8.4221 23.0851 8.2909C23.0699 8.15971 23.101 8.02756 23.1742 7.9127L24.264 6.25813C25.0494 6.72386 25.7848 7.2525 26.4611 7.83737C26.2601 8.14672 26.1422 8.49286 26.1164 8.84904C26.0845 9.40097 26.2722 9.94534 26.6467 10.3873L28.3196 12.3687C28.3581 12.4143 28.408 12.4512 28.4654 12.4767C28.5228 12.5021 28.5861 12.5154 28.6502 12.5154C28.7144 12.5154 28.7777 12.5021 28.8351 12.4767C28.8925 12.4512 28.9424 12.4143 28.9809 12.3687L29.2885 12.0043C29.6171 13.055 29.8484 14.1276 29.9802 15.2116ZM29.9926 9.94865L28.6502 11.5385L27.311 9.95212C27.052 9.64934 26.9208 9.27581 26.9403 8.89633C26.9932 8.17476 27.6474 7.42844 28.6502 7.42844C29.6531 7.42844 30.3073 8.17476 30.3603 8.89718C30.3838 9.27539 30.2532 9.6485 29.9925 9.94871L29.9926 9.94865Z" fill="#344D6B"/>
</svg>
